%TF.GenerationSoftware,KiCad,Pcbnew,(5.1.10)-1*%
%TF.CreationDate,2021-07-24T22:22:28-04:00*%
%TF.ProjectId,PSU_fix,5053555f-6669-4782-9e6b-696361645f70,rev?*%
%TF.SameCoordinates,Original*%
%TF.FileFunction,Copper,L1,Top*%
%TF.FilePolarity,Positive*%
%FSLAX46Y46*%
G04 Gerber Fmt 4.6, Leading zero omitted, Abs format (unit mm)*
G04 Created by KiCad (PCBNEW (5.1.10)-1) date 2021-07-24 22:22:28*
%MOMM*%
%LPD*%
G01*
G04 APERTURE LIST*
%TA.AperFunction,ComponentPad*%
%ADD10R,2.000000X2.000000*%
%TD*%
%TA.AperFunction,ComponentPad*%
%ADD11C,2.000000*%
%TD*%
%TA.AperFunction,ComponentPad*%
%ADD12O,2.000000X2.000000*%
%TD*%
%TA.AperFunction,ComponentPad*%
%ADD13R,1.700000X1.700000*%
%TD*%
%TA.AperFunction,ComponentPad*%
%ADD14C,1.700000*%
%TD*%
%TA.AperFunction,ComponentPad*%
%ADD15R,1.500000X1.500000*%
%TD*%
%TA.AperFunction,ComponentPad*%
%ADD16C,1.900000*%
%TD*%
%TA.AperFunction,ComponentPad*%
%ADD17R,1.600000X1.600000*%
%TD*%
%TA.AperFunction,ComponentPad*%
%ADD18C,1.800000*%
%TD*%
%TA.AperFunction,ComponentPad*%
%ADD19R,1.800000X1.800000*%
%TD*%
%TA.AperFunction,ComponentPad*%
%ADD20R,2.400000X2.400000*%
%TD*%
%TA.AperFunction,ComponentPad*%
%ADD21O,2.400000X2.400000*%
%TD*%
%TA.AperFunction,ComponentPad*%
%ADD22R,2.000000X1.905000*%
%TD*%
%TA.AperFunction,ComponentPad*%
%ADD23O,2.000000X1.905000*%
%TD*%
%TA.AperFunction,ComponentPad*%
%ADD24C,2.400000*%
%TD*%
%TA.AperFunction,ViaPad*%
%ADD25C,5.000000*%
%TD*%
%TA.AperFunction,ViaPad*%
%ADD26C,2.000000*%
%TD*%
%TA.AperFunction,Conductor*%
%ADD27C,1.000000*%
%TD*%
%TA.AperFunction,Conductor*%
%ADD28C,0.813000*%
%TD*%
%TA.AperFunction,Conductor*%
%ADD29C,0.610000*%
%TD*%
%TA.AperFunction,Conductor*%
%ADD30C,0.025400*%
%TD*%
%TA.AperFunction,Conductor*%
%ADD31C,0.100000*%
%TD*%
G04 APERTURE END LIST*
D10*
%TO.P,C6,1*%
%TO.N,+12V*%
X89408000Y-72009000D03*
D11*
%TO.P,C6,2*%
%TO.N,GND*%
X89408000Y-74509000D03*
%TD*%
D10*
%TO.P,J11,1*%
%TO.N,Vout*%
X80518000Y-74803000D03*
D12*
%TO.P,J11,2*%
%TO.N,GND*%
X83058000Y-74803000D03*
%TD*%
D11*
%TO.P,R9,1*%
%TO.N,Net-(R9-Pad1)*%
X80772000Y-62992000D03*
D12*
%TO.P,R9,2*%
%TO.N,Net-(C3-Pad1)*%
X80772000Y-65532000D03*
%TD*%
D11*
%TO.P,BP1,40*%
%TO.N,GND*%
X172974000Y-72898000D03*
D13*
%TO.P,BP1,1*%
%TO.N,Net-(BP1-Pad1)*%
X172974000Y-57658000D03*
D11*
%TO.P,BP1,39*%
%TO.N,GND*%
X170434000Y-72898000D03*
D14*
%TO.P,BP1,2*%
%TO.N,Net-(BP1-Pad2)*%
X170434000Y-57658000D03*
D11*
%TO.P,BP1,38*%
%TO.N,+3V3*%
X167894000Y-72898000D03*
D14*
%TO.P,BP1,3*%
%TO.N,Net-(BP1-Pad3)*%
X167894000Y-57658000D03*
%TO.P,BP1,37*%
%TO.N,Net-(BP1-Pad37)*%
X165354000Y-72898000D03*
%TO.P,BP1,4*%
%TO.N,Net-(BP1-Pad4)*%
X165354000Y-57658000D03*
D11*
%TO.P,BP1,36*%
%TO.N,Net-(BP1-Pad36)*%
X162814000Y-72898000D03*
%TO.P,BP1,5*%
%TO.N,Net-(BP1-Pad5)*%
X162814000Y-57658000D03*
%TO.P,BP1,35*%
%TO.N,Net-(BP1-Pad35)*%
X160274000Y-72898000D03*
%TO.P,BP1,6*%
%TO.N,Net-(BP1-Pad6)*%
X160274000Y-57658000D03*
%TO.P,BP1,34*%
%TO.N,Net-(BP1-Pad34)*%
X157734000Y-72898000D03*
%TO.P,BP1,7*%
%TO.N,A10*%
X157734000Y-57658000D03*
%TO.P,BP1,33*%
%TO.N,Net-(BP1-Pad33)*%
X155194000Y-72898000D03*
D14*
%TO.P,BP1,8*%
%TO.N,Net-(BP1-Pad8)*%
X155194000Y-57658000D03*
D11*
%TO.P,BP1,32*%
%TO.N,A7*%
X152654000Y-72898000D03*
D14*
%TO.P,BP1,9*%
%TO.N,Net-(BP1-Pad9)*%
X152654000Y-57658000D03*
D11*
%TO.P,BP1,31*%
%TO.N,A6*%
X150114000Y-72898000D03*
%TO.P,BP1,10*%
%TO.N,Net-(BP1-Pad10)*%
X150114000Y-57658000D03*
%TO.P,BP1,30*%
%TO.N,Net-(BP1-Pad30)*%
X147574000Y-72898000D03*
%TO.P,BP1,11*%
%TO.N,Net-(BP1-Pad11)*%
X147574000Y-57658000D03*
%TO.P,BP1,29*%
%TO.N,Net-(BP1-Pad29)*%
X145034000Y-72898000D03*
%TO.P,BP1,12*%
%TO.N,B4*%
X145034000Y-57658000D03*
D14*
%TO.P,BP1,28*%
%TO.N,Net-(BP1-Pad28)*%
X142494000Y-72898000D03*
%TO.P,BP1,13*%
%TO.N,Net-(BP1-Pad13)*%
X142494000Y-57658000D03*
%TO.P,BP1,27*%
%TO.N,Net-(BP1-Pad27)*%
X139954000Y-72898000D03*
%TO.P,BP1,14*%
%TO.N,Net-(BP1-Pad14)*%
X139954000Y-57658000D03*
D11*
%TO.P,BP1,26*%
%TO.N,A1*%
X137414000Y-72898000D03*
D14*
%TO.P,BP1,15*%
%TO.N,Net-(BP1-Pad15)*%
X137414000Y-57658000D03*
D11*
%TO.P,BP1,25*%
%TO.N,A0*%
X134874000Y-72898000D03*
%TO.P,BP1,16*%
%TO.N,Net-(BP1-Pad16)*%
X134874000Y-57658000D03*
D14*
%TO.P,BP1,24*%
%TO.N,Net-(BP1-Pad24)*%
X132334000Y-72898000D03*
D11*
%TO.P,BP1,17*%
%TO.N,Net-(BP1-Pad17)*%
X132334000Y-57658000D03*
D14*
%TO.P,BP1,23*%
%TO.N,Net-(BP1-Pad23)*%
X129794000Y-72898000D03*
D11*
%TO.P,BP1,18*%
%TO.N,+5V*%
X129794000Y-57658000D03*
D14*
%TO.P,BP1,22*%
%TO.N,Net-(BP1-Pad22)*%
X127254000Y-72898000D03*
D11*
%TO.P,BP1,19*%
%TO.N,GND*%
X127254000Y-57658000D03*
D14*
%TO.P,BP1,21*%
%TO.N,Net-(BP1-Pad21)*%
X124714000Y-72898000D03*
%TO.P,BP1,20*%
%TO.N,Net-(BP1-Pad20)*%
X124714000Y-57658000D03*
%TD*%
D11*
%TO.P,C1,2*%
%TO.N,GND*%
X105283000Y-56547000D03*
D15*
%TO.P,C1,1*%
%TO.N,Net-(C1-Pad1)*%
X105283000Y-58547000D03*
%TD*%
%TO.P,C2,1*%
%TO.N,/PIN_2_TL494*%
X74104500Y-85788500D03*
D16*
%TO.P,C2,2*%
%TO.N,GND*%
X74104500Y-87788500D03*
%TD*%
D11*
%TO.P,C3,2*%
%TO.N,GND*%
X82677000Y-70961000D03*
D17*
%TO.P,C3,1*%
%TO.N,Net-(C3-Pad1)*%
X82677000Y-68961000D03*
%TD*%
D15*
%TO.P,C4,1*%
%TO.N,Net-(C4-Pad1)*%
X97536000Y-52070000D03*
D18*
%TO.P,C4,2*%
%TO.N,GND*%
X97536000Y-50070000D03*
%TD*%
D11*
%TO.P,C5,2*%
%TO.N,GND*%
X139587600Y-87376000D03*
%TO.P,C5,1*%
%TO.N,+5V*%
X142087600Y-87376000D03*
%TD*%
%TO.P,C8,2*%
%TO.N,Net-(C8-Pad2)*%
X106005000Y-50800000D03*
D19*
%TO.P,C8,1*%
%TO.N,GND*%
X103505000Y-50800000D03*
%TD*%
D11*
%TO.P,C9,1*%
%TO.N,GND*%
X153289000Y-44958000D03*
%TO.P,C9,2*%
%TO.N,Net-(BP1-Pad5)*%
X155789000Y-44958000D03*
%TD*%
%TO.P,C10,1*%
%TO.N,Net-(BP1-Pad10)*%
X158242000Y-44958000D03*
%TO.P,C10,2*%
%TO.N,GND*%
X160742000Y-44958000D03*
%TD*%
%TO.P,C11,2*%
%TO.N,Net-(BP1-Pad6)*%
X168402000Y-45506000D03*
%TO.P,C11,1*%
%TO.N,GND*%
X168402000Y-48006000D03*
%TD*%
%TO.P,C12,2*%
%TO.N,GND*%
X120436000Y-49466500D03*
D19*
%TO.P,C12,1*%
%TO.N,+3V3*%
X122936000Y-49466500D03*
%TD*%
D20*
%TO.P,D1,1*%
%TO.N,Net-(D1-Pad1)*%
X115316000Y-78740000D03*
D21*
%TO.P,D1,2*%
%TO.N,Net-(C8-Pad2)*%
X115316000Y-68580000D03*
%TD*%
D10*
%TO.P,J1,1*%
%TO.N,Net-(J1-Pad1)*%
X76835000Y-51816000D03*
%TD*%
%TO.P,J6,1*%
%TO.N,GND*%
X164592000Y-48260000D03*
D12*
%TO.P,J6,2*%
%TO.N,Net-(BP1-Pad6)*%
X162052000Y-48260000D03*
%TO.P,J6,3*%
%TO.N,Net-(BP1-Pad10)*%
X159512000Y-48260000D03*
%TO.P,J6,4*%
%TO.N,Net-(BP1-Pad5)*%
X156972000Y-48260000D03*
%TO.P,J6,5*%
%TO.N,Net-(BP1-Pad11)*%
X154432000Y-48260000D03*
%TO.P,J6,6*%
%TO.N,Net-(BP1-Pad17)*%
X151892000Y-48260000D03*
%TO.P,J6,7*%
%TO.N,Net-(BP1-Pad16)*%
X149352000Y-48260000D03*
%TO.P,J6,8*%
%TO.N,+3V3*%
X146812000Y-48260000D03*
%TD*%
%TO.P,J7,2*%
%TO.N,Net-(J7-Pad2)*%
X88392000Y-79629000D03*
D10*
%TO.P,J7,1*%
%TO.N,+12V*%
X85852000Y-79629000D03*
%TD*%
D13*
%TO.P,J8,1*%
%TO.N,Net-(J8-Pad1)*%
X129286000Y-49911000D03*
%TD*%
%TO.P,J9,1*%
%TO.N,Net-(J8-Pad1)*%
X133159500Y-46418500D03*
D12*
%TO.P,J9,2*%
%TO.N,GND*%
X133159500Y-43878500D03*
%TD*%
D19*
%TO.P,J10,1*%
%TO.N,GND*%
X139954000Y-83693000D03*
D12*
%TO.P,J10,2*%
%TO.N,+5V*%
X142494000Y-83693000D03*
%TO.P,J10,3*%
%TO.N,Net-(J10-Pad3)*%
X145034000Y-83693000D03*
%TO.P,J10,4*%
%TO.N,Net-(BP1-Pad29)*%
X147574000Y-83693000D03*
%TO.P,J10,5*%
%TO.N,Net-(BP1-Pad30)*%
X150114000Y-83693000D03*
%TO.P,J10,6*%
%TO.N,Net-(BP1-Pad33)*%
X152654000Y-83693000D03*
%TO.P,J10,7*%
%TO.N,Net-(BP1-Pad34)*%
X155194000Y-83693000D03*
%TO.P,J10,8*%
%TO.N,Net-(BP1-Pad35)*%
X157734000Y-83693000D03*
%TO.P,J10,9*%
%TO.N,Net-(BP1-Pad36)*%
X160274000Y-83693000D03*
%TO.P,J10,10*%
%TO.N,Net-(J10-Pad10)*%
X162814000Y-83693000D03*
%TD*%
D10*
%TO.P,J14,1*%
%TO.N,Net-(D1-Pad1)*%
X97028000Y-84074000D03*
D12*
%TO.P,J14,2*%
%TO.N,GND*%
X94488000Y-84074000D03*
%TO.P,J14,3*%
%TO.N,+12V*%
X91948000Y-84074000D03*
%TD*%
D10*
%TO.P,Q1,1*%
%TO.N,GND*%
X92837000Y-80137000D03*
D12*
%TO.P,Q1,2*%
%TO.N,Net-(J7-Pad2)*%
X95377000Y-80137000D03*
%TO.P,Q1,3*%
%TO.N,Net-(Q1-Pad3)*%
X97917000Y-80137000D03*
%TD*%
%TO.P,Q2,3*%
%TO.N,Net-(Q2-Pad3)*%
X97790000Y-69977000D03*
%TO.P,Q2,2*%
%TO.N,-12V*%
X97790000Y-72517000D03*
D10*
%TO.P,Q2,1*%
%TO.N,GND*%
X97790000Y-75057000D03*
%TD*%
D12*
%TO.P,R4,2*%
%TO.N,Net-(J1-Pad1)*%
X76708000Y-55372000D03*
D11*
%TO.P,R4,1*%
%TO.N,Net-(R4-Pad1)*%
X79248000Y-55372000D03*
%TD*%
D12*
%TO.P,R6,2*%
%TO.N,GND*%
X76073000Y-46990000D03*
D11*
%TO.P,R6,1*%
%TO.N,Net-(R10-Pad1)*%
X78613000Y-46990000D03*
%TD*%
%TO.P,R7,1*%
%TO.N,Net-(R11-Pad1)*%
X99568000Y-57023000D03*
D12*
%TO.P,R7,2*%
%TO.N,GND*%
X99568000Y-54483000D03*
%TD*%
D11*
%TO.P,R10,1*%
%TO.N,Net-(R10-Pad1)*%
X82804000Y-46990000D03*
D12*
%TO.P,R10,2*%
%TO.N,Net-(C4-Pad1)*%
X85344000Y-46990000D03*
%TD*%
D11*
%TO.P,R11,1*%
%TO.N,Net-(R11-Pad1)*%
X94742000Y-56896000D03*
D12*
%TO.P,R11,2*%
%TO.N,Net-(R11-Pad2)*%
X94742000Y-54356000D03*
%TD*%
D11*
%TO.P,R12,1*%
%TO.N,/PIN_2_TL494*%
X78676500Y-85153500D03*
D12*
%TO.P,R12,2*%
%TO.N,Net-(R12-Pad2)*%
X81216500Y-85153500D03*
%TD*%
%TO.P,R13,2*%
%TO.N,GND*%
X98247200Y-88595200D03*
D11*
%TO.P,R13,1*%
%TO.N,Net-(R12-Pad2)*%
X95707200Y-88595200D03*
%TD*%
%TO.P,RV1,3*%
%TO.N,GND*%
X171831000Y-88058000D03*
D10*
%TO.P,RV1,1*%
%TO.N,+5V*%
X171831000Y-83058000D03*
D11*
%TO.P,RV1,2*%
%TO.N,Net-(J10-Pad3)*%
X166831000Y-85558000D03*
%TD*%
D12*
%TO.P,R14,2*%
%TO.N,A0*%
X95377000Y-66294000D03*
D11*
%TO.P,R14,1*%
%TO.N,Net-(C3-Pad1)*%
X85217000Y-66294000D03*
%TD*%
%TO.P,R15,1*%
%TO.N,Net-(C4-Pad1)*%
X88392000Y-46990000D03*
D12*
%TO.P,R15,2*%
%TO.N,A1*%
X98552000Y-46990000D03*
%TD*%
D11*
%TO.P,R17,1*%
%TO.N,Net-(Q1-Pad3)*%
X101219000Y-77851000D03*
D12*
%TO.P,R17,2*%
%TO.N,A10*%
X111379000Y-77851000D03*
%TD*%
D11*
%TO.P,R18,1*%
%TO.N,Net-(J8-Pad1)*%
X133096000Y-49911000D03*
D12*
%TO.P,R18,2*%
%TO.N,B4*%
X143256000Y-49911000D03*
%TD*%
D11*
%TO.P,R16,1*%
%TO.N,Net-(R11-Pad2)*%
X90678000Y-51562000D03*
D12*
%TO.P,R16,2*%
%TO.N,/PIN_16_TL494*%
X80518000Y-51562000D03*
%TD*%
D11*
%TO.P,R5,1*%
%TO.N,Net-(R3-Pad1)*%
X79883000Y-59309000D03*
D12*
%TO.P,R5,2*%
%TO.N,GND*%
X69723000Y-59309000D03*
%TD*%
%TO.P,R26,2*%
%TO.N,GND*%
X107124500Y-74993500D03*
D11*
%TO.P,R26,1*%
%TO.N,Net-(Q2-Pad3)*%
X107124500Y-64833500D03*
%TD*%
%TO.P,R28,1*%
%TO.N,Net-(R27-Pad2)*%
X119888000Y-70408800D03*
D12*
%TO.P,R28,2*%
%TO.N,GND*%
X119888000Y-80568800D03*
%TD*%
D11*
%TO.P,R27,1*%
%TO.N,-12V*%
X110185200Y-65430400D03*
D12*
%TO.P,R27,2*%
%TO.N,Net-(R27-Pad2)*%
X120345200Y-65430400D03*
%TD*%
D22*
%TO.P,U4,1*%
%TO.N,+12V*%
X114173000Y-83439000D03*
D23*
%TO.P,U4,2*%
%TO.N,GND*%
X114173000Y-85979000D03*
%TO.P,U4,3*%
%TO.N,+5V*%
X114173000Y-88519000D03*
%TD*%
D11*
%TO.P,R19,1*%
%TO.N,+5V*%
X152654000Y-88671400D03*
D12*
%TO.P,R19,2*%
%TO.N,Net-(J10-Pad10)*%
X162814000Y-88671400D03*
%TD*%
D10*
%TO.P,J2,1*%
%TO.N,/PIN_16_TL494*%
X74295000Y-74612500D03*
D12*
%TO.P,J2,2*%
%TO.N,/PIN_1_TL494*%
X74295000Y-77152500D03*
%TO.P,J2,3*%
%TO.N,/PIN_2_TL494*%
X74295000Y-79692500D03*
%TO.P,J2,4*%
%TO.N,/PIN_15_TL494*%
X74295000Y-82232500D03*
%TD*%
D11*
%TO.P,R20,1*%
%TO.N,/PIN_15_TL494*%
X80581500Y-80645000D03*
D12*
%TO.P,R20,2*%
%TO.N,Vout*%
X80581500Y-78105000D03*
%TD*%
D11*
%TO.P,R8,1*%
%TO.N,/PIN_2_TL494*%
X141859000Y-78917800D03*
D12*
%TO.P,R8,2*%
%TO.N,A7*%
X152019000Y-78917800D03*
%TD*%
D11*
%TO.P,R21,1*%
%TO.N,/PIN_15_TL494*%
X84582000Y-86487000D03*
D12*
%TO.P,R21,2*%
%TO.N,GND*%
X87122000Y-86487000D03*
%TD*%
D11*
%TO.P,R2,1*%
%TO.N,Net-(C1-Pad1)*%
X95808800Y-60909200D03*
D12*
%TO.P,R2,2*%
%TO.N,A6*%
X98348800Y-60909200D03*
%TD*%
D11*
%TO.P,R1,1*%
%TO.N,/PIN_1_TL494*%
X73787000Y-66675000D03*
D12*
%TO.P,R1,2*%
%TO.N,Net-(J1-Pad1)*%
X73787000Y-64135000D03*
%TD*%
%TO.P,R3,2*%
%TO.N,Vout*%
X77343000Y-68897500D03*
D11*
%TO.P,R3,1*%
%TO.N,Net-(R3-Pad1)*%
X77343000Y-66357500D03*
%TD*%
D12*
%TO.P,R22,2*%
%TO.N,Net-(C8-Pad2)*%
X113385600Y-48234600D03*
D11*
%TO.P,R22,1*%
%TO.N,-12V*%
X110845600Y-48234600D03*
%TD*%
%TO.P,R23,1*%
%TO.N,-12V*%
X110845600Y-51790600D03*
D12*
%TO.P,R23,2*%
%TO.N,Net-(C8-Pad2)*%
X113385600Y-51790600D03*
%TD*%
%TO.P,R24,2*%
%TO.N,Net-(C8-Pad2)*%
X113385600Y-55346600D03*
D11*
%TO.P,R24,1*%
%TO.N,-12V*%
X110845600Y-55346600D03*
%TD*%
%TO.P,R25,1*%
%TO.N,-12V*%
X110845600Y-58902600D03*
D12*
%TO.P,R25,2*%
%TO.N,Net-(C8-Pad2)*%
X113385600Y-58902600D03*
%TD*%
D11*
%TO.P,U3,2*%
%TO.N,-12V*%
X100685600Y-68986400D03*
%TO.P,U3,3*%
%TO.N,Net-(Q2-Pad3)*%
X103225600Y-66446400D03*
D10*
%TO.P,U3,1*%
%TO.N,Net-(R27-Pad2)*%
X103225600Y-71526400D03*
%TD*%
D20*
%TO.P,C7,1*%
%TO.N,+5V*%
X128016000Y-82499200D03*
D24*
%TO.P,C7,2*%
%TO.N,GND*%
X128016000Y-87499200D03*
%TD*%
D25*
%TO.N,*%
X175577500Y-45974000D03*
X175577500Y-92392500D03*
X70802500Y-92456000D03*
X70802500Y-45847000D03*
D26*
%TO.N,GND*%
X92075000Y-86995000D03*
X92075000Y-94234000D03*
%TO.N,+3V3*%
X172720000Y-67564000D03*
X177927000Y-67564000D03*
X149225000Y-52705000D03*
X168021000Y-52705000D03*
X146050000Y-52705000D03*
X129667000Y-52705000D03*
%TO.N,Net-(BP1-Pad5)*%
X156464000Y-51054000D03*
X164592000Y-51054000D03*
%TO.N,A10*%
X124460000Y-68986400D03*
X153822400Y-68986400D03*
%TO.N,A6*%
X102666800Y-60858400D03*
X127863600Y-60909200D03*
%TO.N,A0*%
X105511600Y-62433200D03*
X118567200Y-62433200D03*
%TO.N,+5V*%
X160528000Y-60452000D03*
X153416000Y-60452000D03*
X170688000Y-79121000D03*
X176149000Y-79121000D03*
%TO.N,+12V*%
X118846600Y-83439000D03*
X89230200Y-84074000D03*
X89204800Y-90805000D03*
X118821200Y-90805000D03*
%TO.N,Net-(D1-Pad1)*%
X101930200Y-80899000D03*
X110236000Y-80873600D03*
%TO.N,/PIN_2_TL494*%
X136398000Y-78917800D03*
X136398000Y-92354400D03*
%TD*%
D27*
%TO.N,GND*%
X92075000Y-86995000D02*
X92075000Y-94234000D01*
D28*
%TO.N,+3V3*%
X138202502Y-52705000D02*
X129667000Y-52705000D01*
X146050000Y-52705000D02*
X138202502Y-52705000D01*
X149236501Y-52716501D02*
X149225000Y-52705000D01*
X168009499Y-52716501D02*
X149236501Y-52716501D01*
X168021000Y-52705000D02*
X168009499Y-52716501D01*
X172720000Y-67564000D02*
X177927000Y-67564000D01*
%TO.N,Net-(BP1-Pad5)*%
X156464000Y-51054000D02*
X164592000Y-51054000D01*
%TO.N,A10*%
X124460000Y-68986400D02*
X153822400Y-68986400D01*
%TO.N,A6*%
X127812800Y-60858400D02*
X127863600Y-60909200D01*
X102666800Y-60858400D02*
X127812800Y-60858400D01*
%TO.N,A0*%
X105511600Y-62433200D02*
X118567200Y-62433200D01*
%TO.N,+5V*%
X160528000Y-60452000D02*
X153416000Y-60452000D01*
X170688000Y-79121000D02*
X176149000Y-79121000D01*
D29*
%TO.N,+12V*%
X118846600Y-90779600D02*
X118821200Y-90805000D01*
X118846600Y-83439000D02*
X118846600Y-90779600D01*
X89230200Y-90779600D02*
X89204800Y-90805000D01*
X89230200Y-84074000D02*
X89230200Y-90779600D01*
D28*
%TO.N,Net-(D1-Pad1)*%
X103918022Y-80873600D02*
X110236000Y-80873600D01*
X103892622Y-80899000D02*
X103918022Y-80873600D01*
X101930200Y-80899000D02*
X103892622Y-80899000D01*
%TO.N,/PIN_2_TL494*%
X136398000Y-78917800D02*
X136398000Y-92354400D01*
%TD*%
D30*
%TO.N,GND*%
X92959694Y-87433294D02*
X92884395Y-87587553D01*
X92884378Y-87587588D01*
X92814527Y-87731794D01*
X92814415Y-87732033D01*
X92753666Y-87864401D01*
X92753455Y-87864886D01*
X92701573Y-87991610D01*
X92701301Y-87992336D01*
X92658050Y-88119608D01*
X92657784Y-88120497D01*
X92622926Y-88254509D01*
X92622722Y-88255436D01*
X92596022Y-88402380D01*
X92595897Y-88403223D01*
X92577119Y-88569291D01*
X92577060Y-88569983D01*
X92565966Y-88761369D01*
X92565947Y-88761896D01*
X92562506Y-88972300D01*
X91587494Y-88972300D01*
X91584052Y-88761896D01*
X91584033Y-88761369D01*
X91572939Y-88569983D01*
X91572880Y-88569291D01*
X91554102Y-88403223D01*
X91553977Y-88402380D01*
X91527277Y-88255436D01*
X91527073Y-88254509D01*
X91492215Y-88120497D01*
X91491949Y-88119608D01*
X91448698Y-87992336D01*
X91448426Y-87991610D01*
X91396544Y-87864886D01*
X91396333Y-87864401D01*
X91335584Y-87732033D01*
X91335472Y-87731794D01*
X91265621Y-87587588D01*
X91265604Y-87587553D01*
X91190306Y-87433294D01*
X92075000Y-86513322D01*
X92959694Y-87433294D01*
%TA.AperFunction,Conductor*%
D31*
G36*
X92959694Y-87433294D02*
G01*
X92884395Y-87587553D01*
X92884378Y-87587588D01*
X92814527Y-87731794D01*
X92814415Y-87732033D01*
X92753666Y-87864401D01*
X92753455Y-87864886D01*
X92701573Y-87991610D01*
X92701301Y-87992336D01*
X92658050Y-88119608D01*
X92657784Y-88120497D01*
X92622926Y-88254509D01*
X92622722Y-88255436D01*
X92596022Y-88402380D01*
X92595897Y-88403223D01*
X92577119Y-88569291D01*
X92577060Y-88569983D01*
X92565966Y-88761369D01*
X92565947Y-88761896D01*
X92562506Y-88972300D01*
X91587494Y-88972300D01*
X91584052Y-88761896D01*
X91584033Y-88761369D01*
X91572939Y-88569983D01*
X91572880Y-88569291D01*
X91554102Y-88403223D01*
X91553977Y-88402380D01*
X91527277Y-88255436D01*
X91527073Y-88254509D01*
X91492215Y-88120497D01*
X91491949Y-88119608D01*
X91448698Y-87992336D01*
X91448426Y-87991610D01*
X91396544Y-87864886D01*
X91396333Y-87864401D01*
X91335584Y-87732033D01*
X91335472Y-87731794D01*
X91265621Y-87587588D01*
X91265604Y-87587553D01*
X91190306Y-87433294D01*
X92075000Y-86513322D01*
X92959694Y-87433294D01*
G37*
%TD.AperFunction*%
%TD*%
D30*
%TO.N,GND*%
X92565947Y-92467103D02*
X92565966Y-92467630D01*
X92577060Y-92659016D01*
X92577119Y-92659708D01*
X92595897Y-92825776D01*
X92596022Y-92826619D01*
X92622722Y-92973563D01*
X92622926Y-92974490D01*
X92657784Y-93108502D01*
X92658050Y-93109391D01*
X92701301Y-93236663D01*
X92701573Y-93237389D01*
X92753455Y-93364113D01*
X92753666Y-93364598D01*
X92814415Y-93496966D01*
X92814527Y-93497205D01*
X92884378Y-93641411D01*
X92884395Y-93641446D01*
X92959694Y-93795706D01*
X92075000Y-94715678D01*
X91190306Y-93795706D01*
X91265604Y-93641446D01*
X91265621Y-93641411D01*
X91335472Y-93497205D01*
X91335584Y-93496966D01*
X91396333Y-93364598D01*
X91396544Y-93364113D01*
X91448426Y-93237389D01*
X91448698Y-93236663D01*
X91491949Y-93109391D01*
X91492215Y-93108502D01*
X91527073Y-92974490D01*
X91527277Y-92973563D01*
X91553977Y-92826619D01*
X91554102Y-92825776D01*
X91572880Y-92659708D01*
X91572939Y-92659016D01*
X91584033Y-92467630D01*
X91584052Y-92467103D01*
X91587494Y-92256700D01*
X92562506Y-92256700D01*
X92565947Y-92467103D01*
%TA.AperFunction,Conductor*%
D31*
G36*
X92565947Y-92467103D02*
G01*
X92565966Y-92467630D01*
X92577060Y-92659016D01*
X92577119Y-92659708D01*
X92595897Y-92825776D01*
X92596022Y-92826619D01*
X92622722Y-92973563D01*
X92622926Y-92974490D01*
X92657784Y-93108502D01*
X92658050Y-93109391D01*
X92701301Y-93236663D01*
X92701573Y-93237389D01*
X92753455Y-93364113D01*
X92753666Y-93364598D01*
X92814415Y-93496966D01*
X92814527Y-93497205D01*
X92884378Y-93641411D01*
X92884395Y-93641446D01*
X92959694Y-93795706D01*
X92075000Y-94715678D01*
X91190306Y-93795706D01*
X91265604Y-93641446D01*
X91265621Y-93641411D01*
X91335472Y-93497205D01*
X91335584Y-93496966D01*
X91396333Y-93364598D01*
X91396544Y-93364113D01*
X91448426Y-93237389D01*
X91448698Y-93236663D01*
X91491949Y-93109391D01*
X91492215Y-93108502D01*
X91527073Y-92974490D01*
X91527277Y-92973563D01*
X91553977Y-92826619D01*
X91554102Y-92825776D01*
X91572880Y-92659708D01*
X91572939Y-92659016D01*
X91584033Y-92467630D01*
X91584052Y-92467103D01*
X91587494Y-92256700D01*
X92562506Y-92256700D01*
X92565947Y-92467103D01*
G37*
%TD.AperFunction*%
%TD*%
D30*
%TO.N,+3V3*%
X130266797Y-51901894D02*
X130414485Y-51980960D01*
X130547500Y-52053075D01*
X130547738Y-52053201D01*
X130672892Y-52117658D01*
X130673475Y-52117939D01*
X130797776Y-52174133D01*
X130798677Y-52174500D01*
X130929133Y-52221830D01*
X130930227Y-52222171D01*
X131073845Y-52260033D01*
X131074958Y-52260274D01*
X131238748Y-52288064D01*
X131239738Y-52288192D01*
X131430708Y-52305309D01*
X131431513Y-52305356D01*
X131644300Y-52310875D01*
X131644300Y-53099125D01*
X131431513Y-53104643D01*
X131430708Y-53104690D01*
X131239738Y-53121807D01*
X131238748Y-53121935D01*
X131074958Y-53149725D01*
X131073845Y-53149966D01*
X130930227Y-53187828D01*
X130929133Y-53188169D01*
X130798677Y-53235499D01*
X130797776Y-53235866D01*
X130673475Y-53292060D01*
X130672892Y-53292341D01*
X130547738Y-53356798D01*
X130547500Y-53356924D01*
X130414485Y-53429039D01*
X130266797Y-53508105D01*
X130105205Y-53589608D01*
X129185322Y-52705000D01*
X130105205Y-51820392D01*
X130266797Y-51901894D01*
%TA.AperFunction,Conductor*%
D31*
G36*
X130266797Y-51901894D02*
G01*
X130414485Y-51980960D01*
X130547500Y-52053075D01*
X130547738Y-52053201D01*
X130672892Y-52117658D01*
X130673475Y-52117939D01*
X130797776Y-52174133D01*
X130798677Y-52174500D01*
X130929133Y-52221830D01*
X130930227Y-52222171D01*
X131073845Y-52260033D01*
X131074958Y-52260274D01*
X131238748Y-52288064D01*
X131239738Y-52288192D01*
X131430708Y-52305309D01*
X131431513Y-52305356D01*
X131644300Y-52310875D01*
X131644300Y-53099125D01*
X131431513Y-53104643D01*
X131430708Y-53104690D01*
X131239738Y-53121807D01*
X131238748Y-53121935D01*
X131074958Y-53149725D01*
X131073845Y-53149966D01*
X130930227Y-53187828D01*
X130929133Y-53188169D01*
X130798677Y-53235499D01*
X130797776Y-53235866D01*
X130673475Y-53292060D01*
X130672892Y-53292341D01*
X130547738Y-53356798D01*
X130547500Y-53356924D01*
X130414485Y-53429039D01*
X130266797Y-53508105D01*
X130105205Y-53589608D01*
X129185322Y-52705000D01*
X130105205Y-51820392D01*
X130266797Y-51901894D01*
G37*
%TD.AperFunction*%
%TD*%
D30*
%TO.N,+3V3*%
X146531678Y-52705000D02*
X145611795Y-53589608D01*
X145450202Y-53508105D01*
X145302514Y-53429039D01*
X145169499Y-53356924D01*
X145169261Y-53356798D01*
X145044107Y-53292341D01*
X145043524Y-53292060D01*
X144919223Y-53235866D01*
X144918322Y-53235499D01*
X144787866Y-53188169D01*
X144786772Y-53187828D01*
X144643154Y-53149966D01*
X144642041Y-53149725D01*
X144478251Y-53121935D01*
X144477261Y-53121807D01*
X144286291Y-53104690D01*
X144285486Y-53104643D01*
X144072700Y-53099125D01*
X144072700Y-52310875D01*
X144285486Y-52305356D01*
X144286291Y-52305309D01*
X144477261Y-52288192D01*
X144478251Y-52288064D01*
X144642041Y-52260274D01*
X144643154Y-52260033D01*
X144786772Y-52222171D01*
X144787866Y-52221830D01*
X144918322Y-52174500D01*
X144919223Y-52174133D01*
X145043524Y-52117939D01*
X145044107Y-52117658D01*
X145169261Y-52053201D01*
X145169499Y-52053075D01*
X145302514Y-51980960D01*
X145450202Y-51901894D01*
X145611795Y-51820392D01*
X146531678Y-52705000D01*
%TA.AperFunction,Conductor*%
D31*
G36*
X146531678Y-52705000D02*
G01*
X145611795Y-53589608D01*
X145450202Y-53508105D01*
X145302514Y-53429039D01*
X145169499Y-53356924D01*
X145169261Y-53356798D01*
X145044107Y-53292341D01*
X145043524Y-53292060D01*
X144919223Y-53235866D01*
X144918322Y-53235499D01*
X144787866Y-53188169D01*
X144786772Y-53187828D01*
X144643154Y-53149966D01*
X144642041Y-53149725D01*
X144478251Y-53121935D01*
X144477261Y-53121807D01*
X144286291Y-53104690D01*
X144285486Y-53104643D01*
X144072700Y-53099125D01*
X144072700Y-52310875D01*
X144285486Y-52305356D01*
X144286291Y-52305309D01*
X144477261Y-52288192D01*
X144478251Y-52288064D01*
X144642041Y-52260274D01*
X144643154Y-52260033D01*
X144786772Y-52222171D01*
X144787866Y-52221830D01*
X144918322Y-52174500D01*
X144919223Y-52174133D01*
X145043524Y-52117939D01*
X145044107Y-52117658D01*
X145169261Y-52053201D01*
X145169499Y-52053075D01*
X145302514Y-51980960D01*
X145450202Y-51901894D01*
X145611795Y-51820392D01*
X146531678Y-52705000D01*
G37*
%TD.AperFunction*%
%TD*%
D30*
%TO.N,+3V3*%
X149834433Y-51908921D02*
X149981847Y-51989574D01*
X150114687Y-52062821D01*
X150114948Y-52062961D01*
X150240132Y-52128225D01*
X150240737Y-52128521D01*
X150365209Y-52185237D01*
X150366128Y-52185613D01*
X150496871Y-52233237D01*
X150497978Y-52233584D01*
X150641971Y-52271573D01*
X150643091Y-52271815D01*
X150807315Y-52299623D01*
X150808306Y-52299751D01*
X150999743Y-52316835D01*
X151000545Y-52316881D01*
X151213801Y-52322378D01*
X151213801Y-53110618D01*
X150998395Y-53116060D01*
X150997611Y-53116104D01*
X150804369Y-53132976D01*
X150803403Y-53133098D01*
X150637599Y-53160497D01*
X150636513Y-53160726D01*
X150491042Y-53198060D01*
X150489972Y-53198385D01*
X150357730Y-53245065D01*
X150356847Y-53245415D01*
X150230729Y-53300849D01*
X150230156Y-53301118D01*
X150103059Y-53364716D01*
X150102826Y-53364835D01*
X149967703Y-53435975D01*
X149817459Y-53514063D01*
X149653021Y-53594583D01*
X148743354Y-52699469D01*
X149673339Y-51825478D01*
X149834433Y-51908921D01*
%TA.AperFunction,Conductor*%
D31*
G36*
X149834433Y-51908921D02*
G01*
X149981847Y-51989574D01*
X150114687Y-52062821D01*
X150114948Y-52062961D01*
X150240132Y-52128225D01*
X150240737Y-52128521D01*
X150365209Y-52185237D01*
X150366128Y-52185613D01*
X150496871Y-52233237D01*
X150497978Y-52233584D01*
X150641971Y-52271573D01*
X150643091Y-52271815D01*
X150807315Y-52299623D01*
X150808306Y-52299751D01*
X150999743Y-52316835D01*
X151000545Y-52316881D01*
X151213801Y-52322378D01*
X151213801Y-53110618D01*
X150998395Y-53116060D01*
X150997611Y-53116104D01*
X150804369Y-53132976D01*
X150803403Y-53133098D01*
X150637599Y-53160497D01*
X150636513Y-53160726D01*
X150491042Y-53198060D01*
X150489972Y-53198385D01*
X150357730Y-53245065D01*
X150356847Y-53245415D01*
X150230729Y-53300849D01*
X150230156Y-53301118D01*
X150103059Y-53364716D01*
X150102826Y-53364835D01*
X149967703Y-53435975D01*
X149817459Y-53514063D01*
X149653021Y-53594583D01*
X148743354Y-52699469D01*
X149673339Y-51825478D01*
X149834433Y-51908921D01*
G37*
%TD.AperFunction*%
%TD*%
D30*
%TO.N,+3V3*%
X168502646Y-52699469D02*
X167592979Y-53594583D01*
X167428540Y-53514063D01*
X167278296Y-53435975D01*
X167143173Y-53364835D01*
X167142940Y-53364716D01*
X167015843Y-53301118D01*
X167015270Y-53300849D01*
X166889152Y-53245415D01*
X166888269Y-53245065D01*
X166756027Y-53198385D01*
X166754957Y-53198060D01*
X166609486Y-53160726D01*
X166608400Y-53160497D01*
X166442596Y-53133098D01*
X166441630Y-53132976D01*
X166248388Y-53116104D01*
X166247604Y-53116060D01*
X166032199Y-53110618D01*
X166032199Y-52322378D01*
X166245454Y-52316881D01*
X166246256Y-52316835D01*
X166437693Y-52299751D01*
X166438684Y-52299623D01*
X166602908Y-52271815D01*
X166604028Y-52271573D01*
X166748021Y-52233584D01*
X166749128Y-52233237D01*
X166879871Y-52185613D01*
X166880790Y-52185237D01*
X167005262Y-52128521D01*
X167005867Y-52128225D01*
X167131051Y-52062961D01*
X167131312Y-52062821D01*
X167264152Y-51989574D01*
X167411566Y-51908921D01*
X167572661Y-51825478D01*
X168502646Y-52699469D01*
%TA.AperFunction,Conductor*%
D31*
G36*
X168502646Y-52699469D02*
G01*
X167592979Y-53594583D01*
X167428540Y-53514063D01*
X167278296Y-53435975D01*
X167143173Y-53364835D01*
X167142940Y-53364716D01*
X167015843Y-53301118D01*
X167015270Y-53300849D01*
X166889152Y-53245415D01*
X166888269Y-53245065D01*
X166756027Y-53198385D01*
X166754957Y-53198060D01*
X166609486Y-53160726D01*
X166608400Y-53160497D01*
X166442596Y-53133098D01*
X166441630Y-53132976D01*
X166248388Y-53116104D01*
X166247604Y-53116060D01*
X166032199Y-53110618D01*
X166032199Y-52322378D01*
X166245454Y-52316881D01*
X166246256Y-52316835D01*
X166437693Y-52299751D01*
X166438684Y-52299623D01*
X166602908Y-52271815D01*
X166604028Y-52271573D01*
X166748021Y-52233584D01*
X166749128Y-52233237D01*
X166879871Y-52185613D01*
X166880790Y-52185237D01*
X167005262Y-52128521D01*
X167005867Y-52128225D01*
X167131051Y-52062961D01*
X167131312Y-52062821D01*
X167264152Y-51989574D01*
X167411566Y-51908921D01*
X167572661Y-51825478D01*
X168502646Y-52699469D01*
G37*
%TD.AperFunction*%
%TD*%
D30*
%TO.N,+3V3*%
X173319797Y-66760894D02*
X173467485Y-66839960D01*
X173600500Y-66912075D01*
X173600738Y-66912201D01*
X173725892Y-66976658D01*
X173726475Y-66976939D01*
X173850776Y-67033133D01*
X173851677Y-67033500D01*
X173982133Y-67080830D01*
X173983227Y-67081171D01*
X174126845Y-67119033D01*
X174127958Y-67119274D01*
X174291748Y-67147064D01*
X174292738Y-67147192D01*
X174483708Y-67164309D01*
X174484513Y-67164356D01*
X174697300Y-67169875D01*
X174697300Y-67958125D01*
X174484513Y-67963643D01*
X174483708Y-67963690D01*
X174292738Y-67980807D01*
X174291748Y-67980935D01*
X174127958Y-68008725D01*
X174126845Y-68008966D01*
X173983227Y-68046828D01*
X173982133Y-68047169D01*
X173851677Y-68094499D01*
X173850776Y-68094866D01*
X173726475Y-68151060D01*
X173725892Y-68151341D01*
X173600738Y-68215798D01*
X173600500Y-68215924D01*
X173467485Y-68288039D01*
X173319797Y-68367105D01*
X173158205Y-68448608D01*
X172238322Y-67564000D01*
X173158205Y-66679392D01*
X173319797Y-66760894D01*
%TA.AperFunction,Conductor*%
D31*
G36*
X173319797Y-66760894D02*
G01*
X173467485Y-66839960D01*
X173600500Y-66912075D01*
X173600738Y-66912201D01*
X173725892Y-66976658D01*
X173726475Y-66976939D01*
X173850776Y-67033133D01*
X173851677Y-67033500D01*
X173982133Y-67080830D01*
X173983227Y-67081171D01*
X174126845Y-67119033D01*
X174127958Y-67119274D01*
X174291748Y-67147064D01*
X174292738Y-67147192D01*
X174483708Y-67164309D01*
X174484513Y-67164356D01*
X174697300Y-67169875D01*
X174697300Y-67958125D01*
X174484513Y-67963643D01*
X174483708Y-67963690D01*
X174292738Y-67980807D01*
X174291748Y-67980935D01*
X174127958Y-68008725D01*
X174126845Y-68008966D01*
X173983227Y-68046828D01*
X173982133Y-68047169D01*
X173851677Y-68094499D01*
X173850776Y-68094866D01*
X173726475Y-68151060D01*
X173725892Y-68151341D01*
X173600738Y-68215798D01*
X173600500Y-68215924D01*
X173467485Y-68288039D01*
X173319797Y-68367105D01*
X173158205Y-68448608D01*
X172238322Y-67564000D01*
X173158205Y-66679392D01*
X173319797Y-66760894D01*
G37*
%TD.AperFunction*%
%TD*%
D30*
%TO.N,+3V3*%
X178408678Y-67564000D02*
X177488795Y-68448608D01*
X177327202Y-68367105D01*
X177179514Y-68288039D01*
X177046499Y-68215924D01*
X177046261Y-68215798D01*
X176921107Y-68151341D01*
X176920524Y-68151060D01*
X176796223Y-68094866D01*
X176795322Y-68094499D01*
X176664866Y-68047169D01*
X176663772Y-68046828D01*
X176520154Y-68008966D01*
X176519041Y-68008725D01*
X176355251Y-67980935D01*
X176354261Y-67980807D01*
X176163291Y-67963690D01*
X176162486Y-67963643D01*
X175949700Y-67958125D01*
X175949700Y-67169875D01*
X176162486Y-67164356D01*
X176163291Y-67164309D01*
X176354261Y-67147192D01*
X176355251Y-67147064D01*
X176519041Y-67119274D01*
X176520154Y-67119033D01*
X176663772Y-67081171D01*
X176664866Y-67080830D01*
X176795322Y-67033500D01*
X176796223Y-67033133D01*
X176920524Y-66976939D01*
X176921107Y-66976658D01*
X177046261Y-66912201D01*
X177046499Y-66912075D01*
X177179514Y-66839960D01*
X177327202Y-66760894D01*
X177488795Y-66679392D01*
X178408678Y-67564000D01*
%TA.AperFunction,Conductor*%
D31*
G36*
X178408678Y-67564000D02*
G01*
X177488795Y-68448608D01*
X177327202Y-68367105D01*
X177179514Y-68288039D01*
X177046499Y-68215924D01*
X177046261Y-68215798D01*
X176921107Y-68151341D01*
X176920524Y-68151060D01*
X176796223Y-68094866D01*
X176795322Y-68094499D01*
X176664866Y-68047169D01*
X176663772Y-68046828D01*
X176520154Y-68008966D01*
X176519041Y-68008725D01*
X176355251Y-67980935D01*
X176354261Y-67980807D01*
X176163291Y-67963690D01*
X176162486Y-67963643D01*
X175949700Y-67958125D01*
X175949700Y-67169875D01*
X176162486Y-67164356D01*
X176163291Y-67164309D01*
X176354261Y-67147192D01*
X176355251Y-67147064D01*
X176519041Y-67119274D01*
X176520154Y-67119033D01*
X176663772Y-67081171D01*
X176664866Y-67080830D01*
X176795322Y-67033500D01*
X176796223Y-67033133D01*
X176920524Y-66976939D01*
X176921107Y-66976658D01*
X177046261Y-66912201D01*
X177046499Y-66912075D01*
X177179514Y-66839960D01*
X177327202Y-66760894D01*
X177488795Y-66679392D01*
X178408678Y-67564000D01*
G37*
%TD.AperFunction*%
%TD*%
D30*
%TO.N,Net-(BP1-Pad5)*%
X157063797Y-50250894D02*
X157211485Y-50329960D01*
X157344500Y-50402075D01*
X157344738Y-50402201D01*
X157469892Y-50466658D01*
X157470475Y-50466939D01*
X157594776Y-50523133D01*
X157595677Y-50523500D01*
X157726133Y-50570830D01*
X157727227Y-50571171D01*
X157870845Y-50609033D01*
X157871958Y-50609274D01*
X158035748Y-50637064D01*
X158036738Y-50637192D01*
X158227708Y-50654309D01*
X158228513Y-50654356D01*
X158441300Y-50659875D01*
X158441300Y-51448125D01*
X158228513Y-51453643D01*
X158227708Y-51453690D01*
X158036738Y-51470807D01*
X158035748Y-51470935D01*
X157871958Y-51498725D01*
X157870845Y-51498966D01*
X157727227Y-51536828D01*
X157726133Y-51537169D01*
X157595677Y-51584499D01*
X157594776Y-51584866D01*
X157470475Y-51641060D01*
X157469892Y-51641341D01*
X157344738Y-51705798D01*
X157344500Y-51705924D01*
X157211485Y-51778039D01*
X157063797Y-51857105D01*
X156902205Y-51938608D01*
X155982322Y-51054000D01*
X156902205Y-50169392D01*
X157063797Y-50250894D01*
%TA.AperFunction,Conductor*%
D31*
G36*
X157063797Y-50250894D02*
G01*
X157211485Y-50329960D01*
X157344500Y-50402075D01*
X157344738Y-50402201D01*
X157469892Y-50466658D01*
X157470475Y-50466939D01*
X157594776Y-50523133D01*
X157595677Y-50523500D01*
X157726133Y-50570830D01*
X157727227Y-50571171D01*
X157870845Y-50609033D01*
X157871958Y-50609274D01*
X158035748Y-50637064D01*
X158036738Y-50637192D01*
X158227708Y-50654309D01*
X158228513Y-50654356D01*
X158441300Y-50659875D01*
X158441300Y-51448125D01*
X158228513Y-51453643D01*
X158227708Y-51453690D01*
X158036738Y-51470807D01*
X158035748Y-51470935D01*
X157871958Y-51498725D01*
X157870845Y-51498966D01*
X157727227Y-51536828D01*
X157726133Y-51537169D01*
X157595677Y-51584499D01*
X157594776Y-51584866D01*
X157470475Y-51641060D01*
X157469892Y-51641341D01*
X157344738Y-51705798D01*
X157344500Y-51705924D01*
X157211485Y-51778039D01*
X157063797Y-51857105D01*
X156902205Y-51938608D01*
X155982322Y-51054000D01*
X156902205Y-50169392D01*
X157063797Y-50250894D01*
G37*
%TD.AperFunction*%
%TD*%
D30*
%TO.N,Net-(BP1-Pad5)*%
X165073678Y-51054000D02*
X164153795Y-51938608D01*
X163992202Y-51857105D01*
X163844514Y-51778039D01*
X163711499Y-51705924D01*
X163711261Y-51705798D01*
X163586107Y-51641341D01*
X163585524Y-51641060D01*
X163461223Y-51584866D01*
X163460322Y-51584499D01*
X163329866Y-51537169D01*
X163328772Y-51536828D01*
X163185154Y-51498966D01*
X163184041Y-51498725D01*
X163020251Y-51470935D01*
X163019261Y-51470807D01*
X162828291Y-51453690D01*
X162827486Y-51453643D01*
X162614700Y-51448125D01*
X162614700Y-50659875D01*
X162827486Y-50654356D01*
X162828291Y-50654309D01*
X163019261Y-50637192D01*
X163020251Y-50637064D01*
X163184041Y-50609274D01*
X163185154Y-50609033D01*
X163328772Y-50571171D01*
X163329866Y-50570830D01*
X163460322Y-50523500D01*
X163461223Y-50523133D01*
X163585524Y-50466939D01*
X163586107Y-50466658D01*
X163711261Y-50402201D01*
X163711499Y-50402075D01*
X163844514Y-50329960D01*
X163992202Y-50250894D01*
X164153795Y-50169392D01*
X165073678Y-51054000D01*
%TA.AperFunction,Conductor*%
D31*
G36*
X165073678Y-51054000D02*
G01*
X164153795Y-51938608D01*
X163992202Y-51857105D01*
X163844514Y-51778039D01*
X163711499Y-51705924D01*
X163711261Y-51705798D01*
X163586107Y-51641341D01*
X163585524Y-51641060D01*
X163461223Y-51584866D01*
X163460322Y-51584499D01*
X163329866Y-51537169D01*
X163328772Y-51536828D01*
X163185154Y-51498966D01*
X163184041Y-51498725D01*
X163020251Y-51470935D01*
X163019261Y-51470807D01*
X162828291Y-51453690D01*
X162827486Y-51453643D01*
X162614700Y-51448125D01*
X162614700Y-50659875D01*
X162827486Y-50654356D01*
X162828291Y-50654309D01*
X163019261Y-50637192D01*
X163020251Y-50637064D01*
X163184041Y-50609274D01*
X163185154Y-50609033D01*
X163328772Y-50571171D01*
X163329866Y-50570830D01*
X163460322Y-50523500D01*
X163461223Y-50523133D01*
X163585524Y-50466939D01*
X163586107Y-50466658D01*
X163711261Y-50402201D01*
X163711499Y-50402075D01*
X163844514Y-50329960D01*
X163992202Y-50250894D01*
X164153795Y-50169392D01*
X165073678Y-51054000D01*
G37*
%TD.AperFunction*%
%TD*%
D30*
%TO.N,A10*%
X125059797Y-68183294D02*
X125207485Y-68262360D01*
X125340500Y-68334475D01*
X125340738Y-68334601D01*
X125465892Y-68399058D01*
X125466475Y-68399339D01*
X125590776Y-68455533D01*
X125591677Y-68455900D01*
X125722133Y-68503230D01*
X125723227Y-68503571D01*
X125866845Y-68541433D01*
X125867958Y-68541674D01*
X126031748Y-68569464D01*
X126032738Y-68569592D01*
X126223708Y-68586709D01*
X126224513Y-68586756D01*
X126437300Y-68592275D01*
X126437300Y-69380525D01*
X126224513Y-69386043D01*
X126223708Y-69386090D01*
X126032738Y-69403207D01*
X126031748Y-69403335D01*
X125867958Y-69431125D01*
X125866845Y-69431366D01*
X125723227Y-69469228D01*
X125722133Y-69469569D01*
X125591677Y-69516899D01*
X125590776Y-69517266D01*
X125466475Y-69573460D01*
X125465892Y-69573741D01*
X125340738Y-69638198D01*
X125340500Y-69638324D01*
X125207485Y-69710439D01*
X125059797Y-69789505D01*
X124898205Y-69871008D01*
X123978322Y-68986400D01*
X124898205Y-68101792D01*
X125059797Y-68183294D01*
%TA.AperFunction,Conductor*%
D31*
G36*
X125059797Y-68183294D02*
G01*
X125207485Y-68262360D01*
X125340500Y-68334475D01*
X125340738Y-68334601D01*
X125465892Y-68399058D01*
X125466475Y-68399339D01*
X125590776Y-68455533D01*
X125591677Y-68455900D01*
X125722133Y-68503230D01*
X125723227Y-68503571D01*
X125866845Y-68541433D01*
X125867958Y-68541674D01*
X126031748Y-68569464D01*
X126032738Y-68569592D01*
X126223708Y-68586709D01*
X126224513Y-68586756D01*
X126437300Y-68592275D01*
X126437300Y-69380525D01*
X126224513Y-69386043D01*
X126223708Y-69386090D01*
X126032738Y-69403207D01*
X126031748Y-69403335D01*
X125867958Y-69431125D01*
X125866845Y-69431366D01*
X125723227Y-69469228D01*
X125722133Y-69469569D01*
X125591677Y-69516899D01*
X125590776Y-69517266D01*
X125466475Y-69573460D01*
X125465892Y-69573741D01*
X125340738Y-69638198D01*
X125340500Y-69638324D01*
X125207485Y-69710439D01*
X125059797Y-69789505D01*
X124898205Y-69871008D01*
X123978322Y-68986400D01*
X124898205Y-68101792D01*
X125059797Y-68183294D01*
G37*
%TD.AperFunction*%
%TD*%
D30*
%TO.N,A10*%
X154304078Y-68986400D02*
X153384195Y-69871008D01*
X153222602Y-69789505D01*
X153074914Y-69710439D01*
X152941899Y-69638324D01*
X152941661Y-69638198D01*
X152816507Y-69573741D01*
X152815924Y-69573460D01*
X152691623Y-69517266D01*
X152690722Y-69516899D01*
X152560266Y-69469569D01*
X152559172Y-69469228D01*
X152415554Y-69431366D01*
X152414441Y-69431125D01*
X152250651Y-69403335D01*
X152249661Y-69403207D01*
X152058691Y-69386090D01*
X152057886Y-69386043D01*
X151845100Y-69380525D01*
X151845100Y-68592275D01*
X152057886Y-68586756D01*
X152058691Y-68586709D01*
X152249661Y-68569592D01*
X152250651Y-68569464D01*
X152414441Y-68541674D01*
X152415554Y-68541433D01*
X152559172Y-68503571D01*
X152560266Y-68503230D01*
X152690722Y-68455900D01*
X152691623Y-68455533D01*
X152815924Y-68399339D01*
X152816507Y-68399058D01*
X152941661Y-68334601D01*
X152941899Y-68334475D01*
X153074914Y-68262360D01*
X153222602Y-68183294D01*
X153384195Y-68101792D01*
X154304078Y-68986400D01*
%TA.AperFunction,Conductor*%
D31*
G36*
X154304078Y-68986400D02*
G01*
X153384195Y-69871008D01*
X153222602Y-69789505D01*
X153074914Y-69710439D01*
X152941899Y-69638324D01*
X152941661Y-69638198D01*
X152816507Y-69573741D01*
X152815924Y-69573460D01*
X152691623Y-69517266D01*
X152690722Y-69516899D01*
X152560266Y-69469569D01*
X152559172Y-69469228D01*
X152415554Y-69431366D01*
X152414441Y-69431125D01*
X152250651Y-69403335D01*
X152249661Y-69403207D01*
X152058691Y-69386090D01*
X152057886Y-69386043D01*
X151845100Y-69380525D01*
X151845100Y-68592275D01*
X152057886Y-68586756D01*
X152058691Y-68586709D01*
X152249661Y-68569592D01*
X152250651Y-68569464D01*
X152414441Y-68541674D01*
X152415554Y-68541433D01*
X152559172Y-68503571D01*
X152560266Y-68503230D01*
X152690722Y-68455900D01*
X152691623Y-68455533D01*
X152815924Y-68399339D01*
X152816507Y-68399058D01*
X152941661Y-68334601D01*
X152941899Y-68334475D01*
X153074914Y-68262360D01*
X153222602Y-68183294D01*
X153384195Y-68101792D01*
X154304078Y-68986400D01*
G37*
%TD.AperFunction*%
%TD*%
D30*
%TO.N,A6*%
X103266597Y-60055294D02*
X103414285Y-60134360D01*
X103547300Y-60206475D01*
X103547538Y-60206601D01*
X103672692Y-60271058D01*
X103673275Y-60271339D01*
X103797576Y-60327533D01*
X103798477Y-60327900D01*
X103928933Y-60375230D01*
X103930027Y-60375571D01*
X104073645Y-60413433D01*
X104074758Y-60413674D01*
X104238548Y-60441464D01*
X104239538Y-60441592D01*
X104430508Y-60458709D01*
X104431313Y-60458756D01*
X104644100Y-60464275D01*
X104644100Y-61252525D01*
X104431313Y-61258043D01*
X104430508Y-61258090D01*
X104239538Y-61275207D01*
X104238548Y-61275335D01*
X104074758Y-61303125D01*
X104073645Y-61303366D01*
X103930027Y-61341228D01*
X103928933Y-61341569D01*
X103798477Y-61388899D01*
X103797576Y-61389266D01*
X103673275Y-61445460D01*
X103672692Y-61445741D01*
X103547538Y-61510198D01*
X103547300Y-61510324D01*
X103414285Y-61582439D01*
X103266597Y-61661505D01*
X103105005Y-61743008D01*
X102185122Y-60858400D01*
X103105005Y-59973792D01*
X103266597Y-60055294D01*
%TA.AperFunction,Conductor*%
D31*
G36*
X103266597Y-60055294D02*
G01*
X103414285Y-60134360D01*
X103547300Y-60206475D01*
X103547538Y-60206601D01*
X103672692Y-60271058D01*
X103673275Y-60271339D01*
X103797576Y-60327533D01*
X103798477Y-60327900D01*
X103928933Y-60375230D01*
X103930027Y-60375571D01*
X104073645Y-60413433D01*
X104074758Y-60413674D01*
X104238548Y-60441464D01*
X104239538Y-60441592D01*
X104430508Y-60458709D01*
X104431313Y-60458756D01*
X104644100Y-60464275D01*
X104644100Y-61252525D01*
X104431313Y-61258043D01*
X104430508Y-61258090D01*
X104239538Y-61275207D01*
X104238548Y-61275335D01*
X104074758Y-61303125D01*
X104073645Y-61303366D01*
X103930027Y-61341228D01*
X103928933Y-61341569D01*
X103798477Y-61388899D01*
X103797576Y-61389266D01*
X103673275Y-61445460D01*
X103672692Y-61445741D01*
X103547538Y-61510198D01*
X103547300Y-61510324D01*
X103414285Y-61582439D01*
X103266597Y-61661505D01*
X103105005Y-61743008D01*
X102185122Y-60858400D01*
X103105005Y-59973792D01*
X103266597Y-60055294D01*
G37*
%TD.AperFunction*%
%TD*%
D30*
%TO.N,A6*%
X128344658Y-60933618D02*
X127381102Y-61770464D01*
X127225859Y-61682312D01*
X127083307Y-61597474D01*
X127083304Y-61597473D01*
X126954410Y-61520804D01*
X126954103Y-61520627D01*
X126832205Y-61452656D01*
X126831546Y-61452313D01*
X126709882Y-61393511D01*
X126708904Y-61393088D01*
X126580709Y-61343924D01*
X126579540Y-61343540D01*
X126438050Y-61304483D01*
X126436876Y-61304218D01*
X126275328Y-61275739D01*
X126274293Y-61275600D01*
X126085924Y-61258168D01*
X126085092Y-61258119D01*
X125875500Y-61252534D01*
X125875500Y-60464294D01*
X126094581Y-60458947D01*
X126095334Y-60458906D01*
X126291679Y-60442412D01*
X126292601Y-60442301D01*
X126461127Y-60415635D01*
X126462156Y-60415428D01*
X126610173Y-60379264D01*
X126611179Y-60378974D01*
X126745996Y-60333986D01*
X126746815Y-60333681D01*
X126875742Y-60280546D01*
X126876258Y-60280320D01*
X127006604Y-60219709D01*
X127006788Y-60219621D01*
X127145764Y-60152259D01*
X127300742Y-60078787D01*
X127470804Y-60003518D01*
X128344658Y-60933618D01*
%TA.AperFunction,Conductor*%
D31*
G36*
X128344658Y-60933618D02*
G01*
X127381102Y-61770464D01*
X127225859Y-61682312D01*
X127083307Y-61597474D01*
X127083304Y-61597473D01*
X126954410Y-61520804D01*
X126954103Y-61520627D01*
X126832205Y-61452656D01*
X126831546Y-61452313D01*
X126709882Y-61393511D01*
X126708904Y-61393088D01*
X126580709Y-61343924D01*
X126579540Y-61343540D01*
X126438050Y-61304483D01*
X126436876Y-61304218D01*
X126275328Y-61275739D01*
X126274293Y-61275600D01*
X126085924Y-61258168D01*
X126085092Y-61258119D01*
X125875500Y-61252534D01*
X125875500Y-60464294D01*
X126094581Y-60458947D01*
X126095334Y-60458906D01*
X126291679Y-60442412D01*
X126292601Y-60442301D01*
X126461127Y-60415635D01*
X126462156Y-60415428D01*
X126610173Y-60379264D01*
X126611179Y-60378974D01*
X126745996Y-60333986D01*
X126746815Y-60333681D01*
X126875742Y-60280546D01*
X126876258Y-60280320D01*
X127006604Y-60219709D01*
X127006788Y-60219621D01*
X127145764Y-60152259D01*
X127300742Y-60078787D01*
X127470804Y-60003518D01*
X128344658Y-60933618D01*
G37*
%TD.AperFunction*%
%TD*%
D30*
%TO.N,A0*%
X106259085Y-61709160D02*
X106392100Y-61781275D01*
X106392338Y-61781401D01*
X106517492Y-61845858D01*
X106518075Y-61846139D01*
X106642376Y-61902333D01*
X106643277Y-61902700D01*
X106773733Y-61950030D01*
X106774827Y-61950371D01*
X106918445Y-61988233D01*
X106919558Y-61988474D01*
X107083348Y-62016264D01*
X107084338Y-62016392D01*
X107275308Y-62033509D01*
X107276113Y-62033556D01*
X107488900Y-62039075D01*
X107488900Y-62827325D01*
X107276113Y-62832843D01*
X107275308Y-62832890D01*
X107084338Y-62850007D01*
X107083348Y-62850135D01*
X106919558Y-62877925D01*
X106918445Y-62878166D01*
X106774827Y-62916028D01*
X106773733Y-62916369D01*
X106643277Y-62963699D01*
X106642376Y-62964066D01*
X106518075Y-63020260D01*
X106517492Y-63020541D01*
X106392338Y-63084998D01*
X106392100Y-63085124D01*
X106259085Y-63157239D01*
X106111397Y-63236305D01*
X105949805Y-63317808D01*
X105029922Y-62433200D01*
X105861407Y-61633600D01*
X106117946Y-61633600D01*
X106259085Y-61709160D01*
%TA.AperFunction,Conductor*%
D31*
G36*
X106259085Y-61709160D02*
G01*
X106392100Y-61781275D01*
X106392338Y-61781401D01*
X106517492Y-61845858D01*
X106518075Y-61846139D01*
X106642376Y-61902333D01*
X106643277Y-61902700D01*
X106773733Y-61950030D01*
X106774827Y-61950371D01*
X106918445Y-61988233D01*
X106919558Y-61988474D01*
X107083348Y-62016264D01*
X107084338Y-62016392D01*
X107275308Y-62033509D01*
X107276113Y-62033556D01*
X107488900Y-62039075D01*
X107488900Y-62827325D01*
X107276113Y-62832843D01*
X107275308Y-62832890D01*
X107084338Y-62850007D01*
X107083348Y-62850135D01*
X106919558Y-62877925D01*
X106918445Y-62878166D01*
X106774827Y-62916028D01*
X106773733Y-62916369D01*
X106643277Y-62963699D01*
X106642376Y-62964066D01*
X106518075Y-63020260D01*
X106517492Y-63020541D01*
X106392338Y-63084998D01*
X106392100Y-63085124D01*
X106259085Y-63157239D01*
X106111397Y-63236305D01*
X105949805Y-63317808D01*
X105029922Y-62433200D01*
X105861407Y-61633600D01*
X106117946Y-61633600D01*
X106259085Y-61709160D01*
G37*
%TD.AperFunction*%
%TD*%
D30*
%TO.N,A0*%
X119048878Y-62433200D02*
X118128995Y-63317808D01*
X117967402Y-63236305D01*
X117819714Y-63157239D01*
X117686699Y-63085124D01*
X117686461Y-63084998D01*
X117561307Y-63020541D01*
X117560724Y-63020260D01*
X117436423Y-62964066D01*
X117435522Y-62963699D01*
X117305066Y-62916369D01*
X117303972Y-62916028D01*
X117160354Y-62878166D01*
X117159241Y-62877925D01*
X116995451Y-62850135D01*
X116994461Y-62850007D01*
X116803491Y-62832890D01*
X116802686Y-62832843D01*
X116589900Y-62827325D01*
X116589900Y-62039075D01*
X116802686Y-62033556D01*
X116803491Y-62033509D01*
X116994461Y-62016392D01*
X116995451Y-62016264D01*
X117159241Y-61988474D01*
X117160354Y-61988233D01*
X117303972Y-61950371D01*
X117305066Y-61950030D01*
X117435522Y-61902700D01*
X117436423Y-61902333D01*
X117560724Y-61846139D01*
X117561307Y-61845858D01*
X117686461Y-61781401D01*
X117686699Y-61781275D01*
X117819714Y-61709160D01*
X117960853Y-61633600D01*
X118217393Y-61633600D01*
X119048878Y-62433200D01*
%TA.AperFunction,Conductor*%
D31*
G36*
X119048878Y-62433200D02*
G01*
X118128995Y-63317808D01*
X117967402Y-63236305D01*
X117819714Y-63157239D01*
X117686699Y-63085124D01*
X117686461Y-63084998D01*
X117561307Y-63020541D01*
X117560724Y-63020260D01*
X117436423Y-62964066D01*
X117435522Y-62963699D01*
X117305066Y-62916369D01*
X117303972Y-62916028D01*
X117160354Y-62878166D01*
X117159241Y-62877925D01*
X116995451Y-62850135D01*
X116994461Y-62850007D01*
X116803491Y-62832890D01*
X116802686Y-62832843D01*
X116589900Y-62827325D01*
X116589900Y-62039075D01*
X116802686Y-62033556D01*
X116803491Y-62033509D01*
X116994461Y-62016392D01*
X116995451Y-62016264D01*
X117159241Y-61988474D01*
X117160354Y-61988233D01*
X117303972Y-61950371D01*
X117305066Y-61950030D01*
X117435522Y-61902700D01*
X117436423Y-61902333D01*
X117560724Y-61846139D01*
X117561307Y-61845858D01*
X117686461Y-61781401D01*
X117686699Y-61781275D01*
X117819714Y-61709160D01*
X117960853Y-61633600D01*
X118217393Y-61633600D01*
X119048878Y-62433200D01*
G37*
%TD.AperFunction*%
%TD*%
D30*
%TO.N,+5V*%
X161009678Y-60452000D02*
X160089795Y-61336608D01*
X159928202Y-61255105D01*
X159780514Y-61176039D01*
X159647499Y-61103924D01*
X159647261Y-61103798D01*
X159522107Y-61039341D01*
X159521524Y-61039060D01*
X159397223Y-60982866D01*
X159396322Y-60982499D01*
X159265866Y-60935169D01*
X159264772Y-60934828D01*
X159121154Y-60896966D01*
X159120041Y-60896725D01*
X158956251Y-60868935D01*
X158955261Y-60868807D01*
X158764291Y-60851690D01*
X158763486Y-60851643D01*
X158550700Y-60846125D01*
X158550700Y-60057875D01*
X158763486Y-60052356D01*
X158764291Y-60052309D01*
X158955261Y-60035192D01*
X158956251Y-60035064D01*
X159120041Y-60007274D01*
X159121154Y-60007033D01*
X159264772Y-59969171D01*
X159265866Y-59968830D01*
X159396322Y-59921500D01*
X159397223Y-59921133D01*
X159521524Y-59864939D01*
X159522107Y-59864658D01*
X159647261Y-59800201D01*
X159647499Y-59800075D01*
X159780514Y-59727960D01*
X159928202Y-59648894D01*
X160089795Y-59567392D01*
X161009678Y-60452000D01*
%TA.AperFunction,Conductor*%
D31*
G36*
X161009678Y-60452000D02*
G01*
X160089795Y-61336608D01*
X159928202Y-61255105D01*
X159780514Y-61176039D01*
X159647499Y-61103924D01*
X159647261Y-61103798D01*
X159522107Y-61039341D01*
X159521524Y-61039060D01*
X159397223Y-60982866D01*
X159396322Y-60982499D01*
X159265866Y-60935169D01*
X159264772Y-60934828D01*
X159121154Y-60896966D01*
X159120041Y-60896725D01*
X158956251Y-60868935D01*
X158955261Y-60868807D01*
X158764291Y-60851690D01*
X158763486Y-60851643D01*
X158550700Y-60846125D01*
X158550700Y-60057875D01*
X158763486Y-60052356D01*
X158764291Y-60052309D01*
X158955261Y-60035192D01*
X158956251Y-60035064D01*
X159120041Y-60007274D01*
X159121154Y-60007033D01*
X159264772Y-59969171D01*
X159265866Y-59968830D01*
X159396322Y-59921500D01*
X159397223Y-59921133D01*
X159521524Y-59864939D01*
X159522107Y-59864658D01*
X159647261Y-59800201D01*
X159647499Y-59800075D01*
X159780514Y-59727960D01*
X159928202Y-59648894D01*
X160089795Y-59567392D01*
X161009678Y-60452000D01*
G37*
%TD.AperFunction*%
%TD*%
D30*
%TO.N,+5V*%
X154015797Y-59648894D02*
X154163485Y-59727960D01*
X154296500Y-59800075D01*
X154296738Y-59800201D01*
X154421892Y-59864658D01*
X154422475Y-59864939D01*
X154546776Y-59921133D01*
X154547677Y-59921500D01*
X154678133Y-59968830D01*
X154679227Y-59969171D01*
X154822845Y-60007033D01*
X154823958Y-60007274D01*
X154987748Y-60035064D01*
X154988738Y-60035192D01*
X155179708Y-60052309D01*
X155180513Y-60052356D01*
X155393300Y-60057875D01*
X155393300Y-60846125D01*
X155180513Y-60851643D01*
X155179708Y-60851690D01*
X154988738Y-60868807D01*
X154987748Y-60868935D01*
X154823958Y-60896725D01*
X154822845Y-60896966D01*
X154679227Y-60934828D01*
X154678133Y-60935169D01*
X154547677Y-60982499D01*
X154546776Y-60982866D01*
X154422475Y-61039060D01*
X154421892Y-61039341D01*
X154296738Y-61103798D01*
X154296500Y-61103924D01*
X154163485Y-61176039D01*
X154015797Y-61255105D01*
X153854205Y-61336608D01*
X152934322Y-60452000D01*
X153854205Y-59567392D01*
X154015797Y-59648894D01*
%TA.AperFunction,Conductor*%
D31*
G36*
X154015797Y-59648894D02*
G01*
X154163485Y-59727960D01*
X154296500Y-59800075D01*
X154296738Y-59800201D01*
X154421892Y-59864658D01*
X154422475Y-59864939D01*
X154546776Y-59921133D01*
X154547677Y-59921500D01*
X154678133Y-59968830D01*
X154679227Y-59969171D01*
X154822845Y-60007033D01*
X154823958Y-60007274D01*
X154987748Y-60035064D01*
X154988738Y-60035192D01*
X155179708Y-60052309D01*
X155180513Y-60052356D01*
X155393300Y-60057875D01*
X155393300Y-60846125D01*
X155180513Y-60851643D01*
X155179708Y-60851690D01*
X154988738Y-60868807D01*
X154987748Y-60868935D01*
X154823958Y-60896725D01*
X154822845Y-60896966D01*
X154679227Y-60934828D01*
X154678133Y-60935169D01*
X154547677Y-60982499D01*
X154546776Y-60982866D01*
X154422475Y-61039060D01*
X154421892Y-61039341D01*
X154296738Y-61103798D01*
X154296500Y-61103924D01*
X154163485Y-61176039D01*
X154015797Y-61255105D01*
X153854205Y-61336608D01*
X152934322Y-60452000D01*
X153854205Y-59567392D01*
X154015797Y-59648894D01*
G37*
%TD.AperFunction*%
%TD*%
D30*
%TO.N,+5V*%
X171287797Y-78317894D02*
X171435485Y-78396960D01*
X171568500Y-78469075D01*
X171568738Y-78469201D01*
X171693892Y-78533658D01*
X171694475Y-78533939D01*
X171818776Y-78590133D01*
X171819677Y-78590500D01*
X171950133Y-78637830D01*
X171951227Y-78638171D01*
X172094845Y-78676033D01*
X172095958Y-78676274D01*
X172259748Y-78704064D01*
X172260738Y-78704192D01*
X172451708Y-78721309D01*
X172452513Y-78721356D01*
X172665300Y-78726875D01*
X172665300Y-79515125D01*
X172452513Y-79520643D01*
X172451708Y-79520690D01*
X172260738Y-79537807D01*
X172259748Y-79537935D01*
X172095958Y-79565725D01*
X172094845Y-79565966D01*
X171951227Y-79603828D01*
X171950133Y-79604169D01*
X171819677Y-79651499D01*
X171818776Y-79651866D01*
X171694475Y-79708060D01*
X171693892Y-79708341D01*
X171568738Y-79772798D01*
X171568500Y-79772924D01*
X171435485Y-79845039D01*
X171287797Y-79924105D01*
X171126205Y-80005608D01*
X170206322Y-79121000D01*
X171126205Y-78236392D01*
X171287797Y-78317894D01*
%TA.AperFunction,Conductor*%
D31*
G36*
X171287797Y-78317894D02*
G01*
X171435485Y-78396960D01*
X171568500Y-78469075D01*
X171568738Y-78469201D01*
X171693892Y-78533658D01*
X171694475Y-78533939D01*
X171818776Y-78590133D01*
X171819677Y-78590500D01*
X171950133Y-78637830D01*
X171951227Y-78638171D01*
X172094845Y-78676033D01*
X172095958Y-78676274D01*
X172259748Y-78704064D01*
X172260738Y-78704192D01*
X172451708Y-78721309D01*
X172452513Y-78721356D01*
X172665300Y-78726875D01*
X172665300Y-79515125D01*
X172452513Y-79520643D01*
X172451708Y-79520690D01*
X172260738Y-79537807D01*
X172259748Y-79537935D01*
X172095958Y-79565725D01*
X172094845Y-79565966D01*
X171951227Y-79603828D01*
X171950133Y-79604169D01*
X171819677Y-79651499D01*
X171818776Y-79651866D01*
X171694475Y-79708060D01*
X171693892Y-79708341D01*
X171568738Y-79772798D01*
X171568500Y-79772924D01*
X171435485Y-79845039D01*
X171287797Y-79924105D01*
X171126205Y-80005608D01*
X170206322Y-79121000D01*
X171126205Y-78236392D01*
X171287797Y-78317894D01*
G37*
%TD.AperFunction*%
%TD*%
D30*
%TO.N,+5V*%
X176630678Y-79121000D02*
X175710795Y-80005608D01*
X175549202Y-79924105D01*
X175401514Y-79845039D01*
X175268499Y-79772924D01*
X175268261Y-79772798D01*
X175143107Y-79708341D01*
X175142524Y-79708060D01*
X175018223Y-79651866D01*
X175017322Y-79651499D01*
X174886866Y-79604169D01*
X174885772Y-79603828D01*
X174742154Y-79565966D01*
X174741041Y-79565725D01*
X174577251Y-79537935D01*
X174576261Y-79537807D01*
X174385291Y-79520690D01*
X174384486Y-79520643D01*
X174171700Y-79515125D01*
X174171700Y-78726875D01*
X174384486Y-78721356D01*
X174385291Y-78721309D01*
X174576261Y-78704192D01*
X174577251Y-78704064D01*
X174741041Y-78676274D01*
X174742154Y-78676033D01*
X174885772Y-78638171D01*
X174886866Y-78637830D01*
X175017322Y-78590500D01*
X175018223Y-78590133D01*
X175142524Y-78533939D01*
X175143107Y-78533658D01*
X175268261Y-78469201D01*
X175268499Y-78469075D01*
X175401514Y-78396960D01*
X175549202Y-78317894D01*
X175710795Y-78236392D01*
X176630678Y-79121000D01*
%TA.AperFunction,Conductor*%
D31*
G36*
X176630678Y-79121000D02*
G01*
X175710795Y-80005608D01*
X175549202Y-79924105D01*
X175401514Y-79845039D01*
X175268499Y-79772924D01*
X175268261Y-79772798D01*
X175143107Y-79708341D01*
X175142524Y-79708060D01*
X175018223Y-79651866D01*
X175017322Y-79651499D01*
X174886866Y-79604169D01*
X174885772Y-79603828D01*
X174742154Y-79565966D01*
X174741041Y-79565725D01*
X174577251Y-79537935D01*
X174576261Y-79537807D01*
X174385291Y-79520690D01*
X174384486Y-79520643D01*
X174171700Y-79515125D01*
X174171700Y-78726875D01*
X174384486Y-78721356D01*
X174385291Y-78721309D01*
X174576261Y-78704192D01*
X174577251Y-78704064D01*
X174741041Y-78676274D01*
X174742154Y-78676033D01*
X174885772Y-78638171D01*
X174886866Y-78637830D01*
X175017322Y-78590500D01*
X175018223Y-78590133D01*
X175142524Y-78533939D01*
X175143107Y-78533658D01*
X175268261Y-78469201D01*
X175268499Y-78469075D01*
X175401514Y-78396960D01*
X175549202Y-78317894D01*
X175710795Y-78236392D01*
X176630678Y-79121000D01*
G37*
%TD.AperFunction*%
%TD*%
D30*
%TO.N,+12V*%
X119731121Y-83877114D02*
X119643377Y-84045565D01*
X119554647Y-84196202D01*
X119470423Y-84329243D01*
X119392297Y-84452459D01*
X119392042Y-84452879D01*
X119321681Y-84573955D01*
X119321219Y-84574827D01*
X119260172Y-84701632D01*
X119259656Y-84702867D01*
X119209476Y-84843268D01*
X119209067Y-84844657D01*
X119171303Y-85006522D01*
X119171068Y-85007839D01*
X119147273Y-85199036D01*
X119147184Y-85200144D01*
X119139352Y-85416300D01*
X118553848Y-85416300D01*
X118546015Y-85200144D01*
X118545926Y-85199036D01*
X118522131Y-85007839D01*
X118521896Y-85006522D01*
X118484132Y-84844657D01*
X118483723Y-84843268D01*
X118433543Y-84702867D01*
X118433027Y-84701632D01*
X118371980Y-84574827D01*
X118371518Y-84573955D01*
X118301157Y-84452879D01*
X118300902Y-84452459D01*
X118222776Y-84329243D01*
X118138552Y-84196202D01*
X118049822Y-84045565D01*
X117962079Y-83877115D01*
X118846600Y-82957322D01*
X119731121Y-83877114D01*
%TA.AperFunction,Conductor*%
D31*
G36*
X119731121Y-83877114D02*
G01*
X119643377Y-84045565D01*
X119554647Y-84196202D01*
X119470423Y-84329243D01*
X119392297Y-84452459D01*
X119392042Y-84452879D01*
X119321681Y-84573955D01*
X119321219Y-84574827D01*
X119260172Y-84701632D01*
X119259656Y-84702867D01*
X119209476Y-84843268D01*
X119209067Y-84844657D01*
X119171303Y-85006522D01*
X119171068Y-85007839D01*
X119147273Y-85199036D01*
X119147184Y-85200144D01*
X119139352Y-85416300D01*
X118553848Y-85416300D01*
X118546015Y-85200144D01*
X118545926Y-85199036D01*
X118522131Y-85007839D01*
X118521896Y-85006522D01*
X118484132Y-84844657D01*
X118483723Y-84843268D01*
X118433543Y-84702867D01*
X118433027Y-84701632D01*
X118371980Y-84574827D01*
X118371518Y-84573955D01*
X118301157Y-84452879D01*
X118300902Y-84452459D01*
X118222776Y-84329243D01*
X118138552Y-84196202D01*
X118049822Y-84045565D01*
X117962079Y-83877115D01*
X118846600Y-82957322D01*
X119731121Y-83877114D01*
G37*
%TD.AperFunction*%
%TD*%
D30*
%TO.N,+12V*%
X119147066Y-89032714D02*
X119147149Y-89033785D01*
X119170578Y-89228702D01*
X119170796Y-89229971D01*
X119207926Y-89395174D01*
X119208305Y-89396512D01*
X119257564Y-89540038D01*
X119258041Y-89541228D01*
X119317860Y-89671115D01*
X119318284Y-89671953D01*
X119387092Y-89796240D01*
X119387320Y-89796635D01*
X119463531Y-89923332D01*
X119545514Y-90060374D01*
X119631584Y-90215574D01*
X119716506Y-90389362D01*
X118809036Y-91286524D01*
X117948019Y-90344678D01*
X118039809Y-90178366D01*
X118131829Y-90029429D01*
X118218562Y-89897562D01*
X118218586Y-89897525D01*
X118298488Y-89775130D01*
X118298775Y-89774669D01*
X118370324Y-89654094D01*
X118370815Y-89653184D01*
X118432576Y-89526645D01*
X118433111Y-89525378D01*
X118483648Y-89385091D01*
X118484066Y-89383681D01*
X118521941Y-89221862D01*
X118522178Y-89220536D01*
X118545957Y-89029401D01*
X118546046Y-89028292D01*
X118553850Y-88812300D01*
X119139338Y-88812300D01*
X119147066Y-89032714D01*
%TA.AperFunction,Conductor*%
D31*
G36*
X119147066Y-89032714D02*
G01*
X119147149Y-89033785D01*
X119170578Y-89228702D01*
X119170796Y-89229971D01*
X119207926Y-89395174D01*
X119208305Y-89396512D01*
X119257564Y-89540038D01*
X119258041Y-89541228D01*
X119317860Y-89671115D01*
X119318284Y-89671953D01*
X119387092Y-89796240D01*
X119387320Y-89796635D01*
X119463531Y-89923332D01*
X119545514Y-90060374D01*
X119631584Y-90215574D01*
X119716506Y-90389362D01*
X118809036Y-91286524D01*
X117948019Y-90344678D01*
X118039809Y-90178366D01*
X118131829Y-90029429D01*
X118218562Y-89897562D01*
X118218586Y-89897525D01*
X118298488Y-89775130D01*
X118298775Y-89774669D01*
X118370324Y-89654094D01*
X118370815Y-89653184D01*
X118432576Y-89526645D01*
X118433111Y-89525378D01*
X118483648Y-89385091D01*
X118484066Y-89383681D01*
X118521941Y-89221862D01*
X118522178Y-89220536D01*
X118545957Y-89029401D01*
X118546046Y-89028292D01*
X118553850Y-88812300D01*
X119139338Y-88812300D01*
X119147066Y-89032714D01*
G37*
%TD.AperFunction*%
%TD*%
D30*
%TO.N,+12V*%
X90114721Y-84512114D02*
X90026977Y-84680565D01*
X89938247Y-84831202D01*
X89854023Y-84964243D01*
X89775897Y-85087459D01*
X89775642Y-85087879D01*
X89705281Y-85208955D01*
X89704819Y-85209827D01*
X89643772Y-85336632D01*
X89643256Y-85337867D01*
X89593076Y-85478268D01*
X89592667Y-85479657D01*
X89554903Y-85641522D01*
X89554668Y-85642839D01*
X89530873Y-85834036D01*
X89530784Y-85835144D01*
X89522952Y-86051300D01*
X88937448Y-86051300D01*
X88929615Y-85835144D01*
X88929526Y-85834036D01*
X88905731Y-85642839D01*
X88905496Y-85641522D01*
X88867732Y-85479657D01*
X88867323Y-85478268D01*
X88817143Y-85337867D01*
X88816627Y-85336632D01*
X88755580Y-85209827D01*
X88755118Y-85208955D01*
X88684757Y-85087879D01*
X88684502Y-85087459D01*
X88606376Y-84964243D01*
X88522152Y-84831202D01*
X88433422Y-84680565D01*
X88345679Y-84512115D01*
X89230200Y-83592322D01*
X90114721Y-84512114D01*
%TA.AperFunction,Conductor*%
D31*
G36*
X90114721Y-84512114D02*
G01*
X90026977Y-84680565D01*
X89938247Y-84831202D01*
X89854023Y-84964243D01*
X89775897Y-85087459D01*
X89775642Y-85087879D01*
X89705281Y-85208955D01*
X89704819Y-85209827D01*
X89643772Y-85336632D01*
X89643256Y-85337867D01*
X89593076Y-85478268D01*
X89592667Y-85479657D01*
X89554903Y-85641522D01*
X89554668Y-85642839D01*
X89530873Y-85834036D01*
X89530784Y-85835144D01*
X89522952Y-86051300D01*
X88937448Y-86051300D01*
X88929615Y-85835144D01*
X88929526Y-85834036D01*
X88905731Y-85642839D01*
X88905496Y-85641522D01*
X88867732Y-85479657D01*
X88867323Y-85478268D01*
X88817143Y-85337867D01*
X88816627Y-85336632D01*
X88755580Y-85209827D01*
X88755118Y-85208955D01*
X88684757Y-85087879D01*
X88684502Y-85087459D01*
X88606376Y-84964243D01*
X88522152Y-84831202D01*
X88433422Y-84680565D01*
X88345679Y-84512115D01*
X89230200Y-83592322D01*
X90114721Y-84512114D01*
G37*
%TD.AperFunction*%
%TD*%
D30*
%TO.N,+12V*%
X89530666Y-89032714D02*
X89530749Y-89033785D01*
X89554178Y-89228702D01*
X89554396Y-89229971D01*
X89591526Y-89395174D01*
X89591905Y-89396512D01*
X89641164Y-89540038D01*
X89641641Y-89541228D01*
X89701460Y-89671115D01*
X89701884Y-89671953D01*
X89770692Y-89796240D01*
X89770920Y-89796635D01*
X89847131Y-89923332D01*
X89929114Y-90060374D01*
X90015184Y-90215574D01*
X90100106Y-90389362D01*
X89192636Y-91286524D01*
X88331619Y-90344678D01*
X88423409Y-90178366D01*
X88515429Y-90029429D01*
X88602162Y-89897562D01*
X88602186Y-89897525D01*
X88682088Y-89775130D01*
X88682375Y-89774669D01*
X88753924Y-89654094D01*
X88754415Y-89653184D01*
X88816176Y-89526645D01*
X88816711Y-89525378D01*
X88867248Y-89385091D01*
X88867666Y-89383681D01*
X88905541Y-89221862D01*
X88905778Y-89220536D01*
X88929557Y-89029401D01*
X88929646Y-89028292D01*
X88937450Y-88812300D01*
X89522938Y-88812300D01*
X89530666Y-89032714D01*
%TA.AperFunction,Conductor*%
D31*
G36*
X89530666Y-89032714D02*
G01*
X89530749Y-89033785D01*
X89554178Y-89228702D01*
X89554396Y-89229971D01*
X89591526Y-89395174D01*
X89591905Y-89396512D01*
X89641164Y-89540038D01*
X89641641Y-89541228D01*
X89701460Y-89671115D01*
X89701884Y-89671953D01*
X89770692Y-89796240D01*
X89770920Y-89796635D01*
X89847131Y-89923332D01*
X89929114Y-90060374D01*
X90015184Y-90215574D01*
X90100106Y-90389362D01*
X89192636Y-91286524D01*
X88331619Y-90344678D01*
X88423409Y-90178366D01*
X88515429Y-90029429D01*
X88602162Y-89897562D01*
X88602186Y-89897525D01*
X88682088Y-89775130D01*
X88682375Y-89774669D01*
X88753924Y-89654094D01*
X88754415Y-89653184D01*
X88816176Y-89526645D01*
X88816711Y-89525378D01*
X88867248Y-89385091D01*
X88867666Y-89383681D01*
X88905541Y-89221862D01*
X88905778Y-89220536D01*
X88929557Y-89029401D01*
X88929646Y-89028292D01*
X88937450Y-88812300D01*
X89522938Y-88812300D01*
X89530666Y-89032714D01*
G37*
%TD.AperFunction*%
%TD*%
D30*
%TO.N,Net-(D1-Pad1)*%
X110717678Y-80873600D02*
X109797795Y-81758208D01*
X109636202Y-81676705D01*
X109488514Y-81597639D01*
X109355499Y-81525524D01*
X109355261Y-81525398D01*
X109230107Y-81460941D01*
X109229524Y-81460660D01*
X109105223Y-81404466D01*
X109104322Y-81404099D01*
X108973866Y-81356769D01*
X108972772Y-81356428D01*
X108829154Y-81318566D01*
X108828041Y-81318325D01*
X108664251Y-81290535D01*
X108663261Y-81290407D01*
X108472291Y-81273290D01*
X108471486Y-81273243D01*
X108258700Y-81267725D01*
X108258700Y-80479475D01*
X108471486Y-80473956D01*
X108472291Y-80473909D01*
X108663261Y-80456792D01*
X108664251Y-80456664D01*
X108828041Y-80428874D01*
X108829154Y-80428633D01*
X108972772Y-80390771D01*
X108973866Y-80390430D01*
X109104322Y-80343100D01*
X109105223Y-80342733D01*
X109229524Y-80286539D01*
X109230107Y-80286258D01*
X109355261Y-80221801D01*
X109355499Y-80221675D01*
X109488514Y-80149560D01*
X109636202Y-80070494D01*
X109797795Y-79988992D01*
X110717678Y-80873600D01*
%TA.AperFunction,Conductor*%
D31*
G36*
X110717678Y-80873600D02*
G01*
X109797795Y-81758208D01*
X109636202Y-81676705D01*
X109488514Y-81597639D01*
X109355499Y-81525524D01*
X109355261Y-81525398D01*
X109230107Y-81460941D01*
X109229524Y-81460660D01*
X109105223Y-81404466D01*
X109104322Y-81404099D01*
X108973866Y-81356769D01*
X108972772Y-81356428D01*
X108829154Y-81318566D01*
X108828041Y-81318325D01*
X108664251Y-81290535D01*
X108663261Y-81290407D01*
X108472291Y-81273290D01*
X108471486Y-81273243D01*
X108258700Y-81267725D01*
X108258700Y-80479475D01*
X108471486Y-80473956D01*
X108472291Y-80473909D01*
X108663261Y-80456792D01*
X108664251Y-80456664D01*
X108828041Y-80428874D01*
X108829154Y-80428633D01*
X108972772Y-80390771D01*
X108973866Y-80390430D01*
X109104322Y-80343100D01*
X109105223Y-80342733D01*
X109229524Y-80286539D01*
X109230107Y-80286258D01*
X109355261Y-80221801D01*
X109355499Y-80221675D01*
X109488514Y-80149560D01*
X109636202Y-80070494D01*
X109797795Y-79988992D01*
X110717678Y-80873600D01*
G37*
%TD.AperFunction*%
%TD*%
D30*
%TO.N,Net-(D1-Pad1)*%
X102529438Y-80094868D02*
X102677044Y-80171856D01*
X102677061Y-80171866D01*
X102810220Y-80241054D01*
X102810523Y-80241206D01*
X102936029Y-80302221D01*
X102936654Y-80302504D01*
X103061397Y-80355022D01*
X103062303Y-80355363D01*
X103193170Y-80399060D01*
X103194227Y-80399363D01*
X103338107Y-80433914D01*
X103339150Y-80434119D01*
X103502932Y-80459200D01*
X103503839Y-80459305D01*
X103694412Y-80474591D01*
X103695134Y-80474629D01*
X103906978Y-80479511D01*
X103906978Y-81267761D01*
X103693347Y-81273919D01*
X103692460Y-81273976D01*
X103501201Y-81292931D01*
X103500127Y-81293084D01*
X103336442Y-81323595D01*
X103335260Y-81323874D01*
X103192019Y-81365058D01*
X103190890Y-81365441D01*
X103060961Y-81416414D01*
X103060067Y-81416805D01*
X102936322Y-81476682D01*
X102935781Y-81476960D01*
X102811087Y-81544859D01*
X102810911Y-81544957D01*
X102678228Y-81619943D01*
X102530462Y-81701116D01*
X102368381Y-81783585D01*
X101448522Y-80899000D01*
X102368430Y-80014369D01*
X102529438Y-80094868D01*
%TA.AperFunction,Conductor*%
D31*
G36*
X102529438Y-80094868D02*
G01*
X102677044Y-80171856D01*
X102677061Y-80171866D01*
X102810220Y-80241054D01*
X102810523Y-80241206D01*
X102936029Y-80302221D01*
X102936654Y-80302504D01*
X103061397Y-80355022D01*
X103062303Y-80355363D01*
X103193170Y-80399060D01*
X103194227Y-80399363D01*
X103338107Y-80433914D01*
X103339150Y-80434119D01*
X103502932Y-80459200D01*
X103503839Y-80459305D01*
X103694412Y-80474591D01*
X103695134Y-80474629D01*
X103906978Y-80479511D01*
X103906978Y-81267761D01*
X103693347Y-81273919D01*
X103692460Y-81273976D01*
X103501201Y-81292931D01*
X103500127Y-81293084D01*
X103336442Y-81323595D01*
X103335260Y-81323874D01*
X103192019Y-81365058D01*
X103190890Y-81365441D01*
X103060961Y-81416414D01*
X103060067Y-81416805D01*
X102936322Y-81476682D01*
X102935781Y-81476960D01*
X102811087Y-81544859D01*
X102810911Y-81544957D01*
X102678228Y-81619943D01*
X102530462Y-81701116D01*
X102368381Y-81783585D01*
X101448522Y-80899000D01*
X102368430Y-80014369D01*
X102529438Y-80094868D01*
G37*
%TD.AperFunction*%
%TD*%
D30*
%TO.N,/PIN_2_TL494*%
X137282608Y-79356005D02*
X137201105Y-79517597D01*
X137122039Y-79665285D01*
X137049924Y-79798300D01*
X137049798Y-79798538D01*
X136985341Y-79923692D01*
X136985060Y-79924275D01*
X136928866Y-80048576D01*
X136928499Y-80049477D01*
X136881169Y-80179933D01*
X136880828Y-80181027D01*
X136842966Y-80324645D01*
X136842725Y-80325758D01*
X136814935Y-80489548D01*
X136814807Y-80490538D01*
X136797690Y-80681508D01*
X136797643Y-80682313D01*
X136792125Y-80895100D01*
X136003875Y-80895100D01*
X135998356Y-80682313D01*
X135998309Y-80681508D01*
X135981192Y-80490538D01*
X135981064Y-80489548D01*
X135953274Y-80325758D01*
X135953033Y-80324645D01*
X135915171Y-80181027D01*
X135914830Y-80179933D01*
X135867500Y-80049477D01*
X135867133Y-80048576D01*
X135810939Y-79924275D01*
X135810658Y-79923692D01*
X135746201Y-79798538D01*
X135746075Y-79798300D01*
X135673960Y-79665285D01*
X135594894Y-79517597D01*
X135513392Y-79356005D01*
X136398000Y-78436122D01*
X137282608Y-79356005D01*
%TA.AperFunction,Conductor*%
D31*
G36*
X137282608Y-79356005D02*
G01*
X137201105Y-79517597D01*
X137122039Y-79665285D01*
X137049924Y-79798300D01*
X137049798Y-79798538D01*
X136985341Y-79923692D01*
X136985060Y-79924275D01*
X136928866Y-80048576D01*
X136928499Y-80049477D01*
X136881169Y-80179933D01*
X136880828Y-80181027D01*
X136842966Y-80324645D01*
X136842725Y-80325758D01*
X136814935Y-80489548D01*
X136814807Y-80490538D01*
X136797690Y-80681508D01*
X136797643Y-80682313D01*
X136792125Y-80895100D01*
X136003875Y-80895100D01*
X135998356Y-80682313D01*
X135998309Y-80681508D01*
X135981192Y-80490538D01*
X135981064Y-80489548D01*
X135953274Y-80325758D01*
X135953033Y-80324645D01*
X135915171Y-80181027D01*
X135914830Y-80179933D01*
X135867500Y-80049477D01*
X135867133Y-80048576D01*
X135810939Y-79924275D01*
X135810658Y-79923692D01*
X135746201Y-79798538D01*
X135746075Y-79798300D01*
X135673960Y-79665285D01*
X135594894Y-79517597D01*
X135513392Y-79356005D01*
X136398000Y-78436122D01*
X137282608Y-79356005D01*
G37*
%TD.AperFunction*%
%TD*%
D30*
%TO.N,/PIN_2_TL494*%
X136797643Y-90589886D02*
X136797690Y-90590691D01*
X136814807Y-90781661D01*
X136814935Y-90782651D01*
X136842725Y-90946441D01*
X136842966Y-90947554D01*
X136880828Y-91091172D01*
X136881169Y-91092266D01*
X136928499Y-91222722D01*
X136928866Y-91223623D01*
X136985060Y-91347924D01*
X136985341Y-91348507D01*
X137049798Y-91473661D01*
X137049924Y-91473899D01*
X137122039Y-91606914D01*
X137201105Y-91754602D01*
X137282608Y-91916195D01*
X136398000Y-92836078D01*
X135513392Y-91916195D01*
X135594894Y-91754602D01*
X135673960Y-91606914D01*
X135746075Y-91473899D01*
X135746201Y-91473661D01*
X135810658Y-91348507D01*
X135810939Y-91347924D01*
X135867133Y-91223623D01*
X135867500Y-91222722D01*
X135914830Y-91092266D01*
X135915171Y-91091172D01*
X135953033Y-90947554D01*
X135953274Y-90946441D01*
X135981064Y-90782651D01*
X135981192Y-90781661D01*
X135998309Y-90590691D01*
X135998356Y-90589886D01*
X136003875Y-90377100D01*
X136792125Y-90377100D01*
X136797643Y-90589886D01*
%TA.AperFunction,Conductor*%
D31*
G36*
X136797643Y-90589886D02*
G01*
X136797690Y-90590691D01*
X136814807Y-90781661D01*
X136814935Y-90782651D01*
X136842725Y-90946441D01*
X136842966Y-90947554D01*
X136880828Y-91091172D01*
X136881169Y-91092266D01*
X136928499Y-91222722D01*
X136928866Y-91223623D01*
X136985060Y-91347924D01*
X136985341Y-91348507D01*
X137049798Y-91473661D01*
X137049924Y-91473899D01*
X137122039Y-91606914D01*
X137201105Y-91754602D01*
X137282608Y-91916195D01*
X136398000Y-92836078D01*
X135513392Y-91916195D01*
X135594894Y-91754602D01*
X135673960Y-91606914D01*
X135746075Y-91473899D01*
X135746201Y-91473661D01*
X135810658Y-91348507D01*
X135810939Y-91347924D01*
X135867133Y-91223623D01*
X135867500Y-91222722D01*
X135914830Y-91092266D01*
X135915171Y-91091172D01*
X135953033Y-90947554D01*
X135953274Y-90946441D01*
X135981064Y-90782651D01*
X135981192Y-90781661D01*
X135998309Y-90590691D01*
X135998356Y-90589886D01*
X136003875Y-90377100D01*
X136792125Y-90377100D01*
X136797643Y-90589886D01*
G37*
%TD.AperFunction*%
%TD*%
M02*
