M48
; DRILL file {KiCad (5.1.10)-1} date 07/24/21 22:22:22
; FORMAT={-:-/ absolute / inch / decimal}
; #@! TF.CreationDate,2021-07-24T22:22:22-04:00
; #@! TF.GenerationSoftware,Kicad,Pcbnew,(5.1.10)-1
; #@! TF.FileFunction,Plated,1,2,PTH
FMAT,2
INCH
T1C0.0315
T2C0.0394
T3C0.0433
T4C0.0472
T5C0.1181
%
G90
G05
T1
X2.745Y-2.335
X2.905Y-2.525
X2.905Y-2.625
X2.9175Y-3.3775
X2.9175Y-3.4562
X2.925Y-2.9375
X2.925Y-3.0375
X2.925Y-3.1375
X2.925Y-3.2375
X2.995Y-1.85
X3.02Y-2.18
X3.025Y-2.04
X3.045Y-2.6125
X3.045Y-2.7125
X3.095Y-1.85
X3.0975Y-3.3525
X3.12Y-2.18
X3.145Y-2.335
X3.17Y-2.03
X3.17Y-2.945
X3.1725Y-3.075
X3.1725Y-3.175
X3.18Y-2.48
X3.18Y-2.58
X3.1975Y-3.3525
X3.255Y-2.715
X3.255Y-2.7937
X3.26Y-1.85
X3.27Y-2.945
X3.33Y-3.405
X3.355Y-2.61
X3.36Y-1.85
X3.38Y-3.135
X3.43Y-3.405
X3.48Y-1.85
X3.48Y-3.135
X3.512Y-3.575
X3.513Y-3.31
X3.52Y-2.835
X3.52Y-2.9334
X3.57Y-2.03
X3.62Y-3.31
X3.625Y-3.425
X3.655Y-3.155
X3.72Y-3.31
X3.73Y-2.14
X3.73Y-2.24
X3.755Y-2.61
X3.755Y-3.155
X3.768Y-3.488
X3.772Y-2.398
X3.82Y-3.31
X3.84Y-1.9713
X3.84Y-2.05
X3.85Y-2.755
X3.85Y-2.855
X3.85Y-2.955
X3.855Y-3.155
X3.868Y-3.488
X3.872Y-2.398
X3.88Y-1.85
X3.92Y-2.145
X3.92Y-2.245
X3.964Y-2.716
X3.985Y-3.065
X4.013Y-3.185
X4.042Y-2.396
X4.064Y-2.616
X4.064Y-2.816
X4.075Y-2.0
X4.145Y-2.2263
X4.145Y-2.305
X4.154Y-2.458
X4.1734Y-2.0
X4.2175Y-2.5525
X4.2175Y-2.9525
X4.338Y-2.576
X4.34Y-3.184
X4.364Y-1.899
X4.364Y-2.039
X4.364Y-2.179
X4.364Y-2.319
X4.385Y-3.065
X4.464Y-1.899
X4.464Y-2.039
X4.464Y-2.179
X4.464Y-2.319
X4.668Y-2.458
X4.678Y-3.575
X4.679Y-3.285
X4.72Y-2.772
X4.72Y-3.172
X4.738Y-2.576
X4.7416Y-1.9475
X4.84Y-1.9475
X4.9Y-2.716
X5.034Y-2.398
X5.09Y-1.965
X5.105Y-2.075
X5.24Y-1.965
X5.2425Y-1.7275
X5.2425Y-1.8275
X5.37Y-3.107
X5.37Y-3.636
X5.4956Y-3.44
X5.51Y-3.295
X5.585Y-3.107
X5.594Y-3.44
X5.61Y-3.295
X5.64Y-1.965
X5.71Y-3.295
X5.75Y-2.075
X5.78Y-1.9
X5.81Y-3.295
X5.875Y-2.075
X5.88Y-1.9
X5.91Y-3.295
X5.98Y-1.9
X5.985Y-3.107
X6.01Y-3.295
X6.01Y-3.491
X6.035Y-1.77
X6.04Y-2.38
X6.056Y-2.716
X6.08Y-1.9
X6.11Y-3.295
X6.1334Y-1.77
X6.16Y-2.01
X6.18Y-1.9
X6.21Y-3.295
X6.23Y-1.77
X6.28Y-1.9
X6.31Y-3.295
X6.32Y-2.38
X6.3284Y-1.77
X6.38Y-1.9
X6.41Y-3.295
X6.41Y-3.491
X6.48Y-1.9
X6.48Y-2.01
X6.5681Y-3.3684
X6.615Y-2.075
X6.63Y-1.7916
X6.63Y-1.89
X6.72Y-3.115
X6.765Y-3.27
X6.765Y-3.4669
X6.8Y-2.66
X6.935Y-3.115
X7.005Y-2.66
T2
X3.625Y-3.71
X4.91Y-2.27
X4.91Y-2.87
X5.01Y-2.27
X5.01Y-2.87
X5.11Y-2.27
X5.11Y-2.87
X5.21Y-2.27
X5.21Y-2.87
X5.31Y-2.27
X5.31Y-2.87
X5.41Y-2.27
X5.41Y-2.87
X5.51Y-2.27
X5.51Y-2.87
X5.61Y-2.27
X5.61Y-2.87
X5.71Y-2.27
X5.71Y-2.87
X5.81Y-2.27
X5.81Y-2.87
X5.91Y-2.27
X5.91Y-2.87
X6.01Y-2.27
X6.01Y-2.87
X6.11Y-2.27
X6.11Y-2.87
X6.21Y-2.27
X6.21Y-2.87
X6.31Y-2.27
X6.31Y-2.87
X6.41Y-2.27
X6.41Y-2.87
X6.51Y-2.27
X6.51Y-2.87
X6.61Y-2.27
X6.61Y-2.87
X6.71Y-2.27
X6.71Y-2.87
X6.81Y-2.27
X6.81Y-2.87
T3
X4.495Y-3.285
X4.495Y-3.385
X4.495Y-3.485
T4
X4.54Y-2.7
X4.54Y-3.1
X5.04Y-3.248
X5.04Y-3.4449
T5
X2.7875Y-1.805
X2.7875Y-3.64
X6.9125Y-1.81
X6.9125Y-3.6375
T0
M30
