%TF.GenerationSoftware,KiCad,Pcbnew,(5.1.10)-1*%
%TF.CreationDate,2021-07-24T22:22:28-04:00*%
%TF.ProjectId,PSU_fix,5053555f-6669-4782-9e6b-696361645f70,rev?*%
%TF.SameCoordinates,Original*%
%TF.FileFunction,Soldermask,Top*%
%TF.FilePolarity,Negative*%
%FSLAX46Y46*%
G04 Gerber Fmt 4.6, Leading zero omitted, Abs format (unit mm)*
G04 Created by KiCad (PCBNEW (5.1.10)-1) date 2021-07-24 22:22:28*
%MOMM*%
%LPD*%
G01*
G04 APERTURE LIST*
%ADD10R,2.000000X2.000000*%
%ADD11C,2.000000*%
%ADD12O,2.000000X2.000000*%
%ADD13R,1.700000X1.700000*%
%ADD14C,1.700000*%
%ADD15R,1.500000X1.500000*%
%ADD16C,1.900000*%
%ADD17R,1.600000X1.600000*%
%ADD18C,1.800000*%
%ADD19R,1.800000X1.800000*%
%ADD20R,2.400000X2.400000*%
%ADD21O,2.400000X2.400000*%
%ADD22R,2.000000X1.905000*%
%ADD23O,2.000000X1.905000*%
%ADD24C,2.400000*%
G04 APERTURE END LIST*
D10*
%TO.C,C6*%
X89408000Y-72009000D03*
D11*
X89408000Y-74509000D03*
%TD*%
D10*
%TO.C,J11*%
X80518000Y-74803000D03*
D12*
X83058000Y-74803000D03*
%TD*%
D11*
%TO.C,R9*%
X80772000Y-62992000D03*
D12*
X80772000Y-65532000D03*
%TD*%
D11*
%TO.C,BP1*%
X172974000Y-72898000D03*
D13*
X172974000Y-57658000D03*
D11*
X170434000Y-72898000D03*
D14*
X170434000Y-57658000D03*
D11*
X167894000Y-72898000D03*
D14*
X167894000Y-57658000D03*
X165354000Y-72898000D03*
X165354000Y-57658000D03*
D11*
X162814000Y-72898000D03*
X162814000Y-57658000D03*
X160274000Y-72898000D03*
X160274000Y-57658000D03*
X157734000Y-72898000D03*
X157734000Y-57658000D03*
X155194000Y-72898000D03*
D14*
X155194000Y-57658000D03*
D11*
X152654000Y-72898000D03*
D14*
X152654000Y-57658000D03*
D11*
X150114000Y-72898000D03*
X150114000Y-57658000D03*
X147574000Y-72898000D03*
X147574000Y-57658000D03*
X145034000Y-72898000D03*
X145034000Y-57658000D03*
D14*
X142494000Y-72898000D03*
X142494000Y-57658000D03*
X139954000Y-72898000D03*
X139954000Y-57658000D03*
D11*
X137414000Y-72898000D03*
D14*
X137414000Y-57658000D03*
D11*
X134874000Y-72898000D03*
X134874000Y-57658000D03*
D14*
X132334000Y-72898000D03*
D11*
X132334000Y-57658000D03*
D14*
X129794000Y-72898000D03*
D11*
X129794000Y-57658000D03*
D14*
X127254000Y-72898000D03*
D11*
X127254000Y-57658000D03*
D14*
X124714000Y-72898000D03*
X124714000Y-57658000D03*
%TD*%
D11*
%TO.C,C1*%
X105283000Y-56547000D03*
D15*
X105283000Y-58547000D03*
%TD*%
%TO.C,C2*%
X74104500Y-85788500D03*
D16*
X74104500Y-87788500D03*
%TD*%
D11*
%TO.C,C3*%
X82677000Y-70961000D03*
D17*
X82677000Y-68961000D03*
%TD*%
D15*
%TO.C,C4*%
X97536000Y-52070000D03*
D18*
X97536000Y-50070000D03*
%TD*%
D11*
%TO.C,C5*%
X139587600Y-87376000D03*
X142087600Y-87376000D03*
%TD*%
%TO.C,C8*%
X106005000Y-50800000D03*
D19*
X103505000Y-50800000D03*
%TD*%
D11*
%TO.C,C9*%
X153289000Y-44958000D03*
X155789000Y-44958000D03*
%TD*%
%TO.C,C10*%
X158242000Y-44958000D03*
X160742000Y-44958000D03*
%TD*%
%TO.C,C11*%
X168402000Y-45506000D03*
X168402000Y-48006000D03*
%TD*%
%TO.C,C12*%
X120436000Y-49466500D03*
D19*
X122936000Y-49466500D03*
%TD*%
D20*
%TO.C,D1*%
X115316000Y-78740000D03*
D21*
X115316000Y-68580000D03*
%TD*%
D10*
%TO.C,J1*%
X76835000Y-51816000D03*
%TD*%
%TO.C,J6*%
X164592000Y-48260000D03*
D12*
X162052000Y-48260000D03*
X159512000Y-48260000D03*
X156972000Y-48260000D03*
X154432000Y-48260000D03*
X151892000Y-48260000D03*
X149352000Y-48260000D03*
X146812000Y-48260000D03*
%TD*%
%TO.C,J7*%
X88392000Y-79629000D03*
D10*
X85852000Y-79629000D03*
%TD*%
D13*
%TO.C,J8*%
X129286000Y-49911000D03*
%TD*%
%TO.C,J9*%
X133159500Y-46418500D03*
D12*
X133159500Y-43878500D03*
%TD*%
D19*
%TO.C,J10*%
X139954000Y-83693000D03*
D12*
X142494000Y-83693000D03*
X145034000Y-83693000D03*
X147574000Y-83693000D03*
X150114000Y-83693000D03*
X152654000Y-83693000D03*
X155194000Y-83693000D03*
X157734000Y-83693000D03*
X160274000Y-83693000D03*
X162814000Y-83693000D03*
%TD*%
D10*
%TO.C,J14*%
X97028000Y-84074000D03*
D12*
X94488000Y-84074000D03*
X91948000Y-84074000D03*
%TD*%
D10*
%TO.C,Q1*%
X92837000Y-80137000D03*
D12*
X95377000Y-80137000D03*
X97917000Y-80137000D03*
%TD*%
%TO.C,Q2*%
X97790000Y-69977000D03*
X97790000Y-72517000D03*
D10*
X97790000Y-75057000D03*
%TD*%
D12*
%TO.C,R4*%
X76708000Y-55372000D03*
D11*
X79248000Y-55372000D03*
%TD*%
D12*
%TO.C,R6*%
X76073000Y-46990000D03*
D11*
X78613000Y-46990000D03*
%TD*%
%TO.C,R7*%
X99568000Y-57023000D03*
D12*
X99568000Y-54483000D03*
%TD*%
D11*
%TO.C,R10*%
X82804000Y-46990000D03*
D12*
X85344000Y-46990000D03*
%TD*%
D11*
%TO.C,R11*%
X94742000Y-56896000D03*
D12*
X94742000Y-54356000D03*
%TD*%
D11*
%TO.C,R12*%
X78676500Y-85153500D03*
D12*
X81216500Y-85153500D03*
%TD*%
%TO.C,R13*%
X98247200Y-88595200D03*
D11*
X95707200Y-88595200D03*
%TD*%
%TO.C,RV1*%
X171831000Y-88058000D03*
D10*
X171831000Y-83058000D03*
D11*
X166831000Y-85558000D03*
%TD*%
D12*
%TO.C,R14*%
X95377000Y-66294000D03*
D11*
X85217000Y-66294000D03*
%TD*%
%TO.C,R15*%
X88392000Y-46990000D03*
D12*
X98552000Y-46990000D03*
%TD*%
D11*
%TO.C,R17*%
X101219000Y-77851000D03*
D12*
X111379000Y-77851000D03*
%TD*%
D11*
%TO.C,R18*%
X133096000Y-49911000D03*
D12*
X143256000Y-49911000D03*
%TD*%
D11*
%TO.C,R16*%
X90678000Y-51562000D03*
D12*
X80518000Y-51562000D03*
%TD*%
D11*
%TO.C,R5*%
X79883000Y-59309000D03*
D12*
X69723000Y-59309000D03*
%TD*%
%TO.C,R26*%
X107124500Y-74993500D03*
D11*
X107124500Y-64833500D03*
%TD*%
%TO.C,R28*%
X119888000Y-70408800D03*
D12*
X119888000Y-80568800D03*
%TD*%
D11*
%TO.C,R27*%
X110185200Y-65430400D03*
D12*
X120345200Y-65430400D03*
%TD*%
D22*
%TO.C,U4*%
X114173000Y-83439000D03*
D23*
X114173000Y-85979000D03*
X114173000Y-88519000D03*
%TD*%
D11*
%TO.C,R19*%
X152654000Y-88671400D03*
D12*
X162814000Y-88671400D03*
%TD*%
D10*
%TO.C,J2*%
X74295000Y-74612500D03*
D12*
X74295000Y-77152500D03*
X74295000Y-79692500D03*
X74295000Y-82232500D03*
%TD*%
D11*
%TO.C,R20*%
X80581500Y-80645000D03*
D12*
X80581500Y-78105000D03*
%TD*%
D11*
%TO.C,R8*%
X141859000Y-78917800D03*
D12*
X152019000Y-78917800D03*
%TD*%
D11*
%TO.C,R21*%
X84582000Y-86487000D03*
D12*
X87122000Y-86487000D03*
%TD*%
D11*
%TO.C,R2*%
X95808800Y-60909200D03*
D12*
X98348800Y-60909200D03*
%TD*%
D11*
%TO.C,R1*%
X73787000Y-66675000D03*
D12*
X73787000Y-64135000D03*
%TD*%
%TO.C,R3*%
X77343000Y-68897500D03*
D11*
X77343000Y-66357500D03*
%TD*%
D12*
%TO.C,R22*%
X113385600Y-48234600D03*
D11*
X110845600Y-48234600D03*
%TD*%
%TO.C,R23*%
X110845600Y-51790600D03*
D12*
X113385600Y-51790600D03*
%TD*%
%TO.C,R24*%
X113385600Y-55346600D03*
D11*
X110845600Y-55346600D03*
%TD*%
%TO.C,R25*%
X110845600Y-58902600D03*
D12*
X113385600Y-58902600D03*
%TD*%
D11*
%TO.C,U3*%
X100685600Y-68986400D03*
X103225600Y-66446400D03*
D10*
X103225600Y-71526400D03*
%TD*%
D20*
%TO.C,C7*%
X128016000Y-82499200D03*
D24*
X128016000Y-87499200D03*
%TD*%
M02*
