%TF.GenerationSoftware,KiCad,Pcbnew,(5.1.10)-1*%
%TF.CreationDate,2021-06-08T18:49:46-04:00*%
%TF.ProjectId,PSU_main,5053555f-6d61-4696-9e2e-6b696361645f,rev?*%
%TF.SameCoordinates,Original*%
%TF.FileFunction,Copper,L1,Top*%
%TF.FilePolarity,Positive*%
%FSLAX46Y46*%
G04 Gerber Fmt 4.6, Leading zero omitted, Abs format (unit mm)*
G04 Created by KiCad (PCBNEW (5.1.10)-1) date 2021-06-08 18:49:46*
%MOMM*%
%LPD*%
G01*
G04 APERTURE LIST*
%TA.AperFunction,ComponentPad*%
%ADD10C,1.700000*%
%TD*%
%TA.AperFunction,ComponentPad*%
%ADD11R,1.700000X1.700000*%
%TD*%
%TA.AperFunction,ComponentPad*%
%ADD12O,1.600000X1.600000*%
%TD*%
%TA.AperFunction,ComponentPad*%
%ADD13C,1.600000*%
%TD*%
%TA.AperFunction,ComponentPad*%
%ADD14O,1.700000X1.700000*%
%TD*%
%TA.AperFunction,ComponentPad*%
%ADD15C,1.550000*%
%TD*%
%TA.AperFunction,ComponentPad*%
%ADD16R,1.550000X1.550000*%
%TD*%
%TA.AperFunction,ComponentPad*%
%ADD17C,1.200000*%
%TD*%
%TA.AperFunction,ComponentPad*%
%ADD18R,1.200000X1.200000*%
%TD*%
%TA.AperFunction,ComponentPad*%
%ADD19R,1.600000X1.600000*%
%TD*%
%TA.AperFunction,ComponentPad*%
%ADD20R,2.400000X2.400000*%
%TD*%
%TA.AperFunction,ComponentPad*%
%ADD21O,2.400000X2.400000*%
%TD*%
%TA.AperFunction,ComponentPad*%
%ADD22R,1.800000X1.800000*%
%TD*%
%TA.AperFunction,ComponentPad*%
%ADD23O,1.800000X1.800000*%
%TD*%
%TA.AperFunction,ViaPad*%
%ADD24C,5.000000*%
%TD*%
%TA.AperFunction,ViaPad*%
%ADD25C,2.000000*%
%TD*%
%TA.AperFunction,Conductor*%
%ADD26C,0.406400*%
%TD*%
%TA.AperFunction,Conductor*%
%ADD27C,0.025400*%
%TD*%
%TA.AperFunction,Conductor*%
%ADD28C,0.100000*%
%TD*%
G04 APERTURE END LIST*
D10*
%TO.P,BP1,40*%
%TO.N,GND*%
X179705000Y-106045000D03*
D11*
%TO.P,BP1,1*%
%TO.N,Net-(BP?1-Pad1)*%
X179705000Y-90805000D03*
D10*
%TO.P,BP1,39*%
%TO.N,GND*%
X177165000Y-106045000D03*
%TO.P,BP1,2*%
%TO.N,Net-(BP?1-Pad2)*%
X177165000Y-90805000D03*
%TO.P,BP1,38*%
%TO.N,+3V3*%
X174625000Y-106045000D03*
%TO.P,BP1,3*%
%TO.N,Net-(BP?1-Pad3)*%
X174625000Y-90805000D03*
%TO.P,BP1,37*%
%TO.N,Net-(BP?1-Pad37)*%
X172085000Y-106045000D03*
%TO.P,BP1,4*%
%TO.N,Net-(BP?1-Pad4)*%
X172085000Y-90805000D03*
%TO.P,BP1,36*%
%TO.N,Net-(BP?1-Pad36)*%
X169545000Y-106045000D03*
%TO.P,BP1,5*%
%TO.N,Net-(BP?1-Pad5)*%
X169545000Y-90805000D03*
%TO.P,BP1,35*%
%TO.N,Net-(BP?1-Pad35)*%
X167005000Y-106045000D03*
%TO.P,BP1,6*%
%TO.N,Net-(BP?1-Pad6)*%
X167005000Y-90805000D03*
%TO.P,BP1,34*%
%TO.N,Net-(BP?1-Pad34)*%
X164465000Y-106045000D03*
%TO.P,BP1,7*%
%TO.N,A10*%
X164465000Y-90805000D03*
%TO.P,BP1,33*%
%TO.N,Net-(BP?1-Pad33)*%
X161925000Y-106045000D03*
%TO.P,BP1,8*%
%TO.N,Net-(BP?1-Pad8)*%
X161925000Y-90805000D03*
%TO.P,BP1,32*%
%TO.N,A7*%
X159385000Y-106045000D03*
%TO.P,BP1,9*%
%TO.N,Net-(BP?1-Pad9)*%
X159385000Y-90805000D03*
%TO.P,BP1,31*%
%TO.N,A6*%
X156845000Y-106045000D03*
%TO.P,BP1,10*%
%TO.N,Net-(BP?1-Pad10)*%
X156845000Y-90805000D03*
%TO.P,BP1,30*%
%TO.N,Net-(BP?1-Pad30)*%
X154305000Y-106045000D03*
%TO.P,BP1,11*%
%TO.N,Net-(BP?1-Pad11)*%
X154305000Y-90805000D03*
%TO.P,BP1,29*%
%TO.N,Net-(BP?1-Pad29)*%
X151765000Y-106045000D03*
%TO.P,BP1,12*%
%TO.N,B4*%
X151765000Y-90805000D03*
%TO.P,BP1,28*%
%TO.N,Net-(BP?1-Pad28)*%
X149225000Y-106045000D03*
%TO.P,BP1,13*%
%TO.N,Net-(BP?1-Pad13)*%
X149225000Y-90805000D03*
%TO.P,BP1,27*%
%TO.N,Net-(BP?1-Pad27)*%
X146685000Y-106045000D03*
%TO.P,BP1,14*%
%TO.N,Net-(BP?1-Pad14)*%
X146685000Y-90805000D03*
%TO.P,BP1,26*%
%TO.N,A1*%
X144145000Y-106045000D03*
%TO.P,BP1,15*%
%TO.N,Net-(BP?1-Pad15)*%
X144145000Y-90805000D03*
%TO.P,BP1,25*%
%TO.N,A0*%
X141605000Y-106045000D03*
%TO.P,BP1,16*%
%TO.N,Net-(BP?1-Pad16)*%
X141605000Y-90805000D03*
%TO.P,BP1,24*%
%TO.N,Net-(BP?1-Pad24)*%
X139065000Y-106045000D03*
%TO.P,BP1,17*%
%TO.N,Net-(BP?1-Pad17)*%
X139065000Y-90805000D03*
%TO.P,BP1,23*%
%TO.N,Net-(BP?1-Pad23)*%
X136525000Y-106045000D03*
%TO.P,BP1,18*%
%TO.N,+5V*%
X136525000Y-90805000D03*
%TO.P,BP1,22*%
%TO.N,Net-(BP?1-Pad22)*%
X133985000Y-106045000D03*
%TO.P,BP1,19*%
%TO.N,GND*%
X133985000Y-90805000D03*
%TO.P,BP1,21*%
%TO.N,Net-(BP?1-Pad21)*%
X131445000Y-106045000D03*
%TO.P,BP1,20*%
%TO.N,Net-(BP?1-Pad20)*%
X131445000Y-90805000D03*
%TD*%
D12*
%TO.P,R13,2*%
%TO.N,GND*%
X118745000Y-86360000D03*
D13*
%TO.P,R13,1*%
%TO.N,Net-(R12-Pad2)*%
X118745000Y-83820000D03*
%TD*%
D12*
%TO.P,R21,2*%
%TO.N,GND*%
X100330000Y-116205000D03*
D13*
%TO.P,R21,1*%
%TO.N,Net-(J13-Pad1)*%
X97790000Y-116205000D03*
%TD*%
D11*
%TO.P,J10,1*%
%TO.N,GND*%
X140335000Y-114046000D03*
D14*
%TO.P,J10,2*%
%TO.N,+5V*%
X142875000Y-114046000D03*
%TO.P,J10,3*%
%TO.N,Net-(J10-Pad3)*%
X145415000Y-114046000D03*
%TO.P,J10,4*%
%TO.N,Net-(BP?1-Pad29)*%
X147955000Y-114046000D03*
%TO.P,J10,5*%
%TO.N,Net-(BP?1-Pad30)*%
X150495000Y-114046000D03*
%TO.P,J10,6*%
%TO.N,Net-(BP?1-Pad33)*%
X153035000Y-114046000D03*
%TO.P,J10,7*%
%TO.N,Net-(BP?1-Pad34)*%
X155575000Y-114046000D03*
%TO.P,J10,8*%
%TO.N,Net-(BP?1-Pad35)*%
X158115000Y-114046000D03*
%TO.P,J10,9*%
%TO.N,Net-(BP?1-Pad36)*%
X160655000Y-114046000D03*
%TO.P,J10,10*%
%TO.N,Net-(J10-Pad10)*%
X163195000Y-114046000D03*
%TD*%
D15*
%TO.P,RV1,3*%
%TO.N,GND*%
X175260000Y-119808000D03*
D16*
%TO.P,RV1,1*%
%TO.N,+5V*%
X175260000Y-114808000D03*
D15*
%TO.P,RV1,2*%
%TO.N,Net-(J10-Pad3)*%
X170260000Y-117308000D03*
%TD*%
D11*
%TO.P,J13,1*%
%TO.N,Net-(J13-Pad1)*%
X97790000Y-120650000D03*
%TD*%
D13*
%TO.P,C5,1*%
%TO.N,+5V*%
X143002000Y-118872000D03*
%TO.P,C5,2*%
%TO.N,GND*%
X140502000Y-118872000D03*
%TD*%
D14*
%TO.P,J12,2*%
%TO.N,GND*%
X148590000Y-122174000D03*
D11*
%TO.P,J12,1*%
%TO.N,+5V*%
X148590000Y-119634000D03*
%TD*%
D17*
%TO.P,C1,2*%
%TO.N,GND*%
X116586000Y-91726000D03*
D18*
%TO.P,C1,1*%
%TO.N,Net-(C1-Pad1)*%
X116586000Y-93726000D03*
%TD*%
%TO.P,C2,1*%
%TO.N,Net-(C2-Pad1)*%
X125476000Y-84836000D03*
D17*
%TO.P,C2,2*%
%TO.N,GND*%
X127476000Y-84836000D03*
%TD*%
D18*
%TO.P,C3,1*%
%TO.N,Net-(C3-Pad1)*%
X88265000Y-107950000D03*
D17*
%TO.P,C3,2*%
%TO.N,GND*%
X88265000Y-109950000D03*
%TD*%
%TO.P,C4,2*%
%TO.N,GND*%
X100425000Y-88900000D03*
D18*
%TO.P,C4,1*%
%TO.N,Net-(C4-Pad1)*%
X98425000Y-88900000D03*
%TD*%
D13*
%TO.P,C6,2*%
%TO.N,GND*%
X95885000Y-107355000D03*
D19*
%TO.P,C6,1*%
%TO.N,+12V*%
X95885000Y-109855000D03*
%TD*%
%TO.P,C7,1*%
%TO.N,+5V*%
X133350000Y-115570000D03*
D13*
%TO.P,C7,2*%
%TO.N,GND*%
X133350000Y-118070000D03*
%TD*%
D19*
%TO.P,C8,1*%
%TO.N,GND*%
X109855000Y-103505000D03*
D13*
%TO.P,C8,2*%
%TO.N,11*%
X107355000Y-103505000D03*
%TD*%
%TO.P,C9,2*%
%TO.N,Net-(BP?1-Pad5)*%
X164425000Y-77470000D03*
%TO.P,C9,1*%
%TO.N,GND*%
X161925000Y-77470000D03*
%TD*%
%TO.P,C10,2*%
%TO.N,GND*%
X169505000Y-77470000D03*
%TO.P,C10,1*%
%TO.N,Net-(BP?1-Pad10)*%
X167005000Y-77470000D03*
%TD*%
%TO.P,C11,1*%
%TO.N,GND*%
X176530000Y-81280000D03*
%TO.P,C11,2*%
%TO.N,Net-(BP?1-Pad6)*%
X176530000Y-78780000D03*
%TD*%
D20*
%TO.P,D1,1*%
%TO.N,Net-(D1-Pad1)*%
X116205000Y-120015000D03*
D21*
%TO.P,D1,2*%
%TO.N,11*%
X126365000Y-120015000D03*
%TD*%
D11*
%TO.P,J1,1*%
%TO.N,Net-(J1-Pad1)*%
X88265000Y-86995000D03*
%TD*%
%TO.P,J2,1*%
%TO.N,Net-(J2-Pad1)*%
X88265000Y-91440000D03*
%TD*%
%TO.P,J4,1*%
%TO.N,Net-(C2-Pad1)*%
X124968000Y-80010000D03*
%TD*%
%TO.P,J5,1*%
%TO.N,Net-(J5-Pad1)*%
X105918000Y-79756000D03*
%TD*%
%TO.P,J6,1*%
%TO.N,GND*%
X172720000Y-81026000D03*
D14*
%TO.P,J6,2*%
%TO.N,Net-(BP?1-Pad6)*%
X170180000Y-81026000D03*
%TO.P,J6,3*%
%TO.N,Net-(BP?1-Pad10)*%
X167640000Y-81026000D03*
%TO.P,J6,4*%
%TO.N,Net-(BP?1-Pad5)*%
X165100000Y-81026000D03*
%TO.P,J6,5*%
%TO.N,Net-(BP?1-Pad11)*%
X162560000Y-81026000D03*
%TO.P,J6,6*%
%TO.N,Net-(BP?1-Pad17)*%
X160020000Y-81026000D03*
%TO.P,J6,7*%
%TO.N,Net-(BP?1-Pad16)*%
X157480000Y-81026000D03*
%TO.P,J6,8*%
%TO.N,+3V3*%
X154940000Y-81026000D03*
%TD*%
%TO.P,J7,2*%
%TO.N,Net-(J7-Pad2)*%
X105410000Y-114300000D03*
D11*
%TO.P,J7,1*%
%TO.N,+12V*%
X105410000Y-116840000D03*
%TD*%
%TO.P,J8,1*%
%TO.N,Net-(J8-Pad1)*%
X129540000Y-78740000D03*
%TD*%
D14*
%TO.P,J9,2*%
%TO.N,GND*%
X137160000Y-78740000D03*
D11*
%TO.P,J9,1*%
%TO.N,Net-(J8-Pad1)*%
X134620000Y-78740000D03*
%TD*%
D14*
%TO.P,J11,2*%
%TO.N,GND*%
X86995000Y-116205000D03*
D11*
%TO.P,J11,1*%
%TO.N,Vout*%
X86995000Y-113665000D03*
%TD*%
%TO.P,J14,1*%
%TO.N,+12V*%
X106045000Y-121285000D03*
D14*
%TO.P,J14,2*%
%TO.N,GND*%
X108585000Y-121285000D03*
%TO.P,J14,3*%
%TO.N,Net-(D1-Pad1)*%
X111125000Y-121285000D03*
%TD*%
D22*
%TO.P,Q1,1*%
%TO.N,GND*%
X110490000Y-115570000D03*
D23*
%TO.P,Q1,2*%
%TO.N,Net-(J7-Pad2)*%
X113030000Y-115570000D03*
%TO.P,Q1,3*%
%TO.N,Net-(Q1-Pad3)*%
X115570000Y-115570000D03*
%TD*%
D13*
%TO.P,R2,1*%
%TO.N,Net-(C1-Pad1)*%
X107950000Y-97790000D03*
D12*
%TO.P,R2,2*%
%TO.N,A6*%
X123190000Y-97790000D03*
%TD*%
%TO.P,R17,2*%
%TO.N,A10*%
X126365000Y-91440000D03*
D13*
%TO.P,R17,1*%
%TO.N,Net-(Q1-Pad3)*%
X126365000Y-106680000D03*
%TD*%
D12*
%TO.P,R18,2*%
%TO.N,B4*%
X149860000Y-82550000D03*
D13*
%TO.P,R18,1*%
%TO.N,Net-(J8-Pad1)*%
X134620000Y-82550000D03*
%TD*%
%TO.P,R9,1*%
%TO.N,Net-(R9-Pad1)*%
X93345000Y-100965000D03*
D12*
%TO.P,R9,2*%
%TO.N,Net-(C3-Pad1)*%
X93345000Y-103505000D03*
%TD*%
D13*
%TO.P,R1,1*%
%TO.N,Net-(J1-Pad1)*%
X93345000Y-95885000D03*
D12*
%TO.P,R1,2*%
%TO.N,Net-(J2-Pad1)*%
X90805000Y-95885000D03*
%TD*%
D13*
%TO.P,R4,1*%
%TO.N,Net-(R4-Pad1)*%
X93980000Y-91440000D03*
D12*
%TO.P,R4,2*%
%TO.N,Net-(J1-Pad1)*%
X91440000Y-91440000D03*
%TD*%
%TO.P,R3,2*%
%TO.N,Vout*%
X87630000Y-104775000D03*
D13*
%TO.P,R3,1*%
%TO.N,Net-(R3-Pad1)*%
X87630000Y-102235000D03*
%TD*%
%TO.P,R5,1*%
%TO.N,Net-(R3-Pad1)*%
X87630000Y-98425000D03*
D12*
%TO.P,R5,2*%
%TO.N,GND*%
X87630000Y-95885000D03*
%TD*%
D13*
%TO.P,R11,1*%
%TO.N,Net-(R11-Pad1)*%
X108585000Y-93980000D03*
D12*
%TO.P,R11,2*%
%TO.N,Net-(R11-Pad2)*%
X108585000Y-91440000D03*
%TD*%
%TO.P,R7,2*%
%TO.N,GND*%
X112268000Y-91440000D03*
D13*
%TO.P,R7,1*%
%TO.N,Net-(R11-Pad1)*%
X112268000Y-93980000D03*
%TD*%
%TO.P,R16,1*%
%TO.N,Net-(R11-Pad2)*%
X108458000Y-87630000D03*
D12*
%TO.P,R16,2*%
%TO.N,Net-(J5-Pad1)*%
X105918000Y-87630000D03*
%TD*%
D13*
%TO.P,R6,1*%
%TO.N,Net-(R10-Pad1)*%
X94742000Y-82854800D03*
D12*
%TO.P,R6,2*%
%TO.N,GND*%
X92202000Y-82854800D03*
%TD*%
D13*
%TO.P,R10,1*%
%TO.N,Net-(R10-Pad1)*%
X92710000Y-86360000D03*
D12*
%TO.P,R10,2*%
%TO.N,Net-(C4-Pad1)*%
X95250000Y-86360000D03*
%TD*%
D13*
%TO.P,R15,1*%
%TO.N,Net-(C4-Pad1)*%
X98425000Y-83820000D03*
D12*
%TO.P,R15,2*%
%TO.N,A1*%
X113665000Y-83820000D03*
%TD*%
D13*
%TO.P,R14,1*%
%TO.N,Net-(C3-Pad1)*%
X101600000Y-109855000D03*
D12*
%TO.P,R14,2*%
%TO.N,A0*%
X116840000Y-109855000D03*
%TD*%
D13*
%TO.P,R8,1*%
%TO.N,Net-(C2-Pad1)*%
X122936000Y-88900000D03*
D12*
%TO.P,R8,2*%
%TO.N,A7*%
X122936000Y-91440000D03*
%TD*%
D13*
%TO.P,R12,1*%
%TO.N,Net-(C2-Pad1)*%
X120904000Y-80010000D03*
D12*
%TO.P,R12,2*%
%TO.N,Net-(R12-Pad2)*%
X118364000Y-80010000D03*
%TD*%
D13*
%TO.P,R19,1*%
%TO.N,+5V*%
X157734000Y-120904000D03*
D12*
%TO.P,R19,2*%
%TO.N,Net-(J10-Pad10)*%
X160274000Y-120904000D03*
%TD*%
D13*
%TO.P,R20,1*%
%TO.N,Net-(J13-Pad1)*%
X93345000Y-116205000D03*
D12*
%TO.P,R20,2*%
%TO.N,Vout*%
X90805000Y-116205000D03*
%TD*%
D24*
%TO.N,*%
X181648100Y-120637300D03*
X181610000Y-78727300D03*
X87515700Y-78701900D03*
X87668100Y-120713500D03*
D25*
%TO.N,+3V3*%
X154940000Y-85598000D03*
X179705000Y-100330000D03*
X183642000Y-100330000D03*
X175006000Y-85598000D03*
%TO.N,Net-(BP?1-Pad5)*%
X163195000Y-84455000D03*
X171450000Y-84455000D03*
%TO.N,+5V*%
X160655000Y-93980000D03*
X168275000Y-93980000D03*
X181610000Y-111760000D03*
X175260000Y-111760000D03*
%TO.N,Net-(J10-Pad3)*%
X160528000Y-117348000D03*
X166370000Y-117348000D03*
%TO.N,Net-(Q1-Pad3)*%
X121920000Y-115570000D03*
X121920000Y-106680000D03*
%TD*%
D26*
%TO.N,+3V3*%
X174745799Y-85858201D02*
X175006000Y-85598000D01*
X155200201Y-85858201D02*
X174745799Y-85858201D01*
X154940000Y-85598000D02*
X155200201Y-85858201D01*
X179705000Y-100330000D02*
X183642000Y-100330000D01*
%TO.N,Net-(BP?1-Pad5)*%
X163195000Y-84455000D02*
X171450000Y-84455000D01*
%TO.N,+5V*%
X160655000Y-93980000D02*
X168275000Y-93980000D01*
X175260000Y-111760000D02*
X181610000Y-111760000D01*
%TO.N,Net-(J10-Pad3)*%
X160528000Y-117348000D02*
X166370000Y-117348000D01*
%TO.N,Net-(Q1-Pad3)*%
X121920000Y-115570000D02*
X121920000Y-106680000D01*
%TD*%
D27*
%TO.N,+3V3*%
X155725531Y-84980994D02*
X155843925Y-85104791D01*
X155948412Y-85220961D01*
X155948494Y-85221052D01*
X156046291Y-85327688D01*
X156046818Y-85328230D01*
X156145129Y-85423385D01*
X156146206Y-85424316D01*
X156252375Y-85506196D01*
X156254007Y-85507265D01*
X156375374Y-85574074D01*
X156377334Y-85574946D01*
X156521240Y-85624890D01*
X156523154Y-85625391D01*
X156696941Y-85656673D01*
X156698540Y-85656857D01*
X156897501Y-85667066D01*
X156897501Y-86049211D01*
X156655760Y-86059120D01*
X156654559Y-86059226D01*
X156443241Y-86088133D01*
X156441926Y-86088384D01*
X156263542Y-86132306D01*
X156262302Y-86132679D01*
X156107183Y-86188138D01*
X156106259Y-86188510D01*
X155964736Y-86252025D01*
X155964303Y-86252229D01*
X155826709Y-86320318D01*
X155683795Y-86389298D01*
X155525793Y-86455782D01*
X155342973Y-86516380D01*
X155133968Y-86565706D01*
X154474764Y-85473227D01*
X155592233Y-84857190D01*
X155725531Y-84980994D01*
%TA.AperFunction,Conductor*%
D28*
G36*
X155725531Y-84980994D02*
G01*
X155843925Y-85104791D01*
X155948412Y-85220961D01*
X155948494Y-85221052D01*
X156046291Y-85327688D01*
X156046818Y-85328230D01*
X156145129Y-85423385D01*
X156146206Y-85424316D01*
X156252375Y-85506196D01*
X156254007Y-85507265D01*
X156375374Y-85574074D01*
X156377334Y-85574946D01*
X156521240Y-85624890D01*
X156523154Y-85625391D01*
X156696941Y-85656673D01*
X156698540Y-85656857D01*
X156897501Y-85667066D01*
X156897501Y-86049211D01*
X156655760Y-86059120D01*
X156654559Y-86059226D01*
X156443241Y-86088133D01*
X156441926Y-86088384D01*
X156263542Y-86132306D01*
X156262302Y-86132679D01*
X156107183Y-86188138D01*
X156106259Y-86188510D01*
X155964736Y-86252025D01*
X155964303Y-86252229D01*
X155826709Y-86320318D01*
X155683795Y-86389298D01*
X155525793Y-86455782D01*
X155342973Y-86516380D01*
X155133968Y-86565706D01*
X154474764Y-85473227D01*
X155592233Y-84857190D01*
X155725531Y-84980994D01*
G37*
%TD.AperFunction*%
%TD*%
D27*
%TO.N,+3V3*%
X175471236Y-85473227D02*
X174812032Y-86565706D01*
X174603026Y-86516380D01*
X174420206Y-86455782D01*
X174262204Y-86389298D01*
X174119290Y-86320318D01*
X173981696Y-86252229D01*
X173981263Y-86252025D01*
X173839740Y-86188510D01*
X173838816Y-86188138D01*
X173683697Y-86132679D01*
X173682457Y-86132306D01*
X173504073Y-86088384D01*
X173502758Y-86088133D01*
X173291440Y-86059226D01*
X173290239Y-86059120D01*
X173048499Y-86049211D01*
X173048499Y-85667066D01*
X173247459Y-85656857D01*
X173249058Y-85656673D01*
X173422845Y-85625391D01*
X173424759Y-85624890D01*
X173568665Y-85574946D01*
X173570625Y-85574074D01*
X173691992Y-85507265D01*
X173693624Y-85506196D01*
X173799793Y-85424316D01*
X173800870Y-85423385D01*
X173899181Y-85328230D01*
X173899708Y-85327688D01*
X173997505Y-85221052D01*
X173997587Y-85220961D01*
X174102074Y-85104791D01*
X174220468Y-84980994D01*
X174353767Y-84857190D01*
X175471236Y-85473227D01*
%TA.AperFunction,Conductor*%
D28*
G36*
X175471236Y-85473227D02*
G01*
X174812032Y-86565706D01*
X174603026Y-86516380D01*
X174420206Y-86455782D01*
X174262204Y-86389298D01*
X174119290Y-86320318D01*
X173981696Y-86252229D01*
X173981263Y-86252025D01*
X173839740Y-86188510D01*
X173838816Y-86188138D01*
X173683697Y-86132679D01*
X173682457Y-86132306D01*
X173504073Y-86088384D01*
X173502758Y-86088133D01*
X173291440Y-86059226D01*
X173290239Y-86059120D01*
X173048499Y-86049211D01*
X173048499Y-85667066D01*
X173247459Y-85656857D01*
X173249058Y-85656673D01*
X173422845Y-85625391D01*
X173424759Y-85624890D01*
X173568665Y-85574946D01*
X173570625Y-85574074D01*
X173691992Y-85507265D01*
X173693624Y-85506196D01*
X173799793Y-85424316D01*
X173800870Y-85423385D01*
X173899181Y-85328230D01*
X173899708Y-85327688D01*
X173997505Y-85221052D01*
X173997587Y-85220961D01*
X174102074Y-85104791D01*
X174220468Y-84980994D01*
X174353767Y-84857190D01*
X175471236Y-85473227D01*
G37*
%TD.AperFunction*%
%TD*%
D27*
%TO.N,+3V3*%
X180317832Y-99539343D02*
X180470984Y-99637618D01*
X180603595Y-99733833D01*
X180724544Y-99825622D01*
X180724809Y-99825817D01*
X180842526Y-99910441D01*
X180843341Y-99910980D01*
X180966498Y-99985865D01*
X180967827Y-99986569D01*
X181105168Y-100049197D01*
X181106804Y-100049811D01*
X181267073Y-100097664D01*
X181268709Y-100098037D01*
X181460649Y-100128596D01*
X181462059Y-100128740D01*
X181682300Y-100138926D01*
X181682300Y-100521074D01*
X181462059Y-100531259D01*
X181460649Y-100531403D01*
X181268709Y-100561962D01*
X181267073Y-100562335D01*
X181106804Y-100610188D01*
X181105168Y-100610802D01*
X180967827Y-100673430D01*
X180966498Y-100674134D01*
X180843341Y-100749019D01*
X180842526Y-100749558D01*
X180724809Y-100834182D01*
X180724544Y-100834377D01*
X180603595Y-100926166D01*
X180470984Y-101022381D01*
X180317832Y-101120656D01*
X180143030Y-101214439D01*
X179223322Y-100330000D01*
X180143030Y-99445561D01*
X180317832Y-99539343D01*
%TA.AperFunction,Conductor*%
D28*
G36*
X180317832Y-99539343D02*
G01*
X180470984Y-99637618D01*
X180603595Y-99733833D01*
X180724544Y-99825622D01*
X180724809Y-99825817D01*
X180842526Y-99910441D01*
X180843341Y-99910980D01*
X180966498Y-99985865D01*
X180967827Y-99986569D01*
X181105168Y-100049197D01*
X181106804Y-100049811D01*
X181267073Y-100097664D01*
X181268709Y-100098037D01*
X181460649Y-100128596D01*
X181462059Y-100128740D01*
X181682300Y-100138926D01*
X181682300Y-100521074D01*
X181462059Y-100531259D01*
X181460649Y-100531403D01*
X181268709Y-100561962D01*
X181267073Y-100562335D01*
X181106804Y-100610188D01*
X181105168Y-100610802D01*
X180967827Y-100673430D01*
X180966498Y-100674134D01*
X180843341Y-100749019D01*
X180842526Y-100749558D01*
X180724809Y-100834182D01*
X180724544Y-100834377D01*
X180603595Y-100926166D01*
X180470984Y-101022381D01*
X180317832Y-101120656D01*
X180143030Y-101214439D01*
X179223322Y-100330000D01*
X180143030Y-99445561D01*
X180317832Y-99539343D01*
G37*
%TD.AperFunction*%
%TD*%
D27*
%TO.N,+3V3*%
X184123678Y-100330000D02*
X183203970Y-101214439D01*
X183029167Y-101120656D01*
X182876015Y-101022381D01*
X182743404Y-100926166D01*
X182622455Y-100834377D01*
X182622190Y-100834182D01*
X182504473Y-100749558D01*
X182503658Y-100749019D01*
X182380501Y-100674134D01*
X182379172Y-100673430D01*
X182241831Y-100610802D01*
X182240195Y-100610188D01*
X182079926Y-100562335D01*
X182078290Y-100561962D01*
X181886350Y-100531403D01*
X181884940Y-100531259D01*
X181664700Y-100521074D01*
X181664700Y-100138926D01*
X181884940Y-100128740D01*
X181886350Y-100128596D01*
X182078290Y-100098037D01*
X182079926Y-100097664D01*
X182240195Y-100049811D01*
X182241831Y-100049197D01*
X182379172Y-99986569D01*
X182380501Y-99985865D01*
X182503658Y-99910980D01*
X182504473Y-99910441D01*
X182622190Y-99825817D01*
X182622455Y-99825622D01*
X182743404Y-99733833D01*
X182876015Y-99637618D01*
X183029167Y-99539343D01*
X183203970Y-99445561D01*
X184123678Y-100330000D01*
%TA.AperFunction,Conductor*%
D28*
G36*
X184123678Y-100330000D02*
G01*
X183203970Y-101214439D01*
X183029167Y-101120656D01*
X182876015Y-101022381D01*
X182743404Y-100926166D01*
X182622455Y-100834377D01*
X182622190Y-100834182D01*
X182504473Y-100749558D01*
X182503658Y-100749019D01*
X182380501Y-100674134D01*
X182379172Y-100673430D01*
X182241831Y-100610802D01*
X182240195Y-100610188D01*
X182079926Y-100562335D01*
X182078290Y-100561962D01*
X181886350Y-100531403D01*
X181884940Y-100531259D01*
X181664700Y-100521074D01*
X181664700Y-100138926D01*
X181884940Y-100128740D01*
X181886350Y-100128596D01*
X182078290Y-100098037D01*
X182079926Y-100097664D01*
X182240195Y-100049811D01*
X182241831Y-100049197D01*
X182379172Y-99986569D01*
X182380501Y-99985865D01*
X182503658Y-99910980D01*
X182504473Y-99910441D01*
X182622190Y-99825817D01*
X182622455Y-99825622D01*
X182743404Y-99733833D01*
X182876015Y-99637618D01*
X183029167Y-99539343D01*
X183203970Y-99445561D01*
X184123678Y-100330000D01*
G37*
%TD.AperFunction*%
%TD*%
D27*
%TO.N,Net-(BP?1-Pad5)*%
X163807832Y-83664343D02*
X163960984Y-83762618D01*
X164093595Y-83858833D01*
X164214544Y-83950622D01*
X164214809Y-83950817D01*
X164332526Y-84035441D01*
X164333341Y-84035980D01*
X164456498Y-84110865D01*
X164457827Y-84111569D01*
X164595168Y-84174197D01*
X164596804Y-84174811D01*
X164757073Y-84222664D01*
X164758709Y-84223037D01*
X164950649Y-84253596D01*
X164952059Y-84253740D01*
X165172300Y-84263926D01*
X165172300Y-84646074D01*
X164952059Y-84656259D01*
X164950649Y-84656403D01*
X164758709Y-84686962D01*
X164757073Y-84687335D01*
X164596804Y-84735188D01*
X164595168Y-84735802D01*
X164457827Y-84798430D01*
X164456498Y-84799134D01*
X164333341Y-84874019D01*
X164332526Y-84874558D01*
X164214809Y-84959182D01*
X164214544Y-84959377D01*
X164093595Y-85051166D01*
X163960984Y-85147381D01*
X163807832Y-85245656D01*
X163633030Y-85339439D01*
X162713322Y-84455000D01*
X163633030Y-83570561D01*
X163807832Y-83664343D01*
%TA.AperFunction,Conductor*%
D28*
G36*
X163807832Y-83664343D02*
G01*
X163960984Y-83762618D01*
X164093595Y-83858833D01*
X164214544Y-83950622D01*
X164214809Y-83950817D01*
X164332526Y-84035441D01*
X164333341Y-84035980D01*
X164456498Y-84110865D01*
X164457827Y-84111569D01*
X164595168Y-84174197D01*
X164596804Y-84174811D01*
X164757073Y-84222664D01*
X164758709Y-84223037D01*
X164950649Y-84253596D01*
X164952059Y-84253740D01*
X165172300Y-84263926D01*
X165172300Y-84646074D01*
X164952059Y-84656259D01*
X164950649Y-84656403D01*
X164758709Y-84686962D01*
X164757073Y-84687335D01*
X164596804Y-84735188D01*
X164595168Y-84735802D01*
X164457827Y-84798430D01*
X164456498Y-84799134D01*
X164333341Y-84874019D01*
X164332526Y-84874558D01*
X164214809Y-84959182D01*
X164214544Y-84959377D01*
X164093595Y-85051166D01*
X163960984Y-85147381D01*
X163807832Y-85245656D01*
X163633030Y-85339439D01*
X162713322Y-84455000D01*
X163633030Y-83570561D01*
X163807832Y-83664343D01*
G37*
%TD.AperFunction*%
%TD*%
D27*
%TO.N,Net-(BP?1-Pad5)*%
X171931678Y-84455000D02*
X171011970Y-85339439D01*
X170837167Y-85245656D01*
X170684015Y-85147381D01*
X170551404Y-85051166D01*
X170430455Y-84959377D01*
X170430190Y-84959182D01*
X170312473Y-84874558D01*
X170311658Y-84874019D01*
X170188501Y-84799134D01*
X170187172Y-84798430D01*
X170049831Y-84735802D01*
X170048195Y-84735188D01*
X169887926Y-84687335D01*
X169886290Y-84686962D01*
X169694350Y-84656403D01*
X169692940Y-84656259D01*
X169472700Y-84646074D01*
X169472700Y-84263926D01*
X169692940Y-84253740D01*
X169694350Y-84253596D01*
X169886290Y-84223037D01*
X169887926Y-84222664D01*
X170048195Y-84174811D01*
X170049831Y-84174197D01*
X170187172Y-84111569D01*
X170188501Y-84110865D01*
X170311658Y-84035980D01*
X170312473Y-84035441D01*
X170430190Y-83950817D01*
X170430455Y-83950622D01*
X170551404Y-83858833D01*
X170684015Y-83762618D01*
X170837167Y-83664343D01*
X171011970Y-83570561D01*
X171931678Y-84455000D01*
%TA.AperFunction,Conductor*%
D28*
G36*
X171931678Y-84455000D02*
G01*
X171011970Y-85339439D01*
X170837167Y-85245656D01*
X170684015Y-85147381D01*
X170551404Y-85051166D01*
X170430455Y-84959377D01*
X170430190Y-84959182D01*
X170312473Y-84874558D01*
X170311658Y-84874019D01*
X170188501Y-84799134D01*
X170187172Y-84798430D01*
X170049831Y-84735802D01*
X170048195Y-84735188D01*
X169887926Y-84687335D01*
X169886290Y-84686962D01*
X169694350Y-84656403D01*
X169692940Y-84656259D01*
X169472700Y-84646074D01*
X169472700Y-84263926D01*
X169692940Y-84253740D01*
X169694350Y-84253596D01*
X169886290Y-84223037D01*
X169887926Y-84222664D01*
X170048195Y-84174811D01*
X170049831Y-84174197D01*
X170187172Y-84111569D01*
X170188501Y-84110865D01*
X170311658Y-84035980D01*
X170312473Y-84035441D01*
X170430190Y-83950817D01*
X170430455Y-83950622D01*
X170551404Y-83858833D01*
X170684015Y-83762618D01*
X170837167Y-83664343D01*
X171011970Y-83570561D01*
X171931678Y-84455000D01*
G37*
%TD.AperFunction*%
%TD*%
D27*
%TO.N,+5V*%
X161267832Y-93189343D02*
X161420984Y-93287618D01*
X161553595Y-93383833D01*
X161674544Y-93475622D01*
X161674809Y-93475817D01*
X161792526Y-93560441D01*
X161793341Y-93560980D01*
X161916498Y-93635865D01*
X161917827Y-93636569D01*
X162055168Y-93699197D01*
X162056804Y-93699811D01*
X162217073Y-93747664D01*
X162218709Y-93748037D01*
X162410649Y-93778596D01*
X162412059Y-93778740D01*
X162632300Y-93788926D01*
X162632300Y-94171074D01*
X162412059Y-94181259D01*
X162410649Y-94181403D01*
X162218709Y-94211962D01*
X162217073Y-94212335D01*
X162056804Y-94260188D01*
X162055168Y-94260802D01*
X161917827Y-94323430D01*
X161916498Y-94324134D01*
X161793341Y-94399019D01*
X161792526Y-94399558D01*
X161674809Y-94484182D01*
X161674544Y-94484377D01*
X161553595Y-94576166D01*
X161420984Y-94672381D01*
X161267832Y-94770656D01*
X161093030Y-94864439D01*
X160173322Y-93980000D01*
X161093030Y-93095561D01*
X161267832Y-93189343D01*
%TA.AperFunction,Conductor*%
D28*
G36*
X161267832Y-93189343D02*
G01*
X161420984Y-93287618D01*
X161553595Y-93383833D01*
X161674544Y-93475622D01*
X161674809Y-93475817D01*
X161792526Y-93560441D01*
X161793341Y-93560980D01*
X161916498Y-93635865D01*
X161917827Y-93636569D01*
X162055168Y-93699197D01*
X162056804Y-93699811D01*
X162217073Y-93747664D01*
X162218709Y-93748037D01*
X162410649Y-93778596D01*
X162412059Y-93778740D01*
X162632300Y-93788926D01*
X162632300Y-94171074D01*
X162412059Y-94181259D01*
X162410649Y-94181403D01*
X162218709Y-94211962D01*
X162217073Y-94212335D01*
X162056804Y-94260188D01*
X162055168Y-94260802D01*
X161917827Y-94323430D01*
X161916498Y-94324134D01*
X161793341Y-94399019D01*
X161792526Y-94399558D01*
X161674809Y-94484182D01*
X161674544Y-94484377D01*
X161553595Y-94576166D01*
X161420984Y-94672381D01*
X161267832Y-94770656D01*
X161093030Y-94864439D01*
X160173322Y-93980000D01*
X161093030Y-93095561D01*
X161267832Y-93189343D01*
G37*
%TD.AperFunction*%
%TD*%
D27*
%TO.N,+5V*%
X168756678Y-93980000D02*
X167836970Y-94864439D01*
X167662167Y-94770656D01*
X167509015Y-94672381D01*
X167376404Y-94576166D01*
X167255455Y-94484377D01*
X167255190Y-94484182D01*
X167137473Y-94399558D01*
X167136658Y-94399019D01*
X167013501Y-94324134D01*
X167012172Y-94323430D01*
X166874831Y-94260802D01*
X166873195Y-94260188D01*
X166712926Y-94212335D01*
X166711290Y-94211962D01*
X166519350Y-94181403D01*
X166517940Y-94181259D01*
X166297700Y-94171074D01*
X166297700Y-93788926D01*
X166517940Y-93778740D01*
X166519350Y-93778596D01*
X166711290Y-93748037D01*
X166712926Y-93747664D01*
X166873195Y-93699811D01*
X166874831Y-93699197D01*
X167012172Y-93636569D01*
X167013501Y-93635865D01*
X167136658Y-93560980D01*
X167137473Y-93560441D01*
X167255190Y-93475817D01*
X167255455Y-93475622D01*
X167376404Y-93383833D01*
X167509015Y-93287618D01*
X167662167Y-93189343D01*
X167836970Y-93095561D01*
X168756678Y-93980000D01*
%TA.AperFunction,Conductor*%
D28*
G36*
X168756678Y-93980000D02*
G01*
X167836970Y-94864439D01*
X167662167Y-94770656D01*
X167509015Y-94672381D01*
X167376404Y-94576166D01*
X167255455Y-94484377D01*
X167255190Y-94484182D01*
X167137473Y-94399558D01*
X167136658Y-94399019D01*
X167013501Y-94324134D01*
X167012172Y-94323430D01*
X166874831Y-94260802D01*
X166873195Y-94260188D01*
X166712926Y-94212335D01*
X166711290Y-94211962D01*
X166519350Y-94181403D01*
X166517940Y-94181259D01*
X166297700Y-94171074D01*
X166297700Y-93788926D01*
X166517940Y-93778740D01*
X166519350Y-93778596D01*
X166711290Y-93748037D01*
X166712926Y-93747664D01*
X166873195Y-93699811D01*
X166874831Y-93699197D01*
X167012172Y-93636569D01*
X167013501Y-93635865D01*
X167136658Y-93560980D01*
X167137473Y-93560441D01*
X167255190Y-93475817D01*
X167255455Y-93475622D01*
X167376404Y-93383833D01*
X167509015Y-93287618D01*
X167662167Y-93189343D01*
X167836970Y-93095561D01*
X168756678Y-93980000D01*
G37*
%TD.AperFunction*%
%TD*%
D27*
%TO.N,+5V*%
X182091678Y-111760000D02*
X181171970Y-112644439D01*
X180997167Y-112550656D01*
X180844015Y-112452381D01*
X180711404Y-112356166D01*
X180590455Y-112264377D01*
X180590190Y-112264182D01*
X180472473Y-112179558D01*
X180471658Y-112179019D01*
X180348501Y-112104134D01*
X180347172Y-112103430D01*
X180209831Y-112040802D01*
X180208195Y-112040188D01*
X180047926Y-111992335D01*
X180046290Y-111991962D01*
X179854350Y-111961403D01*
X179852940Y-111961259D01*
X179632700Y-111951074D01*
X179632700Y-111568926D01*
X179852940Y-111558740D01*
X179854350Y-111558596D01*
X180046290Y-111528037D01*
X180047926Y-111527664D01*
X180208195Y-111479811D01*
X180209831Y-111479197D01*
X180347172Y-111416569D01*
X180348501Y-111415865D01*
X180471658Y-111340980D01*
X180472473Y-111340441D01*
X180590190Y-111255817D01*
X180590455Y-111255622D01*
X180711404Y-111163833D01*
X180844015Y-111067618D01*
X180997167Y-110969343D01*
X181171970Y-110875561D01*
X182091678Y-111760000D01*
%TA.AperFunction,Conductor*%
D28*
G36*
X182091678Y-111760000D02*
G01*
X181171970Y-112644439D01*
X180997167Y-112550656D01*
X180844015Y-112452381D01*
X180711404Y-112356166D01*
X180590455Y-112264377D01*
X180590190Y-112264182D01*
X180472473Y-112179558D01*
X180471658Y-112179019D01*
X180348501Y-112104134D01*
X180347172Y-112103430D01*
X180209831Y-112040802D01*
X180208195Y-112040188D01*
X180047926Y-111992335D01*
X180046290Y-111991962D01*
X179854350Y-111961403D01*
X179852940Y-111961259D01*
X179632700Y-111951074D01*
X179632700Y-111568926D01*
X179852940Y-111558740D01*
X179854350Y-111558596D01*
X180046290Y-111528037D01*
X180047926Y-111527664D01*
X180208195Y-111479811D01*
X180209831Y-111479197D01*
X180347172Y-111416569D01*
X180348501Y-111415865D01*
X180471658Y-111340980D01*
X180472473Y-111340441D01*
X180590190Y-111255817D01*
X180590455Y-111255622D01*
X180711404Y-111163833D01*
X180844015Y-111067618D01*
X180997167Y-110969343D01*
X181171970Y-110875561D01*
X182091678Y-111760000D01*
G37*
%TD.AperFunction*%
%TD*%
D27*
%TO.N,+5V*%
X175872832Y-110969343D02*
X176025984Y-111067618D01*
X176158595Y-111163833D01*
X176279544Y-111255622D01*
X176279809Y-111255817D01*
X176397526Y-111340441D01*
X176398341Y-111340980D01*
X176521498Y-111415865D01*
X176522827Y-111416569D01*
X176660168Y-111479197D01*
X176661804Y-111479811D01*
X176822073Y-111527664D01*
X176823709Y-111528037D01*
X177015649Y-111558596D01*
X177017059Y-111558740D01*
X177237300Y-111568926D01*
X177237300Y-111951074D01*
X177017059Y-111961259D01*
X177015649Y-111961403D01*
X176823709Y-111991962D01*
X176822073Y-111992335D01*
X176661804Y-112040188D01*
X176660168Y-112040802D01*
X176522827Y-112103430D01*
X176521498Y-112104134D01*
X176398341Y-112179019D01*
X176397526Y-112179558D01*
X176279809Y-112264182D01*
X176279544Y-112264377D01*
X176158595Y-112356166D01*
X176025984Y-112452381D01*
X175872832Y-112550656D01*
X175698030Y-112644439D01*
X174778322Y-111760000D01*
X175698030Y-110875561D01*
X175872832Y-110969343D01*
%TA.AperFunction,Conductor*%
D28*
G36*
X175872832Y-110969343D02*
G01*
X176025984Y-111067618D01*
X176158595Y-111163833D01*
X176279544Y-111255622D01*
X176279809Y-111255817D01*
X176397526Y-111340441D01*
X176398341Y-111340980D01*
X176521498Y-111415865D01*
X176522827Y-111416569D01*
X176660168Y-111479197D01*
X176661804Y-111479811D01*
X176822073Y-111527664D01*
X176823709Y-111528037D01*
X177015649Y-111558596D01*
X177017059Y-111558740D01*
X177237300Y-111568926D01*
X177237300Y-111951074D01*
X177017059Y-111961259D01*
X177015649Y-111961403D01*
X176823709Y-111991962D01*
X176822073Y-111992335D01*
X176661804Y-112040188D01*
X176660168Y-112040802D01*
X176522827Y-112103430D01*
X176521498Y-112104134D01*
X176398341Y-112179019D01*
X176397526Y-112179558D01*
X176279809Y-112264182D01*
X176279544Y-112264377D01*
X176158595Y-112356166D01*
X176025984Y-112452381D01*
X175872832Y-112550656D01*
X175698030Y-112644439D01*
X174778322Y-111760000D01*
X175698030Y-110875561D01*
X175872832Y-110969343D01*
G37*
%TD.AperFunction*%
%TD*%
D27*
%TO.N,Net-(J10-Pad3)*%
X161140832Y-116557343D02*
X161293984Y-116655618D01*
X161426595Y-116751833D01*
X161547544Y-116843622D01*
X161547809Y-116843817D01*
X161665526Y-116928441D01*
X161666341Y-116928980D01*
X161789498Y-117003865D01*
X161790827Y-117004569D01*
X161928168Y-117067197D01*
X161929804Y-117067811D01*
X162090073Y-117115664D01*
X162091709Y-117116037D01*
X162283649Y-117146596D01*
X162285059Y-117146740D01*
X162505300Y-117156926D01*
X162505300Y-117539074D01*
X162285059Y-117549259D01*
X162283649Y-117549403D01*
X162091709Y-117579962D01*
X162090073Y-117580335D01*
X161929804Y-117628188D01*
X161928168Y-117628802D01*
X161790827Y-117691430D01*
X161789498Y-117692134D01*
X161666341Y-117767019D01*
X161665526Y-117767558D01*
X161547809Y-117852182D01*
X161547544Y-117852377D01*
X161426595Y-117944166D01*
X161293984Y-118040381D01*
X161140832Y-118138656D01*
X160966030Y-118232439D01*
X160046322Y-117348000D01*
X160966030Y-116463561D01*
X161140832Y-116557343D01*
%TA.AperFunction,Conductor*%
D28*
G36*
X161140832Y-116557343D02*
G01*
X161293984Y-116655618D01*
X161426595Y-116751833D01*
X161547544Y-116843622D01*
X161547809Y-116843817D01*
X161665526Y-116928441D01*
X161666341Y-116928980D01*
X161789498Y-117003865D01*
X161790827Y-117004569D01*
X161928168Y-117067197D01*
X161929804Y-117067811D01*
X162090073Y-117115664D01*
X162091709Y-117116037D01*
X162283649Y-117146596D01*
X162285059Y-117146740D01*
X162505300Y-117156926D01*
X162505300Y-117539074D01*
X162285059Y-117549259D01*
X162283649Y-117549403D01*
X162091709Y-117579962D01*
X162090073Y-117580335D01*
X161929804Y-117628188D01*
X161928168Y-117628802D01*
X161790827Y-117691430D01*
X161789498Y-117692134D01*
X161666341Y-117767019D01*
X161665526Y-117767558D01*
X161547809Y-117852182D01*
X161547544Y-117852377D01*
X161426595Y-117944166D01*
X161293984Y-118040381D01*
X161140832Y-118138656D01*
X160966030Y-118232439D01*
X160046322Y-117348000D01*
X160966030Y-116463561D01*
X161140832Y-116557343D01*
G37*
%TD.AperFunction*%
%TD*%
D27*
%TO.N,Net-(J10-Pad3)*%
X166851678Y-117348000D02*
X165931970Y-118232439D01*
X165757167Y-118138656D01*
X165604015Y-118040381D01*
X165471404Y-117944166D01*
X165350455Y-117852377D01*
X165350190Y-117852182D01*
X165232473Y-117767558D01*
X165231658Y-117767019D01*
X165108501Y-117692134D01*
X165107172Y-117691430D01*
X164969831Y-117628802D01*
X164968195Y-117628188D01*
X164807926Y-117580335D01*
X164806290Y-117579962D01*
X164614350Y-117549403D01*
X164612940Y-117549259D01*
X164392700Y-117539074D01*
X164392700Y-117156926D01*
X164612940Y-117146740D01*
X164614350Y-117146596D01*
X164806290Y-117116037D01*
X164807926Y-117115664D01*
X164968195Y-117067811D01*
X164969831Y-117067197D01*
X165107172Y-117004569D01*
X165108501Y-117003865D01*
X165231658Y-116928980D01*
X165232473Y-116928441D01*
X165350190Y-116843817D01*
X165350455Y-116843622D01*
X165471404Y-116751833D01*
X165604015Y-116655618D01*
X165757167Y-116557343D01*
X165931970Y-116463561D01*
X166851678Y-117348000D01*
%TA.AperFunction,Conductor*%
D28*
G36*
X166851678Y-117348000D02*
G01*
X165931970Y-118232439D01*
X165757167Y-118138656D01*
X165604015Y-118040381D01*
X165471404Y-117944166D01*
X165350455Y-117852377D01*
X165350190Y-117852182D01*
X165232473Y-117767558D01*
X165231658Y-117767019D01*
X165108501Y-117692134D01*
X165107172Y-117691430D01*
X164969831Y-117628802D01*
X164968195Y-117628188D01*
X164807926Y-117580335D01*
X164806290Y-117579962D01*
X164614350Y-117549403D01*
X164612940Y-117549259D01*
X164392700Y-117539074D01*
X164392700Y-117156926D01*
X164612940Y-117146740D01*
X164614350Y-117146596D01*
X164806290Y-117116037D01*
X164807926Y-117115664D01*
X164968195Y-117067811D01*
X164969831Y-117067197D01*
X165107172Y-117004569D01*
X165108501Y-117003865D01*
X165231658Y-116928980D01*
X165232473Y-116928441D01*
X165350190Y-116843817D01*
X165350455Y-116843622D01*
X165471404Y-116751833D01*
X165604015Y-116655618D01*
X165757167Y-116557343D01*
X165931970Y-116463561D01*
X166851678Y-117348000D01*
G37*
%TD.AperFunction*%
%TD*%
D27*
%TO.N,Net-(Q1-Pad3)*%
X122121259Y-113812940D02*
X122121403Y-113814350D01*
X122151962Y-114006290D01*
X122152335Y-114007926D01*
X122200188Y-114168195D01*
X122200802Y-114169831D01*
X122263430Y-114307172D01*
X122264134Y-114308501D01*
X122339019Y-114431658D01*
X122339558Y-114432473D01*
X122424182Y-114550190D01*
X122424377Y-114550455D01*
X122516166Y-114671404D01*
X122612381Y-114804015D01*
X122710656Y-114957167D01*
X122804439Y-115131970D01*
X121920000Y-116051678D01*
X121035561Y-115131970D01*
X121129343Y-114957167D01*
X121227618Y-114804015D01*
X121323833Y-114671404D01*
X121415622Y-114550455D01*
X121415817Y-114550190D01*
X121500441Y-114432473D01*
X121500980Y-114431658D01*
X121575865Y-114308501D01*
X121576569Y-114307172D01*
X121639197Y-114169831D01*
X121639811Y-114168195D01*
X121687664Y-114007926D01*
X121688037Y-114006290D01*
X121718596Y-113814350D01*
X121718740Y-113812940D01*
X121728926Y-113592700D01*
X122111074Y-113592700D01*
X122121259Y-113812940D01*
%TA.AperFunction,Conductor*%
D28*
G36*
X122121259Y-113812940D02*
G01*
X122121403Y-113814350D01*
X122151962Y-114006290D01*
X122152335Y-114007926D01*
X122200188Y-114168195D01*
X122200802Y-114169831D01*
X122263430Y-114307172D01*
X122264134Y-114308501D01*
X122339019Y-114431658D01*
X122339558Y-114432473D01*
X122424182Y-114550190D01*
X122424377Y-114550455D01*
X122516166Y-114671404D01*
X122612381Y-114804015D01*
X122710656Y-114957167D01*
X122804439Y-115131970D01*
X121920000Y-116051678D01*
X121035561Y-115131970D01*
X121129343Y-114957167D01*
X121227618Y-114804015D01*
X121323833Y-114671404D01*
X121415622Y-114550455D01*
X121415817Y-114550190D01*
X121500441Y-114432473D01*
X121500980Y-114431658D01*
X121575865Y-114308501D01*
X121576569Y-114307172D01*
X121639197Y-114169831D01*
X121639811Y-114168195D01*
X121687664Y-114007926D01*
X121688037Y-114006290D01*
X121718596Y-113814350D01*
X121718740Y-113812940D01*
X121728926Y-113592700D01*
X122111074Y-113592700D01*
X122121259Y-113812940D01*
G37*
%TD.AperFunction*%
%TD*%
D27*
%TO.N,Net-(Q1-Pad3)*%
X122804439Y-107118030D02*
X122710656Y-107292832D01*
X122612381Y-107445984D01*
X122516166Y-107578595D01*
X122424377Y-107699544D01*
X122424182Y-107699809D01*
X122339558Y-107817526D01*
X122339019Y-107818341D01*
X122264134Y-107941498D01*
X122263430Y-107942827D01*
X122200802Y-108080168D01*
X122200188Y-108081804D01*
X122152335Y-108242073D01*
X122151962Y-108243709D01*
X122121403Y-108435649D01*
X122121259Y-108437059D01*
X122111074Y-108657300D01*
X121728926Y-108657300D01*
X121718740Y-108437059D01*
X121718596Y-108435649D01*
X121688037Y-108243709D01*
X121687664Y-108242073D01*
X121639811Y-108081804D01*
X121639197Y-108080168D01*
X121576569Y-107942827D01*
X121575865Y-107941498D01*
X121500980Y-107818341D01*
X121500441Y-107817526D01*
X121415817Y-107699809D01*
X121415622Y-107699544D01*
X121323833Y-107578595D01*
X121227618Y-107445984D01*
X121129343Y-107292832D01*
X121035561Y-107118030D01*
X121920000Y-106198322D01*
X122804439Y-107118030D01*
%TA.AperFunction,Conductor*%
D28*
G36*
X122804439Y-107118030D02*
G01*
X122710656Y-107292832D01*
X122612381Y-107445984D01*
X122516166Y-107578595D01*
X122424377Y-107699544D01*
X122424182Y-107699809D01*
X122339558Y-107817526D01*
X122339019Y-107818341D01*
X122264134Y-107941498D01*
X122263430Y-107942827D01*
X122200802Y-108080168D01*
X122200188Y-108081804D01*
X122152335Y-108242073D01*
X122151962Y-108243709D01*
X122121403Y-108435649D01*
X122121259Y-108437059D01*
X122111074Y-108657300D01*
X121728926Y-108657300D01*
X121718740Y-108437059D01*
X121718596Y-108435649D01*
X121688037Y-108243709D01*
X121687664Y-108242073D01*
X121639811Y-108081804D01*
X121639197Y-108080168D01*
X121576569Y-107942827D01*
X121575865Y-107941498D01*
X121500980Y-107818341D01*
X121500441Y-107817526D01*
X121415817Y-107699809D01*
X121415622Y-107699544D01*
X121323833Y-107578595D01*
X121227618Y-107445984D01*
X121129343Y-107292832D01*
X121035561Y-107118030D01*
X121920000Y-106198322D01*
X122804439Y-107118030D01*
G37*
%TD.AperFunction*%
%TD*%
M02*
