%TF.GenerationSoftware,KiCad,Pcbnew,(5.1.10)-1*%
%TF.CreationDate,2021-06-08T18:49:46-04:00*%
%TF.ProjectId,PSU_main,5053555f-6d61-4696-9e2e-6b696361645f,rev?*%
%TF.SameCoordinates,Original*%
%TF.FileFunction,Soldermask,Bot*%
%TF.FilePolarity,Negative*%
%FSLAX46Y46*%
G04 Gerber Fmt 4.6, Leading zero omitted, Abs format (unit mm)*
G04 Created by KiCad (PCBNEW (5.1.10)-1) date 2021-06-08 18:49:46*
%MOMM*%
%LPD*%
G01*
G04 APERTURE LIST*
%ADD10C,1.700000*%
%ADD11R,1.700000X1.700000*%
%ADD12O,1.600000X1.600000*%
%ADD13C,1.600000*%
%ADD14O,1.700000X1.700000*%
%ADD15C,1.550000*%
%ADD16R,1.550000X1.550000*%
%ADD17C,1.200000*%
%ADD18R,1.200000X1.200000*%
%ADD19R,1.600000X1.600000*%
%ADD20R,2.400000X2.400000*%
%ADD21O,2.400000X2.400000*%
%ADD22R,1.800000X1.800000*%
%ADD23O,1.800000X1.800000*%
G04 APERTURE END LIST*
D10*
%TO.C,BP1*%
X179705000Y-106045000D03*
D11*
X179705000Y-90805000D03*
D10*
X177165000Y-106045000D03*
X177165000Y-90805000D03*
X174625000Y-106045000D03*
X174625000Y-90805000D03*
X172085000Y-106045000D03*
X172085000Y-90805000D03*
X169545000Y-106045000D03*
X169545000Y-90805000D03*
X167005000Y-106045000D03*
X167005000Y-90805000D03*
X164465000Y-106045000D03*
X164465000Y-90805000D03*
X161925000Y-106045000D03*
X161925000Y-90805000D03*
X159385000Y-106045000D03*
X159385000Y-90805000D03*
X156845000Y-106045000D03*
X156845000Y-90805000D03*
X154305000Y-106045000D03*
X154305000Y-90805000D03*
X151765000Y-106045000D03*
X151765000Y-90805000D03*
X149225000Y-106045000D03*
X149225000Y-90805000D03*
X146685000Y-106045000D03*
X146685000Y-90805000D03*
X144145000Y-106045000D03*
X144145000Y-90805000D03*
X141605000Y-106045000D03*
X141605000Y-90805000D03*
X139065000Y-106045000D03*
X139065000Y-90805000D03*
X136525000Y-106045000D03*
X136525000Y-90805000D03*
X133985000Y-106045000D03*
X133985000Y-90805000D03*
X131445000Y-106045000D03*
X131445000Y-90805000D03*
%TD*%
D12*
%TO.C,R13*%
X118745000Y-86360000D03*
D13*
X118745000Y-83820000D03*
%TD*%
D12*
%TO.C,R21*%
X100330000Y-116205000D03*
D13*
X97790000Y-116205000D03*
%TD*%
D11*
%TO.C,J10*%
X140335000Y-114046000D03*
D14*
X142875000Y-114046000D03*
X145415000Y-114046000D03*
X147955000Y-114046000D03*
X150495000Y-114046000D03*
X153035000Y-114046000D03*
X155575000Y-114046000D03*
X158115000Y-114046000D03*
X160655000Y-114046000D03*
X163195000Y-114046000D03*
%TD*%
D15*
%TO.C,RV1*%
X175260000Y-119808000D03*
D16*
X175260000Y-114808000D03*
D15*
X170260000Y-117308000D03*
%TD*%
D11*
%TO.C,J13*%
X97790000Y-120650000D03*
%TD*%
D13*
%TO.C,C5*%
X143002000Y-118872000D03*
X140502000Y-118872000D03*
%TD*%
D14*
%TO.C,J12*%
X148590000Y-122174000D03*
D11*
X148590000Y-119634000D03*
%TD*%
D17*
%TO.C,C1*%
X116586000Y-91726000D03*
D18*
X116586000Y-93726000D03*
%TD*%
%TO.C,C2*%
X125476000Y-84836000D03*
D17*
X127476000Y-84836000D03*
%TD*%
D18*
%TO.C,C3*%
X88265000Y-107950000D03*
D17*
X88265000Y-109950000D03*
%TD*%
%TO.C,C4*%
X100425000Y-88900000D03*
D18*
X98425000Y-88900000D03*
%TD*%
D13*
%TO.C,C6*%
X95885000Y-107355000D03*
D19*
X95885000Y-109855000D03*
%TD*%
%TO.C,C7*%
X133350000Y-115570000D03*
D13*
X133350000Y-118070000D03*
%TD*%
D19*
%TO.C,C8*%
X109855000Y-103505000D03*
D13*
X107355000Y-103505000D03*
%TD*%
%TO.C,C9*%
X164425000Y-77470000D03*
X161925000Y-77470000D03*
%TD*%
%TO.C,C10*%
X169505000Y-77470000D03*
X167005000Y-77470000D03*
%TD*%
%TO.C,C11*%
X176530000Y-81280000D03*
X176530000Y-78780000D03*
%TD*%
D20*
%TO.C,D1*%
X116205000Y-120015000D03*
D21*
X126365000Y-120015000D03*
%TD*%
D11*
%TO.C,J1*%
X88265000Y-86995000D03*
%TD*%
%TO.C,J2*%
X88265000Y-91440000D03*
%TD*%
%TO.C,J4*%
X124968000Y-80010000D03*
%TD*%
%TO.C,J5*%
X105918000Y-79756000D03*
%TD*%
%TO.C,J6*%
X172720000Y-81026000D03*
D14*
X170180000Y-81026000D03*
X167640000Y-81026000D03*
X165100000Y-81026000D03*
X162560000Y-81026000D03*
X160020000Y-81026000D03*
X157480000Y-81026000D03*
X154940000Y-81026000D03*
%TD*%
%TO.C,J7*%
X105410000Y-114300000D03*
D11*
X105410000Y-116840000D03*
%TD*%
%TO.C,J8*%
X129540000Y-78740000D03*
%TD*%
D14*
%TO.C,J9*%
X137160000Y-78740000D03*
D11*
X134620000Y-78740000D03*
%TD*%
D14*
%TO.C,J11*%
X86995000Y-116205000D03*
D11*
X86995000Y-113665000D03*
%TD*%
%TO.C,J14*%
X106045000Y-121285000D03*
D14*
X108585000Y-121285000D03*
X111125000Y-121285000D03*
%TD*%
D22*
%TO.C,Q1*%
X110490000Y-115570000D03*
D23*
X113030000Y-115570000D03*
X115570000Y-115570000D03*
%TD*%
D13*
%TO.C,R2*%
X107950000Y-97790000D03*
D12*
X123190000Y-97790000D03*
%TD*%
%TO.C,R17*%
X126365000Y-91440000D03*
D13*
X126365000Y-106680000D03*
%TD*%
D12*
%TO.C,R18*%
X149860000Y-82550000D03*
D13*
X134620000Y-82550000D03*
%TD*%
%TO.C,U1*%
G36*
G01*
X97515000Y-100480000D02*
X97515000Y-100180000D01*
G75*
G02*
X97665000Y-100030000I150000J0D01*
G01*
X99315000Y-100030000D01*
G75*
G02*
X99465000Y-100180000I0J-150000D01*
G01*
X99465000Y-100480000D01*
G75*
G02*
X99315000Y-100630000I-150000J0D01*
G01*
X97665000Y-100630000D01*
G75*
G02*
X97515000Y-100480000I0J150000D01*
G01*
G37*
G36*
G01*
X97515000Y-99210000D02*
X97515000Y-98910000D01*
G75*
G02*
X97665000Y-98760000I150000J0D01*
G01*
X99315000Y-98760000D01*
G75*
G02*
X99465000Y-98910000I0J-150000D01*
G01*
X99465000Y-99210000D01*
G75*
G02*
X99315000Y-99360000I-150000J0D01*
G01*
X97665000Y-99360000D01*
G75*
G02*
X97515000Y-99210000I0J150000D01*
G01*
G37*
G36*
G01*
X97515000Y-97940000D02*
X97515000Y-97640000D01*
G75*
G02*
X97665000Y-97490000I150000J0D01*
G01*
X99315000Y-97490000D01*
G75*
G02*
X99465000Y-97640000I0J-150000D01*
G01*
X99465000Y-97940000D01*
G75*
G02*
X99315000Y-98090000I-150000J0D01*
G01*
X97665000Y-98090000D01*
G75*
G02*
X97515000Y-97940000I0J150000D01*
G01*
G37*
G36*
G01*
X97515000Y-96670000D02*
X97515000Y-96370000D01*
G75*
G02*
X97665000Y-96220000I150000J0D01*
G01*
X99315000Y-96220000D01*
G75*
G02*
X99465000Y-96370000I0J-150000D01*
G01*
X99465000Y-96670000D01*
G75*
G02*
X99315000Y-96820000I-150000J0D01*
G01*
X97665000Y-96820000D01*
G75*
G02*
X97515000Y-96670000I0J150000D01*
G01*
G37*
G36*
G01*
X97515000Y-95400000D02*
X97515000Y-95100000D01*
G75*
G02*
X97665000Y-94950000I150000J0D01*
G01*
X99315000Y-94950000D01*
G75*
G02*
X99465000Y-95100000I0J-150000D01*
G01*
X99465000Y-95400000D01*
G75*
G02*
X99315000Y-95550000I-150000J0D01*
G01*
X97665000Y-95550000D01*
G75*
G02*
X97515000Y-95400000I0J150000D01*
G01*
G37*
G36*
G01*
X97515000Y-94130000D02*
X97515000Y-93830000D01*
G75*
G02*
X97665000Y-93680000I150000J0D01*
G01*
X99315000Y-93680000D01*
G75*
G02*
X99465000Y-93830000I0J-150000D01*
G01*
X99465000Y-94130000D01*
G75*
G02*
X99315000Y-94280000I-150000J0D01*
G01*
X97665000Y-94280000D01*
G75*
G02*
X97515000Y-94130000I0J150000D01*
G01*
G37*
G36*
G01*
X97515000Y-92860000D02*
X97515000Y-92560000D01*
G75*
G02*
X97665000Y-92410000I150000J0D01*
G01*
X99315000Y-92410000D01*
G75*
G02*
X99465000Y-92560000I0J-150000D01*
G01*
X99465000Y-92860000D01*
G75*
G02*
X99315000Y-93010000I-150000J0D01*
G01*
X97665000Y-93010000D01*
G75*
G02*
X97515000Y-92860000I0J150000D01*
G01*
G37*
G36*
G01*
X102465000Y-92860000D02*
X102465000Y-92560000D01*
G75*
G02*
X102615000Y-92410000I150000J0D01*
G01*
X104265000Y-92410000D01*
G75*
G02*
X104415000Y-92560000I0J-150000D01*
G01*
X104415000Y-92860000D01*
G75*
G02*
X104265000Y-93010000I-150000J0D01*
G01*
X102615000Y-93010000D01*
G75*
G02*
X102465000Y-92860000I0J150000D01*
G01*
G37*
G36*
G01*
X102465000Y-94130000D02*
X102465000Y-93830000D01*
G75*
G02*
X102615000Y-93680000I150000J0D01*
G01*
X104265000Y-93680000D01*
G75*
G02*
X104415000Y-93830000I0J-150000D01*
G01*
X104415000Y-94130000D01*
G75*
G02*
X104265000Y-94280000I-150000J0D01*
G01*
X102615000Y-94280000D01*
G75*
G02*
X102465000Y-94130000I0J150000D01*
G01*
G37*
G36*
G01*
X102465000Y-95400000D02*
X102465000Y-95100000D01*
G75*
G02*
X102615000Y-94950000I150000J0D01*
G01*
X104265000Y-94950000D01*
G75*
G02*
X104415000Y-95100000I0J-150000D01*
G01*
X104415000Y-95400000D01*
G75*
G02*
X104265000Y-95550000I-150000J0D01*
G01*
X102615000Y-95550000D01*
G75*
G02*
X102465000Y-95400000I0J150000D01*
G01*
G37*
G36*
G01*
X102465000Y-96670000D02*
X102465000Y-96370000D01*
G75*
G02*
X102615000Y-96220000I150000J0D01*
G01*
X104265000Y-96220000D01*
G75*
G02*
X104415000Y-96370000I0J-150000D01*
G01*
X104415000Y-96670000D01*
G75*
G02*
X104265000Y-96820000I-150000J0D01*
G01*
X102615000Y-96820000D01*
G75*
G02*
X102465000Y-96670000I0J150000D01*
G01*
G37*
G36*
G01*
X102465000Y-97940000D02*
X102465000Y-97640000D01*
G75*
G02*
X102615000Y-97490000I150000J0D01*
G01*
X104265000Y-97490000D01*
G75*
G02*
X104415000Y-97640000I0J-150000D01*
G01*
X104415000Y-97940000D01*
G75*
G02*
X104265000Y-98090000I-150000J0D01*
G01*
X102615000Y-98090000D01*
G75*
G02*
X102465000Y-97940000I0J150000D01*
G01*
G37*
G36*
G01*
X102465000Y-99210000D02*
X102465000Y-98910000D01*
G75*
G02*
X102615000Y-98760000I150000J0D01*
G01*
X104265000Y-98760000D01*
G75*
G02*
X104415000Y-98910000I0J-150000D01*
G01*
X104415000Y-99210000D01*
G75*
G02*
X104265000Y-99360000I-150000J0D01*
G01*
X102615000Y-99360000D01*
G75*
G02*
X102465000Y-99210000I0J150000D01*
G01*
G37*
G36*
G01*
X102465000Y-100480000D02*
X102465000Y-100180000D01*
G75*
G02*
X102615000Y-100030000I150000J0D01*
G01*
X104265000Y-100030000D01*
G75*
G02*
X104415000Y-100180000I0J-150000D01*
G01*
X104415000Y-100480000D01*
G75*
G02*
X104265000Y-100630000I-150000J0D01*
G01*
X102615000Y-100630000D01*
G75*
G02*
X102465000Y-100480000I0J150000D01*
G01*
G37*
%TD*%
%TO.C,R9*%
X93345000Y-100965000D03*
D12*
X93345000Y-103505000D03*
%TD*%
D13*
%TO.C,R1*%
X93345000Y-95885000D03*
D12*
X90805000Y-95885000D03*
%TD*%
D13*
%TO.C,R4*%
X93980000Y-91440000D03*
D12*
X91440000Y-91440000D03*
%TD*%
%TO.C,R3*%
X87630000Y-104775000D03*
D13*
X87630000Y-102235000D03*
%TD*%
%TO.C,R5*%
X87630000Y-98425000D03*
D12*
X87630000Y-95885000D03*
%TD*%
D13*
%TO.C,R11*%
X108585000Y-93980000D03*
D12*
X108585000Y-91440000D03*
%TD*%
%TO.C,R7*%
X112268000Y-91440000D03*
D13*
X112268000Y-93980000D03*
%TD*%
%TO.C,R16*%
X108458000Y-87630000D03*
D12*
X105918000Y-87630000D03*
%TD*%
D13*
%TO.C,R6*%
X94742000Y-82854800D03*
D12*
X92202000Y-82854800D03*
%TD*%
D13*
%TO.C,R10*%
X92710000Y-86360000D03*
D12*
X95250000Y-86360000D03*
%TD*%
D13*
%TO.C,R15*%
X98425000Y-83820000D03*
D12*
X113665000Y-83820000D03*
%TD*%
D13*
%TO.C,R14*%
X101600000Y-109855000D03*
D12*
X116840000Y-109855000D03*
%TD*%
D13*
%TO.C,R8*%
X122936000Y-88900000D03*
D12*
X122936000Y-91440000D03*
%TD*%
D13*
%TO.C,R12*%
X120904000Y-80010000D03*
D12*
X118364000Y-80010000D03*
%TD*%
D13*
%TO.C,R19*%
X157734000Y-120904000D03*
D12*
X160274000Y-120904000D03*
%TD*%
D13*
%TO.C,R20*%
X93345000Y-116205000D03*
D12*
X90805000Y-116205000D03*
%TD*%
M02*
