M48
; DRILL file {KiCad (5.1.10)-1} date 06/08/21 18:50:21
; FORMAT={-:-/ absolute / inch / decimal}
; #@! TF.CreationDate,2021-06-08T18:50:21-04:00
; #@! TF.GenerationSoftware,Kicad,Pcbnew,(5.1.10)-1
; #@! TF.FileFunction,Plated,1,2,PTH
FMAT,2
INCH
T1C0.0236
T2C0.0315
T3C0.0394
T4C0.0472
T5C0.1181
%
G90
G05
T1
X3.475Y-4.25
X3.475Y-4.3287
X3.875Y-3.5
X3.9537Y-3.5
X4.59Y-3.6113
X4.59Y-3.69
X4.94Y-3.34
X5.0187Y-3.34
T2
X3.45Y-3.775
X3.45Y-3.875
X3.45Y-4.025
X3.45Y-4.125
X3.575Y-3.775
X3.575Y-4.575
X3.6Y-3.6
X3.63Y-3.262
X3.65Y-3.4
X3.675Y-3.775
X3.675Y-3.975
X3.675Y-4.075
X3.675Y-4.575
X3.7Y-3.6
X3.73Y-3.262
X3.75Y-3.4
X3.775Y-4.2266
X3.775Y-4.325
X3.85Y-4.575
X3.875Y-3.3
X3.95Y-4.575
X4.0Y-4.325
X4.17Y-3.45
X4.2266Y-4.075
X4.25Y-3.85
X4.27Y-3.45
X4.275Y-3.6
X4.275Y-3.7
X4.325Y-4.075
X4.42Y-3.6
X4.42Y-3.7
X4.475Y-3.3
X4.6Y-4.325
X4.66Y-3.15
X4.675Y-3.3
X4.675Y-3.4
X4.76Y-3.15
X4.84Y-3.5
X4.84Y-3.6
X4.85Y-3.85
X4.975Y-3.6
X4.975Y-4.2
X5.25Y-4.55
X5.25Y-4.6484
X5.3Y-3.25
X5.5316Y-4.68
X5.63Y-4.68
X5.9Y-3.25
X6.21Y-4.76
X6.31Y-4.76
X6.375Y-3.05
X6.4734Y-3.05
X6.575Y-3.05
X6.6734Y-3.05
X6.95Y-3.1016
X6.95Y-3.2
T3
X3.425Y-4.475
X3.425Y-4.575
X3.475Y-3.425
X3.475Y-3.6
X3.85Y-4.75
X4.15Y-4.5
X4.15Y-4.6
X4.17Y-3.14
X4.175Y-4.775
X4.275Y-4.775
X4.35Y-4.55
X4.375Y-4.775
X4.45Y-4.55
X4.55Y-4.55
X4.8Y-4.2
X4.8Y-4.55
X4.92Y-3.15
X5.1Y-3.1
X5.175Y-3.575
X5.175Y-4.175
X5.275Y-3.575
X5.275Y-4.175
X5.3Y-3.1
X5.375Y-3.575
X5.375Y-4.175
X5.4Y-3.1
X5.475Y-3.575
X5.475Y-4.175
X5.525Y-4.49
X5.575Y-3.575
X5.575Y-4.175
X5.625Y-4.49
X5.675Y-3.575
X5.675Y-4.175
X5.725Y-4.49
X5.775Y-3.575
X5.775Y-4.175
X5.825Y-4.49
X5.85Y-4.71
X5.85Y-4.81
X5.875Y-3.575
X5.875Y-4.175
X5.925Y-4.49
X5.975Y-3.575
X5.975Y-4.175
X6.025Y-4.49
X6.075Y-3.575
X6.075Y-4.175
X6.1Y-3.19
X6.1Y-3.37
X6.125Y-4.49
X6.175Y-3.575
X6.175Y-4.175
X6.2Y-3.19
X6.225Y-4.49
X6.275Y-3.575
X6.275Y-4.175
X6.3Y-3.19
X6.32Y-4.62
X6.325Y-3.7
X6.325Y-4.49
X6.375Y-3.575
X6.375Y-4.175
X6.4Y-3.19
X6.425Y-3.325
X6.425Y-4.49
X6.475Y-3.575
X6.475Y-4.175
X6.5Y-3.19
X6.55Y-4.62
X6.575Y-3.575
X6.575Y-4.175
X6.6Y-3.19
X6.625Y-3.7
X6.675Y-3.575
X6.675Y-4.175
X6.7Y-3.19
X6.7031Y-4.6184
X6.75Y-3.325
X6.775Y-3.575
X6.775Y-4.175
X6.8Y-3.19
X6.875Y-3.575
X6.875Y-4.175
X6.89Y-3.37
X6.9Y-4.4
X6.9Y-4.52
X6.9Y-4.7169
X6.975Y-3.575
X6.975Y-4.175
X7.075Y-3.575
X7.075Y-3.95
X7.075Y-4.175
X7.15Y-4.4
X7.23Y-3.95
T4
X4.575Y-4.725
X4.975Y-4.725
T5
X3.4455Y-3.0985
X3.4515Y-4.7525
X7.15Y-3.0995
X7.1515Y-4.7495
T0
M30
