%TF.GenerationSoftware,KiCad,Pcbnew,(5.1.10)-1*%
%TF.CreationDate,2021-06-08T18:49:46-04:00*%
%TF.ProjectId,PSU_main,5053555f-6d61-4696-9e2e-6b696361645f,rev?*%
%TF.SameCoordinates,Original*%
%TF.FileFunction,Legend,Top*%
%TF.FilePolarity,Positive*%
%FSLAX46Y46*%
G04 Gerber Fmt 4.6, Leading zero omitted, Abs format (unit mm)*
G04 Created by KiCad (PCBNEW (5.1.10)-1) date 2021-06-08 18:49:46*
%MOMM*%
%LPD*%
G01*
G04 APERTURE LIST*
%ADD10C,0.120000*%
%ADD11C,0.100000*%
%ADD12C,0.150000*%
G04 APERTURE END LIST*
D10*
%TO.C,BP1*%
X181035000Y-89475000D02*
X181035000Y-90805000D01*
X179705000Y-89475000D02*
X181035000Y-89475000D01*
X130175000Y-104775000D02*
X180975000Y-104775000D01*
X130175000Y-107315000D02*
X130175000Y-104775000D01*
X180975000Y-107315000D02*
X130175000Y-107315000D01*
X180975000Y-104775000D02*
X180975000Y-107315000D01*
X130115000Y-89475000D02*
X178435000Y-89475000D01*
X130115000Y-92135000D02*
X130115000Y-89475000D01*
X178435000Y-92135000D02*
X130115000Y-92135000D01*
X178435000Y-89475000D02*
X178435000Y-92135000D01*
D11*
G36*
X135409940Y-101988620D02*
G01*
X134901940Y-101988620D01*
X134901940Y-102496620D01*
X135409940Y-102496620D01*
X135409940Y-101988620D01*
G37*
X135409940Y-101988620D02*
X134901940Y-101988620D01*
X134901940Y-102496620D01*
X135409940Y-102496620D01*
X135409940Y-101988620D01*
G36*
X135409940Y-99448620D02*
G01*
X134901940Y-99448620D01*
X134901940Y-99956620D01*
X135409940Y-99956620D01*
X135409940Y-99448620D01*
G37*
X135409940Y-99448620D02*
X134901940Y-99448620D01*
X134901940Y-99956620D01*
X135409940Y-99956620D01*
X135409940Y-99448620D01*
G36*
X135409940Y-96908620D02*
G01*
X134901940Y-96908620D01*
X134901940Y-97416620D01*
X135409940Y-97416620D01*
X135409940Y-96908620D01*
G37*
X135409940Y-96908620D02*
X134901940Y-96908620D01*
X134901940Y-97416620D01*
X135409940Y-97416620D01*
X135409940Y-96908620D01*
G36*
X135409940Y-94368620D02*
G01*
X134901940Y-94368620D01*
X134901940Y-94876620D01*
X135409940Y-94876620D01*
X135409940Y-94368620D01*
G37*
X135409940Y-94368620D02*
X134901940Y-94368620D01*
X134901940Y-94876620D01*
X135409940Y-94876620D01*
X135409940Y-94368620D01*
D10*
X136585000Y-103565000D02*
X136585000Y-93285000D01*
X133925000Y-103565000D02*
X136585000Y-103565000D01*
X133925000Y-93285000D02*
X133925000Y-103565000D01*
X136585000Y-93285000D02*
X133925000Y-93285000D01*
X129000000Y-87050000D02*
X182150000Y-87050000D01*
X129000000Y-109800000D02*
X129000000Y-87050000D01*
X182150000Y-109800000D02*
X129000000Y-109800000D01*
X182150000Y-87050000D02*
X182150000Y-109800000D01*
X155849848Y-98502586D02*
X155828766Y-98360003D01*
X155828766Y-98360003D02*
X155766771Y-98265255D01*
X155633551Y-98854227D02*
X155435763Y-98820512D01*
X155435763Y-98820512D02*
X155306663Y-98729825D01*
X155865677Y-98173786D02*
X155969432Y-98347176D01*
X155969432Y-98347176D02*
X155986361Y-98505667D01*
X157185022Y-96900335D02*
X157336522Y-96885050D01*
X157336522Y-96885050D02*
X157442431Y-96832025D01*
X157443600Y-96692112D02*
X157397673Y-96667298D01*
X157397673Y-96667298D02*
X157345242Y-96670551D01*
X157345242Y-96670551D02*
X157275004Y-96713891D01*
X181433500Y-102121427D02*
X181425331Y-102116486D01*
X181425331Y-102116486D02*
X181425000Y-102114896D01*
X181433500Y-94728572D02*
X181425331Y-94733513D01*
X181425331Y-94733513D02*
X181425000Y-94735103D01*
X155291790Y-95138623D02*
X155281257Y-95229185D01*
X155281257Y-95229185D02*
X155290403Y-95263932D01*
X155290403Y-95263932D02*
X155310700Y-95293515D01*
X155589038Y-95217026D02*
X155570041Y-95323398D01*
X155570041Y-95323398D02*
X155522216Y-95393483D01*
X155581920Y-95087524D02*
X155586916Y-95159997D01*
X155586916Y-95159997D02*
X155589038Y-95217026D01*
X155578308Y-94947080D02*
X155578282Y-95025755D01*
X155578282Y-95025755D02*
X155581920Y-95087524D01*
X155594881Y-94912872D02*
X155582879Y-94930741D01*
X155582879Y-94930741D02*
X155578308Y-94947080D01*
X142228067Y-101584145D02*
G75*
G03*
X142228067Y-101584145I-425876J0D01*
G01*
X156833062Y-96176761D02*
X156904168Y-96136271D01*
X156904168Y-96136271D02*
X156967238Y-96123962D01*
X156967238Y-96123962D02*
X157067905Y-96144459D01*
X157067905Y-96144459D02*
X157133710Y-96191847D01*
X156828919Y-96656842D02*
X156846869Y-96632332D01*
X156846869Y-96632332D02*
X156856249Y-96603451D01*
X156856249Y-96603451D02*
X156851394Y-96543152D01*
X156851394Y-96543152D02*
X156785468Y-96441927D01*
X156873856Y-96353538D02*
X156952713Y-96405222D01*
X156952713Y-96405222D02*
X156999494Y-96410137D01*
X156999494Y-96410137D02*
X157022158Y-96403399D01*
X157022158Y-96403399D02*
X157041497Y-96389871D01*
X151806424Y-98559498D02*
G75*
G03*
X151806424Y-98559498I-250000J0D01*
G01*
X156488963Y-99580457D02*
X156577517Y-99522659D01*
X156577517Y-99522659D02*
X156655860Y-99493449D01*
X156329397Y-98937729D02*
X156249218Y-98987435D01*
X156249218Y-98987435D02*
X156175673Y-99000514D01*
X155750942Y-98849872D02*
X155859969Y-98787608D01*
X155859969Y-98787608D02*
X155959271Y-98784112D01*
X155959271Y-98784112D02*
X155981628Y-98691495D01*
X155981628Y-98691495D02*
X156024925Y-98630282D01*
X155865677Y-98173786D02*
X155969432Y-98347176D01*
X155969432Y-98347176D02*
X155986361Y-98505667D01*
X155849848Y-98502586D02*
X155828766Y-98360003D01*
X155828766Y-98360003D02*
X155766771Y-98265255D01*
X155633551Y-98854227D02*
X155435763Y-98820512D01*
X155435763Y-98820512D02*
X155306663Y-98729825D01*
X155044898Y-97638569D02*
X155116004Y-97598079D01*
X155116004Y-97598079D02*
X155179074Y-97585769D01*
X155179074Y-97585769D02*
X155279741Y-97606266D01*
X155279741Y-97606266D02*
X155345545Y-97653654D01*
X155040754Y-98118649D02*
X155058704Y-98094139D01*
X155058704Y-98094139D02*
X155068084Y-98065258D01*
X155068084Y-98065258D02*
X155063230Y-98004959D01*
X155063230Y-98004959D02*
X154997304Y-97903734D01*
X155085692Y-97815345D02*
X155164549Y-97867029D01*
X155164549Y-97867029D02*
X155211330Y-97871944D01*
X155211330Y-97871944D02*
X155233994Y-97865206D01*
X155233994Y-97865206D02*
X155253333Y-97851678D01*
X154717160Y-97169537D02*
X154841990Y-97177776D01*
X154841990Y-97177776D02*
X154924320Y-97232429D01*
X154924320Y-97232429D02*
X154965428Y-97284733D01*
X154965428Y-97284733D02*
X154990272Y-97346348D01*
X154990272Y-97346348D02*
X154994756Y-97412609D01*
X154994756Y-97412609D02*
X154980397Y-97477570D01*
X154980397Y-97477570D02*
X154915535Y-97593459D01*
X154915535Y-97593459D02*
X154827114Y-97693174D01*
X154827114Y-97693174D02*
X154727916Y-97781220D01*
X154727916Y-97781220D02*
X154612810Y-97846233D01*
X154612810Y-97846233D02*
X154548461Y-97861884D01*
X154548461Y-97861884D02*
X154482436Y-97859126D01*
X154482436Y-97859126D02*
X154421304Y-97834035D01*
X154421304Y-97834035D02*
X154369555Y-97792717D01*
X154369555Y-97792717D02*
X154328443Y-97741418D01*
X154328443Y-97741418D02*
X154302759Y-97681026D01*
X154302759Y-97681026D02*
X154297734Y-97615594D01*
X154297734Y-97615594D02*
X154311239Y-97551271D01*
X154311239Y-97551271D02*
X154374398Y-97436315D01*
X154374398Y-97436315D02*
X154461768Y-97337815D01*
X154461768Y-97337815D02*
X154593893Y-97225801D01*
X154593893Y-97225801D02*
X154717160Y-97169537D01*
X157443600Y-96692112D02*
X157397673Y-96667298D01*
X157397673Y-96667298D02*
X157345242Y-96670551D01*
X157345242Y-96670551D02*
X157275004Y-96713891D01*
X157185022Y-96900335D02*
X157336522Y-96885050D01*
X157336522Y-96885050D02*
X157442431Y-96832025D01*
X156833062Y-96176761D02*
X156904168Y-96136271D01*
X156904168Y-96136271D02*
X156967238Y-96123962D01*
X156967238Y-96123962D02*
X157067905Y-96144459D01*
X157067905Y-96144459D02*
X157133710Y-96191847D01*
X156828919Y-96656842D02*
X156846869Y-96632332D01*
X156846869Y-96632332D02*
X156856249Y-96603451D01*
X156856249Y-96603451D02*
X156851394Y-96543152D01*
X156851394Y-96543152D02*
X156785468Y-96441927D01*
X156873856Y-96353538D02*
X156952713Y-96405222D01*
X156952713Y-96405222D02*
X156999494Y-96410137D01*
X156999494Y-96410137D02*
X157022158Y-96403399D01*
X157022158Y-96403399D02*
X157041497Y-96389871D01*
X155594881Y-94912872D02*
X155582879Y-94930741D01*
X155582879Y-94930741D02*
X155578308Y-94947080D01*
X155578308Y-94947080D02*
X155578282Y-95025755D01*
X155578282Y-95025755D02*
X155581920Y-95087524D01*
X155581920Y-95087524D02*
X155586916Y-95159997D01*
X155586916Y-95159997D02*
X155589038Y-95217026D01*
X155589038Y-95217026D02*
X155570041Y-95323398D01*
X155570041Y-95323398D02*
X155522216Y-95393483D01*
X155291790Y-95138623D02*
X155281257Y-95229185D01*
X155281257Y-95229185D02*
X155290403Y-95263932D01*
X155290403Y-95263932D02*
X155310700Y-95293515D01*
X154731926Y-97597987D02*
X154832437Y-97476389D01*
X154832437Y-97476389D02*
X154857191Y-97402089D01*
X154857191Y-97402089D02*
X154852521Y-97363056D01*
X154852521Y-97363056D02*
X154831469Y-97329953D01*
X154831469Y-97329953D02*
X154797448Y-97307581D01*
X154797448Y-97307581D02*
X154757275Y-97301047D01*
X154757275Y-97301047D02*
X154681011Y-97328847D01*
X154681011Y-97328847D02*
X154555893Y-97434064D01*
X154555893Y-97434064D02*
X154458632Y-97553762D01*
X154458632Y-97553762D02*
X154436791Y-97627121D01*
X154436791Y-97627121D02*
X154443141Y-97665038D01*
X154443141Y-97665038D02*
X154464318Y-97697105D01*
X154558868Y-97718777D02*
X154662323Y-97660817D01*
X154662323Y-97660817D02*
X154731926Y-97597987D01*
X156329397Y-98937729D02*
X156249218Y-98987435D01*
X156249218Y-98987435D02*
X156175673Y-99000514D01*
X155959271Y-98784112D02*
X155981628Y-98691495D01*
X155981628Y-98691495D02*
X156024925Y-98630282D01*
X155750942Y-98849872D02*
X155859969Y-98787608D01*
X155859969Y-98787608D02*
X155959271Y-98784112D01*
X155085692Y-97815345D02*
X155164549Y-97867029D01*
X155164549Y-97867029D02*
X155211330Y-97871944D01*
X155211330Y-97871944D02*
X155233994Y-97865206D01*
X155233994Y-97865206D02*
X155253333Y-97851678D01*
X155040754Y-98118649D02*
X155058704Y-98094139D01*
X155058704Y-98094139D02*
X155068084Y-98065258D01*
X155068084Y-98065258D02*
X155063230Y-98004959D01*
X155063230Y-98004959D02*
X154997304Y-97903734D01*
X155179074Y-97585769D02*
X155279741Y-97606266D01*
X155279741Y-97606266D02*
X155345545Y-97653654D01*
X155044898Y-97638569D02*
X155116004Y-97598079D01*
X155116004Y-97598079D02*
X155179074Y-97585769D01*
X154717160Y-97169537D02*
X154841990Y-97177776D01*
X154841990Y-97177776D02*
X154924320Y-97232429D01*
X154461768Y-97337815D02*
X154593893Y-97225801D01*
X154593893Y-97225801D02*
X154717160Y-97169537D01*
X154369555Y-97792717D02*
X154328443Y-97741418D01*
X154328443Y-97741418D02*
X154302759Y-97681026D01*
X154302759Y-97681026D02*
X154297734Y-97615594D01*
X154297734Y-97615594D02*
X154311239Y-97551271D01*
X154311239Y-97551271D02*
X154374398Y-97436315D01*
X154374398Y-97436315D02*
X154461768Y-97337815D01*
X154827114Y-97693174D02*
X154727916Y-97781220D01*
X154727916Y-97781220D02*
X154612810Y-97846233D01*
X154612810Y-97846233D02*
X154548461Y-97861884D01*
X154548461Y-97861884D02*
X154482436Y-97859126D01*
X154482436Y-97859126D02*
X154421304Y-97834035D01*
X154421304Y-97834035D02*
X154369555Y-97792717D01*
X154924320Y-97232429D02*
X154965428Y-97284733D01*
X154965428Y-97284733D02*
X154990272Y-97346348D01*
X154990272Y-97346348D02*
X154994756Y-97412609D01*
X154994756Y-97412609D02*
X154980397Y-97477570D01*
X154980397Y-97477570D02*
X154915535Y-97593459D01*
X154915535Y-97593459D02*
X154827114Y-97693174D01*
X154831469Y-97329953D02*
X154797448Y-97307581D01*
X154797448Y-97307581D02*
X154757275Y-97301047D01*
X154757275Y-97301047D02*
X154681011Y-97328847D01*
X154681011Y-97328847D02*
X154555893Y-97434064D01*
X154731926Y-97597987D02*
X154832437Y-97476389D01*
X154832437Y-97476389D02*
X154857191Y-97402089D01*
X154857191Y-97402089D02*
X154852521Y-97363056D01*
X154852521Y-97363056D02*
X154831469Y-97329953D01*
X154558868Y-97718777D02*
X154662323Y-97660817D01*
X154662323Y-97660817D02*
X154731926Y-97597987D01*
X154555893Y-97434064D02*
X154458632Y-97553762D01*
X154458632Y-97553762D02*
X154436791Y-97627121D01*
X154436791Y-97627121D02*
X154443141Y-97665038D01*
X154443141Y-97665038D02*
X154464318Y-97697105D01*
X156488963Y-99580457D02*
X156577517Y-99522659D01*
X156577517Y-99522659D02*
X156655860Y-99493449D01*
X172925000Y-101265000D02*
X172925000Y-102465000D01*
X169185000Y-101265000D02*
X172925000Y-101265000D01*
X173583600Y-100695000D02*
X168515000Y-100695000D01*
X168515000Y-103035000D02*
X168515000Y-100695000D01*
X173495000Y-103135000D02*
X168615000Y-103135000D01*
X169185000Y-102465000D02*
X169185000Y-101265000D01*
X172925000Y-102465000D02*
X169185000Y-102465000D01*
X153474305Y-96870270D02*
X154004635Y-96339940D01*
X153569492Y-96965458D02*
X153474305Y-96870270D01*
X153807461Y-96727489D02*
X153569492Y-96965458D01*
X153970639Y-96890667D02*
X153807461Y-96727489D01*
X154065827Y-96795480D02*
X153970639Y-96890667D01*
X153902648Y-96632301D02*
X154065827Y-96795480D01*
X154004635Y-96530315D02*
X153902648Y-96632301D01*
X154167813Y-96693493D02*
X154004635Y-96530315D01*
X154263001Y-96598306D02*
X154167813Y-96693493D01*
X154004635Y-96339940D02*
X154263001Y-96598306D01*
X168515000Y-100495000D02*
X168515000Y-98155000D01*
X172925000Y-98725000D02*
X172925000Y-99925000D01*
X169185000Y-98725000D02*
X172925000Y-98725000D01*
X173595000Y-98155000D02*
X173595000Y-103035000D01*
X172925000Y-99925000D02*
X169185000Y-99925000D01*
X168515000Y-100495000D02*
X173583600Y-100495000D01*
X169185000Y-99925000D02*
X169185000Y-98725000D01*
X168615000Y-98055000D02*
X173495000Y-98055000D01*
X173202997Y-98054000D02*
X173013894Y-98054000D01*
X172390497Y-98054000D02*
X172345625Y-98054000D01*
X172473830Y-98054000D02*
X172439876Y-98054000D01*
X155986361Y-98505667D02*
X155849848Y-98502586D01*
X155636951Y-98715483D02*
X155633551Y-98854227D01*
X155955977Y-95041311D02*
X156241540Y-95326874D01*
X156241540Y-95326874D02*
X156146352Y-95422061D01*
X156146352Y-95422061D02*
X156051165Y-95326874D01*
X156051165Y-95326874D02*
X155616022Y-95762016D01*
X155616022Y-95762016D02*
X155520835Y-95666829D01*
X155520835Y-95666829D02*
X155955977Y-95231686D01*
X155955977Y-95231686D02*
X155860790Y-95136499D01*
X155860790Y-95136499D02*
X155955977Y-95041311D01*
X157275004Y-96713891D02*
X157179816Y-96618703D01*
X157194902Y-97037273D02*
X157076130Y-97045347D01*
X157076130Y-97045347D02*
X157254606Y-97223823D01*
X157254606Y-97223823D02*
X157166218Y-97312212D01*
X157166218Y-97312212D02*
X156812664Y-96958658D01*
X156812664Y-96958658D02*
X156860896Y-96910427D01*
X156860896Y-96910427D02*
X157185022Y-96900335D01*
X148782412Y-95312950D02*
X148782412Y-101612950D01*
X144682412Y-101612950D02*
X144682412Y-95312950D01*
X149207412Y-101612950D02*
X149207412Y-95312950D01*
X144257412Y-95312950D02*
X144257412Y-101612950D01*
X181589569Y-95325000D02*
X181589569Y-101525000D01*
X181870211Y-95325000D02*
X181525000Y-95325000D01*
X181931605Y-101275000D02*
X181931605Y-95575000D01*
X181870211Y-101525000D02*
X181525000Y-101525000D01*
X181931605Y-101275000D02*
X182075000Y-101275000D01*
X181931605Y-95575000D02*
X182075000Y-95575000D01*
X182075000Y-101275000D02*
X182075000Y-95575000D01*
X181446175Y-101563464D02*
X181446175Y-95286535D01*
X181425000Y-95225000D02*
X181425064Y-95228589D01*
X181425000Y-101625000D02*
X181425064Y-101621410D01*
X181425064Y-101621410D02*
X176415000Y-101621410D01*
X181425000Y-102114896D02*
X181425000Y-101625000D01*
X181430575Y-102121410D02*
X181433500Y-102121427D01*
X181430575Y-102121410D02*
X176425000Y-102121410D01*
X181425000Y-94735103D02*
X181425000Y-95225000D01*
X176425000Y-102121410D02*
X176425000Y-94728589D01*
X181430575Y-94728589D02*
X176425000Y-94728589D01*
X181430575Y-94728589D02*
X181433500Y-94728572D01*
X181425064Y-95228589D02*
X176415000Y-95228589D01*
X176415000Y-101875011D02*
X176415000Y-94974988D01*
X181525000Y-101884271D02*
X181525000Y-102139927D01*
X181425000Y-101875011D02*
X181429215Y-101875011D01*
X181425000Y-94974988D02*
X181429215Y-94974988D01*
X181525000Y-94965728D02*
X181525000Y-94710072D01*
X181759759Y-101999857D02*
X182075000Y-102277612D01*
X181724531Y-102297215D02*
X181887422Y-102112340D01*
X182075000Y-102277612D02*
X181912108Y-102462487D01*
X181912108Y-102462487D02*
X181595847Y-102183833D01*
X181912108Y-94387512D02*
X181595847Y-94666166D01*
X182075000Y-94572387D02*
X181912108Y-94387512D01*
X181759759Y-94850142D02*
X182075000Y-94572387D01*
X181724531Y-94552784D02*
X181887422Y-94737659D01*
X173902723Y-96562533D02*
X173902723Y-93262533D01*
X167902723Y-93262533D02*
X167902723Y-96562533D01*
X173802723Y-93162533D02*
X168002723Y-93162533D01*
X168002723Y-96662533D02*
X173802723Y-96662533D01*
X173002723Y-93912533D02*
X173652723Y-93912533D01*
X173652723Y-95912533D02*
X173002723Y-95912533D01*
X173752723Y-94012533D02*
X173752723Y-95812533D01*
X172902723Y-95812533D02*
X172902723Y-94012533D01*
X172302723Y-95912533D02*
X169502723Y-95912533D01*
X169502723Y-93912533D02*
X172302723Y-93912533D01*
X172402723Y-94012533D02*
X172402723Y-95812533D01*
X169402723Y-95812533D02*
X169402723Y-94012533D01*
X168152723Y-93912533D02*
X168802723Y-93912533D01*
X168052723Y-95812533D02*
X168052723Y-94012533D01*
X168902723Y-94012533D02*
X168902723Y-95812533D01*
X168802723Y-95912533D02*
X168152723Y-95912533D01*
X173902622Y-96567017D02*
X173902723Y-96562533D01*
X155157826Y-95105159D02*
X155291790Y-95138623D01*
X155830725Y-95057778D02*
X155694424Y-95051722D01*
X142643233Y-94825774D02*
X142643233Y-94639188D01*
X140961149Y-94639188D02*
X140961149Y-94825774D01*
X142243233Y-95225774D02*
X141361149Y-95225774D01*
X143452810Y-94532720D02*
X143452191Y-94532718D01*
X141161149Y-94616800D02*
X142443233Y-94616800D01*
X143452191Y-94532718D02*
X140152191Y-94532718D01*
X143552189Y-102433337D02*
X143552191Y-102432718D01*
X143552191Y-94632718D02*
X143552189Y-94632100D01*
X143552191Y-94632718D02*
X143552191Y-102432718D01*
X143452191Y-102532718D02*
X143452810Y-102532717D01*
X143452191Y-102532718D02*
X140152191Y-102532718D01*
X140052193Y-94632100D02*
X140052191Y-94632718D01*
X140052191Y-94632718D02*
X140052191Y-102432718D01*
X140052191Y-102432718D02*
X140052193Y-102433337D01*
X143562191Y-101032718D02*
X143562191Y-101532718D01*
X143562191Y-96032718D02*
X143562191Y-95532718D01*
X140052196Y-102433666D02*
X140052191Y-102432718D01*
X173596000Y-100136472D02*
X173596000Y-99947369D01*
X170103199Y-102183198D02*
X169466802Y-102183198D01*
X172006802Y-101546801D02*
X172643199Y-101546801D01*
X167563199Y-99643198D02*
X166926802Y-99643198D01*
X167563199Y-99006801D02*
X167563199Y-99643198D01*
X172643199Y-102183198D02*
X172006802Y-102183198D01*
X170103199Y-99643198D02*
X169466802Y-99643198D01*
X170103199Y-99006801D02*
X170103199Y-99643198D01*
X169466802Y-99006801D02*
X170103199Y-99006801D01*
X172006802Y-102183198D02*
X172006802Y-101546801D01*
X169466802Y-101546801D02*
X170103199Y-101546801D01*
X166926802Y-99006801D02*
X167563199Y-99006801D01*
X166926802Y-101546801D02*
X167563199Y-101546801D01*
X170103199Y-101546801D02*
X170103199Y-102183198D01*
X167563199Y-102183198D02*
X166926802Y-102183198D01*
X167563199Y-101546801D02*
X167563199Y-102183198D01*
X166926802Y-99643198D02*
X166926802Y-99006801D01*
X166926802Y-102183198D02*
X166926802Y-101546801D01*
X172006802Y-99643198D02*
X172006802Y-99006801D01*
X172006802Y-99006801D02*
X172643199Y-99006801D01*
X165975000Y-98355000D02*
X165975000Y-102835000D01*
X166275000Y-103135000D02*
X168215000Y-103135000D01*
X165975000Y-102835000D02*
X166275000Y-103135000D01*
X168215000Y-103135000D02*
X168615000Y-103135000D01*
X168615000Y-98055000D02*
X168215000Y-98055000D01*
X166275000Y-98055000D02*
X165975000Y-98355000D01*
X168215000Y-98055000D02*
X166275000Y-98055000D01*
X169466802Y-99643198D02*
X169466802Y-99006801D01*
X169466802Y-102183198D02*
X169466802Y-101546801D01*
X172643199Y-99643198D02*
X172006802Y-99643198D01*
X172643199Y-99006801D02*
X172643199Y-99643198D01*
X172643199Y-101546801D02*
X172643199Y-102183198D01*
X156928249Y-96271949D02*
X156833062Y-96176761D01*
X156567897Y-96387534D02*
X156663084Y-96482721D01*
X156785468Y-96441927D02*
X156873856Y-96353538D01*
X154562161Y-96897466D02*
X154031831Y-97427797D01*
X155834868Y-95980862D02*
X155738406Y-95884400D01*
X155738406Y-95884400D02*
X156358293Y-95443627D01*
X156226348Y-95702418D02*
X155834868Y-95980862D01*
X156001021Y-96147015D02*
X156226348Y-95702418D01*
X156093872Y-96239866D02*
X156001021Y-96147015D01*
X156539107Y-96015177D02*
X156093872Y-96239866D01*
X156260769Y-96406762D02*
X156539107Y-96015177D01*
X156357125Y-96503118D02*
X156260769Y-96406762D01*
X156797791Y-95883125D02*
X156357125Y-96503118D01*
X156699948Y-95785282D02*
X156797791Y-95883125D01*
X156208182Y-96033343D02*
X156699948Y-95785282D01*
X156457093Y-95542426D02*
X156208182Y-96033343D01*
X156358293Y-95443627D02*
X156457093Y-95542426D01*
X154269800Y-96781882D02*
X154415024Y-96750330D01*
X154378585Y-96890667D02*
X154269800Y-96781882D01*
X153936644Y-97332609D02*
X154378585Y-96890667D01*
X154031831Y-97427797D02*
X153936644Y-97332609D01*
X154415024Y-96750330D02*
X154562161Y-96897466D01*
X150656676Y-98509498D02*
X150656676Y-98609498D01*
X155506424Y-93659750D02*
X150656676Y-98509498D01*
X160456171Y-98509498D02*
X155606424Y-93659750D01*
X155506424Y-103459245D02*
X150656676Y-98609498D01*
X155606424Y-103459245D02*
X160456171Y-98609498D01*
X155506424Y-93659750D02*
X155606424Y-93659750D01*
X160456171Y-98609498D02*
X160456171Y-98509498D01*
X155606424Y-103459245D02*
X155506424Y-103459245D01*
X153364393Y-94387568D02*
X154071500Y-95094674D01*
X153010839Y-94741121D02*
X153717946Y-95448228D01*
X151384494Y-100751529D02*
X152091601Y-100044422D01*
X158314140Y-94953253D02*
X157607033Y-95660360D01*
X154212921Y-93539039D02*
X154920028Y-94246146D01*
X157748455Y-102731428D02*
X157041348Y-102024321D01*
X159516222Y-100963661D02*
X158809115Y-100256554D01*
X153152261Y-102519296D02*
X153859368Y-101812189D01*
X158102008Y-94741121D02*
X157394901Y-95448228D01*
X150323834Y-99690868D02*
X151030940Y-98983762D01*
X151596626Y-100963661D02*
X152303733Y-100256554D01*
X158809115Y-95448228D02*
X158102008Y-96155334D01*
X157960587Y-102519296D02*
X157253480Y-101812189D01*
X157041348Y-103438534D02*
X156334241Y-102731428D01*
X154425053Y-93326907D02*
X155132160Y-94034014D01*
X156899927Y-103579956D02*
X156192820Y-102872849D01*
X159728354Y-96367467D02*
X159021247Y-97074573D01*
X152091601Y-101458635D02*
X152798707Y-100751529D01*
X150677387Y-97074573D02*
X151384494Y-97781680D01*
X150323834Y-97428127D02*
X151030940Y-98135233D01*
X160435461Y-97074573D02*
X159728354Y-97781680D01*
X160789014Y-99690868D02*
X160081907Y-98983762D01*
X159516222Y-96155334D02*
X158809115Y-96862441D01*
X151738047Y-101105082D02*
X152445154Y-100397975D01*
X150677387Y-100044422D02*
X151384494Y-99337315D01*
X159021247Y-95660360D02*
X158314140Y-96367467D01*
X159728354Y-100751529D02*
X159021247Y-100044422D01*
X157960587Y-94599700D02*
X157253480Y-95306806D01*
X156687795Y-103792088D02*
X155980688Y-103084981D01*
X151030940Y-100397975D02*
X151738047Y-99690868D01*
X150889519Y-96862441D02*
X151596626Y-97569548D01*
X159374800Y-96013913D02*
X158667694Y-96721020D01*
X160223329Y-100256554D02*
X159516222Y-99549447D01*
X152798707Y-102165742D02*
X153505814Y-101458635D01*
X150535966Y-97215995D02*
X151243072Y-97923101D01*
X154212921Y-103579956D02*
X154920028Y-102872849D01*
X154425053Y-103792088D02*
X155132160Y-103084981D01*
X157253480Y-103226402D02*
X156546373Y-102519296D01*
X153364393Y-102731428D02*
X154071500Y-102024321D01*
X151030940Y-96721020D02*
X151738047Y-97428127D01*
X160081907Y-100397975D02*
X159374800Y-99690868D01*
X152303733Y-95448228D02*
X153010839Y-96155334D01*
X159021247Y-101458635D02*
X158314140Y-100751529D01*
X158809115Y-101670767D02*
X158102008Y-100963661D01*
X150889519Y-100256554D02*
X151596626Y-99549447D01*
X152657286Y-95094674D02*
X153364393Y-95801781D01*
X157041348Y-93680461D02*
X156334241Y-94387568D01*
X152445154Y-101812189D02*
X153152261Y-101105082D01*
X159869775Y-96508888D02*
X159162668Y-97215995D01*
X153010839Y-102377874D02*
X153717946Y-101670767D01*
X159162668Y-95801781D02*
X158455562Y-96508888D01*
X152091601Y-95660360D02*
X152798707Y-96367467D01*
X158455562Y-102024321D02*
X157748455Y-101317214D01*
X158314140Y-102165742D02*
X157607033Y-101458635D01*
X158102008Y-102377874D02*
X157394901Y-101670767D01*
X154071500Y-93680461D02*
X154778606Y-94387568D01*
X151596626Y-96155334D02*
X152303733Y-96862441D01*
X160081907Y-96721020D02*
X159374800Y-97428127D01*
X159162668Y-101317214D02*
X158455562Y-100610107D01*
X153152261Y-94599700D02*
X153859368Y-95306806D01*
X158667694Y-95306806D02*
X157960587Y-96013913D01*
X157394901Y-103084981D02*
X156687795Y-102377874D01*
X156899927Y-93539039D02*
X156192820Y-94246146D01*
X160576882Y-97215995D02*
X159869775Y-97923101D01*
X153717946Y-94034014D02*
X154425053Y-94741121D01*
X153859368Y-93892593D02*
X154566474Y-94599700D01*
X153505814Y-102872849D02*
X154212921Y-102165742D01*
X157607033Y-94246146D02*
X156899927Y-94953253D01*
X152798707Y-94953253D02*
X153505814Y-95660360D01*
X159869775Y-100610107D02*
X159162668Y-99903000D01*
X151384494Y-96367467D02*
X152091601Y-97074573D01*
X159374800Y-101105082D02*
X158667694Y-100397975D01*
X158455562Y-95094674D02*
X157748455Y-95801781D01*
X151950179Y-95801781D02*
X152657286Y-96508888D01*
X151243072Y-96508888D02*
X151950179Y-97215995D01*
X152657286Y-102024321D02*
X153364393Y-101317214D01*
X151243072Y-100610107D02*
X151950179Y-99903000D01*
X160789014Y-97428127D02*
X160081907Y-98135233D01*
X157253480Y-93892593D02*
X156546373Y-94599700D01*
X153859368Y-103226402D02*
X154566474Y-102519296D01*
X151950179Y-101317214D02*
X152657286Y-100610107D01*
X157748455Y-94387568D02*
X157041348Y-95094674D01*
X150535966Y-99903000D02*
X151243072Y-99195894D01*
X153717946Y-103084981D02*
X154425053Y-102377874D01*
X160223329Y-96862441D02*
X159516222Y-97569548D01*
X160576882Y-99903000D02*
X159869775Y-99195894D01*
X157394901Y-94034014D02*
X156687795Y-94741121D01*
X152445154Y-95306806D02*
X153152261Y-96013913D01*
X157607033Y-102872849D02*
X156899927Y-102165742D01*
X153505814Y-94246146D02*
X154212921Y-94953253D01*
X152303733Y-101670767D02*
X153010839Y-100963661D01*
X160435461Y-100044422D02*
X159728354Y-99337315D01*
X151738047Y-96013913D02*
X152445154Y-96721020D01*
X158667694Y-101812189D02*
X157960587Y-101105082D01*
X154071500Y-103438534D02*
X154778606Y-102731428D01*
X156687795Y-93326907D02*
X155980688Y-94034014D01*
X151950179Y-101317214D02*
X151738047Y-101105082D01*
X153859368Y-93892593D02*
X154071500Y-93680461D01*
X151738047Y-96013913D02*
X151950179Y-95801781D01*
X159516222Y-100963661D02*
X159728354Y-100751529D01*
X159374800Y-96013913D02*
X159162668Y-95801781D01*
X157041348Y-103438534D02*
X157253480Y-103226402D01*
X151596626Y-100963661D02*
X151384494Y-100751529D01*
X153364393Y-102731428D02*
X153152261Y-102519296D01*
X152091601Y-95660360D02*
X152303733Y-95448228D01*
X153717946Y-103084981D02*
X153505814Y-102872849D01*
X151030940Y-96721020D02*
X151243072Y-96508888D01*
X156899927Y-93539039D02*
X156687795Y-93326907D01*
X159728354Y-96367467D02*
X159516222Y-96155334D01*
X154425053Y-103792088D02*
X154212921Y-103579956D01*
X154212921Y-93539039D02*
X154425053Y-93326907D01*
X158314140Y-94953253D02*
X158102008Y-94741121D01*
X151243072Y-100610107D02*
X151030940Y-100397975D01*
X152798707Y-94953253D02*
X153010839Y-94741121D01*
X158102008Y-102377874D02*
X158314140Y-102165742D01*
X159869775Y-100610107D02*
X160081907Y-100397975D01*
X159162668Y-101317214D02*
X159374800Y-101105082D01*
X157394901Y-103084981D02*
X157607033Y-102872849D01*
X160435461Y-97074573D02*
X160223329Y-96862441D01*
X151384494Y-96367467D02*
X151596626Y-96155334D01*
X157748455Y-102731428D02*
X157960587Y-102519296D01*
X153010839Y-102377874D02*
X152798707Y-102165742D01*
X158455562Y-102024321D02*
X158667694Y-101812189D01*
X158667694Y-95306806D02*
X158455562Y-95094674D01*
X157960587Y-94599700D02*
X157748455Y-94387568D01*
X156687795Y-103792088D02*
X156899927Y-103579956D01*
X157607033Y-94246146D02*
X157394901Y-94034014D01*
X152303733Y-101670767D02*
X152091601Y-101458635D01*
X160576882Y-99903000D02*
X160789014Y-99690868D01*
X158809115Y-101670767D02*
X159021247Y-101458635D01*
X153152261Y-94599700D02*
X153364393Y-94387568D01*
X150535966Y-99903000D02*
X150323834Y-99690868D01*
X160081907Y-96721020D02*
X159869775Y-96508888D01*
X152657286Y-102024321D02*
X152445154Y-101812189D01*
X150677387Y-97074573D02*
X150889519Y-96862441D01*
X160223329Y-100256554D02*
X160435461Y-100044422D01*
X153505814Y-94246146D02*
X153717946Y-94034014D01*
X154071500Y-103438534D02*
X153859368Y-103226402D01*
X152445154Y-95306806D02*
X152657286Y-95094674D01*
X160789014Y-97428127D02*
X160576882Y-97215995D01*
X159021247Y-95660360D02*
X158809115Y-95448228D01*
X150889519Y-100256554D02*
X150677387Y-100044422D01*
X157253480Y-93892593D02*
X157041348Y-93680461D01*
X150323834Y-97428127D02*
X150535966Y-97215995D01*
X156438714Y-98964394D02*
X156533901Y-98869207D01*
X156533901Y-99059581D02*
X156438714Y-98964394D01*
X156098759Y-99494724D02*
X156533901Y-99059581D01*
X156193946Y-99589912D02*
X156098759Y-99494724D01*
X156629089Y-99154769D02*
X156193946Y-99589912D01*
X156724276Y-99249956D02*
X156629089Y-99154769D01*
X156819464Y-99154769D02*
X156724276Y-99249956D01*
X156533901Y-98869207D02*
X156819464Y-99154769D01*
X154997304Y-97903734D02*
X155085692Y-97815345D01*
X154779733Y-97849341D02*
X154874920Y-97944528D01*
X155140085Y-97733756D02*
X155044898Y-97638569D01*
X157055308Y-99363416D02*
X157096846Y-99490368D01*
X157096846Y-99490368D02*
X156822757Y-99579607D01*
X156655860Y-99493449D02*
X157055308Y-99363416D01*
X173002723Y-95912533D02*
X172902723Y-95812533D01*
X154558868Y-97718777D02*
G75*
G02*
X154464318Y-97697105I-29818J86999D01*
G01*
X156015257Y-98948884D02*
G75*
G02*
X156022587Y-99108556I-73551J-83381D01*
G01*
X155854735Y-98936454D02*
G75*
G02*
X156015257Y-98948884I74125J-85459D01*
G01*
X155864509Y-99097295D02*
G75*
G02*
X155854735Y-98936454I72131J85101D01*
G01*
X156022587Y-99108557D02*
G75*
G02*
X155864508Y-99097295I-73960J76930D01*
G01*
X156229747Y-98728232D02*
G75*
G02*
X156229641Y-98847109I-54157J-59390D01*
G01*
X156113312Y-98732268D02*
G75*
G02*
X156229748Y-98728231I60112J-52612D01*
G01*
X156109169Y-98852421D02*
G75*
G02*
X156113313Y-98732268I59580J58093D01*
G01*
X156229641Y-98847109D02*
G75*
G02*
X156109170Y-98852421I-62715J53569D01*
G01*
X156724808Y-99806951D02*
G75*
G02*
X156580539Y-99813326I-75248J67280D01*
G01*
X156580540Y-99813326D02*
G75*
G02*
X156588825Y-99670970I74927J67058D01*
G01*
X156588826Y-99670971D02*
G75*
G02*
X156729800Y-99663427I74153J-64740D01*
G01*
X156729800Y-99663427D02*
G75*
G02*
X156724807Y-99806952I-70493J-69397D01*
G01*
X155249720Y-97748204D02*
G75*
G02*
X155253333Y-97851678I-46311J-53417D01*
G01*
X155040755Y-98118649D02*
G75*
G02*
X154879807Y-98112594I-77585J79814D01*
G01*
X154879807Y-98112593D02*
G75*
G02*
X154874920Y-97944528I83460J86530D01*
G01*
X154779414Y-98202575D02*
G75*
G02*
X154779733Y-97849341I169650J176464D01*
G01*
X155134985Y-98214792D02*
G75*
G02*
X154779414Y-98202576I-171919J176853D01*
G01*
X155172487Y-97980968D02*
G75*
G02*
X155134986Y-98214793I-169355J-92758D01*
G01*
X155354575Y-97940810D02*
G75*
G02*
X155172487Y-97980967I-122430J122238D01*
G01*
X155345545Y-97653655D02*
G75*
G02*
X155354575Y-97940810I-136122J-148000D01*
G01*
X155140085Y-97733756D02*
G75*
G02*
X155249721Y-97748204I45131J-80733D01*
G01*
X156327273Y-98635381D02*
G75*
G02*
X156329397Y-98937729I-142157J-152180D01*
G01*
X156024924Y-98630282D02*
G75*
G02*
X156327272Y-98635381I148798J-143427D01*
G01*
X155770277Y-99193438D02*
G75*
G02*
X155750942Y-98849872I137298J180054D01*
G01*
X156111294Y-99210224D02*
G75*
G02*
X155770277Y-99193439I-162949J161978D01*
G01*
X156175673Y-99000515D02*
G75*
G02*
X156111294Y-99210224I-223304J-46184D01*
G01*
X156487158Y-99910320D02*
G75*
G02*
X156488963Y-99580457I165584J164030D01*
G01*
X156814577Y-99907558D02*
G75*
G02*
X156487157Y-99910319I-165063J159052D01*
G01*
X156822757Y-99579607D02*
G75*
G02*
X156814577Y-99907557I-163695J-159994D01*
G01*
X156928249Y-96271949D02*
G75*
G02*
X157037885Y-96286397I45131J-80733D01*
G01*
X157037884Y-96286397D02*
G75*
G02*
X157041497Y-96389871I-46311J-53417D01*
G01*
X156828919Y-96656842D02*
G75*
G02*
X156667971Y-96650786I-77585J79814D01*
G01*
X156667971Y-96650786D02*
G75*
G02*
X156663084Y-96482721I83460J86530D01*
G01*
X156567578Y-96740769D02*
G75*
G02*
X156567897Y-96387534I169651J176465D01*
G01*
X156923149Y-96752986D02*
G75*
G02*
X156567578Y-96740768I-171918J176854D01*
G01*
X156960651Y-96519161D02*
G75*
G02*
X156923150Y-96752986I-169355J-92758D01*
G01*
X157142739Y-96479003D02*
G75*
G02*
X156960651Y-96519160I-122430J122238D01*
G01*
X157133710Y-96191846D02*
G75*
G02*
X157142740Y-96479003I-136123J-148001D01*
G01*
X140961149Y-94639188D02*
G75*
G02*
X141161149Y-94616800I148598J-422948D01*
G01*
X142443233Y-94616801D02*
G75*
G02*
X142643233Y-94639188I49374J-463456D01*
G01*
X143552190Y-102433337D02*
G75*
G02*
X143452810Y-102532717I-99999J619D01*
G01*
X140052193Y-94632099D02*
G75*
G02*
X140151572Y-94532720I99998J-619D01*
G01*
X143452811Y-94532720D02*
G75*
G02*
X143552189Y-94632100I-620J-99998D01*
G01*
X140151572Y-102532716D02*
G75*
G02*
X140052193Y-102433337I619J99998D01*
G01*
X141361149Y-95225774D02*
G75*
G02*
X140961149Y-94825774I0J400000D01*
G01*
X142643233Y-94825774D02*
G75*
G02*
X142243233Y-95225774I-400000J0D01*
G01*
X155672539Y-94921053D02*
G75*
G02*
X155694424Y-95051722I-105181J-84783D01*
G01*
X155594882Y-94912872D02*
G75*
G02*
X155672540Y-94921052I34717J-43125D01*
G01*
X155522216Y-95393483D02*
G75*
G02*
X155212007Y-95385197I-151252J148378D01*
G01*
X155212007Y-95385197D02*
G75*
G02*
X155157826Y-95105159I174957J179110D01*
G01*
X155421503Y-95303820D02*
G75*
G02*
X155310700Y-95293515I-50193J61156D01*
G01*
X155442645Y-95142023D02*
G75*
G02*
X155421504Y-95303820I-204064J-55616D01*
G01*
X155442645Y-95142023D02*
G75*
G02*
X155495126Y-94822253I338518J108634D01*
G01*
X155495125Y-94822252D02*
G75*
G02*
X155768790Y-94826927I134540J-136546D01*
G01*
X155768789Y-94826927D02*
G75*
G02*
X155830725Y-95057778I-192017J-175251D01*
G01*
X168802723Y-93912533D02*
G75*
G02*
X168902723Y-94012533I0J-100000D01*
G01*
X168902723Y-95812533D02*
G75*
G02*
X168802723Y-95912533I-100000J0D01*
G01*
X168152723Y-95912533D02*
G75*
G02*
X168052723Y-95812533I0J100000D01*
G01*
X168052723Y-94012533D02*
G75*
G02*
X168152723Y-93912533I100000J0D01*
G01*
X169402723Y-94012533D02*
G75*
G02*
X169502723Y-93912533I100000J0D01*
G01*
X172402723Y-95812533D02*
G75*
G02*
X172302723Y-95912533I-100000J0D01*
G01*
X172302723Y-93912533D02*
G75*
G02*
X172402723Y-94012533I0J-100000D01*
G01*
X169502723Y-95912533D02*
G75*
G02*
X169402723Y-95812533I0J100000D01*
G01*
X173652723Y-93912533D02*
G75*
G02*
X173752723Y-94012533I0J-100000D01*
G01*
X173752723Y-95812533D02*
G75*
G02*
X173652723Y-95912533I-100000J0D01*
G01*
X172902723Y-94012533D02*
G75*
G02*
X173002723Y-93912533I100000J0D01*
G01*
X168002723Y-96662533D02*
G75*
G02*
X167902723Y-96562533I0J100000D01*
G01*
X173802723Y-93162533D02*
G75*
G02*
X173902723Y-93262533I0J-100000D01*
G01*
X173902723Y-96562533D02*
G75*
G02*
X173802723Y-96662533I-100000J0D01*
G01*
X167902723Y-93262533D02*
G75*
G02*
X168002723Y-93162533I100000J0D01*
G01*
X181759759Y-94850142D02*
G75*
G02*
X181429215Y-94974988I-330544J375154D01*
G01*
X181595847Y-94666166D02*
G75*
G02*
X181433500Y-94728572I-165272J187577D01*
G01*
X181433500Y-102121427D02*
G75*
G02*
X181595847Y-102183833I-2925J-249983D01*
G01*
X181429215Y-101875011D02*
G75*
G02*
X181759759Y-101999857I0J-500000D01*
G01*
X181524999Y-95325000D02*
G75*
G02*
X181425064Y-95228589I1J100000D01*
G01*
X181425063Y-101621410D02*
G75*
G02*
X181525000Y-101524999I99937J-3590D01*
G01*
X181870212Y-95324999D02*
G75*
G02*
X182075000Y-95575000I-25102J-229439D01*
G01*
X182074999Y-101275000D02*
G75*
G02*
X181870211Y-101524999I-229889J-20561D01*
G01*
X181931605Y-101275000D02*
G75*
G02*
X181726817Y-101524999I-229889J-20561D01*
G01*
X181726818Y-95325000D02*
G75*
G02*
X181931605Y-95575000I-25102J-229438D01*
G01*
X144257412Y-95312950D02*
G75*
G02*
X149207412Y-95312950I2475000J0D01*
G01*
X149207412Y-101612950D02*
G75*
G02*
X144257412Y-101612950I-2475000J0D01*
G01*
X148782412Y-101612950D02*
G75*
G02*
X144682412Y-101612950I-2050000J0D01*
G01*
X144682412Y-95312950D02*
G75*
G02*
X148782412Y-95312950I2050000J0D01*
G01*
X157443600Y-96692113D02*
G75*
G02*
X157442431Y-96832025I-65451J-69414D01*
G01*
X157544312Y-96920519D02*
G75*
G02*
X157194902Y-97037273I-326764J396693D01*
G01*
X157544206Y-96602342D02*
G75*
G02*
X157544312Y-96920520I-155962J-159141D01*
G01*
X157179816Y-96618703D02*
G75*
G02*
X157544206Y-96602343I189875J-162874D01*
G01*
X155310912Y-98174848D02*
G75*
G02*
X155865677Y-98173786I277896J-267339D01*
G01*
X155306663Y-98729825D02*
G75*
G02*
X155310912Y-98174848I259124J275521D01*
G01*
X155636951Y-98715483D02*
G75*
G02*
X155401426Y-98634213I-32211J288568D01*
G01*
X155401426Y-98634213D02*
G75*
G02*
X155406312Y-98269823I172477J179915D01*
G01*
X155406311Y-98269823D02*
G75*
G02*
X155766771Y-98265255I182440J-172075D01*
G01*
X168515000Y-98155000D02*
G75*
G02*
X168615000Y-98055000I100000J0D01*
G01*
X173495000Y-98055000D02*
G75*
G02*
X173595000Y-98155000I0J-100000D01*
G01*
X168615000Y-103134999D02*
G75*
G02*
X168515001Y-103035000I0J99999D01*
G01*
X173595000Y-103035000D02*
G75*
G02*
X173495000Y-103135000I-100000J0D01*
G01*
%TO.C,R13*%
X120115000Y-83820000D02*
G75*
G03*
X120115000Y-83820000I-1370000J0D01*
G01*
X118745000Y-85190000D02*
X118745000Y-85260000D01*
%TO.C,R21*%
X99160000Y-116205000D02*
G75*
G03*
X99160000Y-116205000I-1370000J0D01*
G01*
X99160000Y-116205000D02*
X99230000Y-116205000D01*
%TO.C,J10*%
X164525000Y-115376000D02*
X164525000Y-112716000D01*
X141605000Y-115376000D02*
X164525000Y-115376000D01*
X141605000Y-112716000D02*
X164525000Y-112716000D01*
X141605000Y-115376000D02*
X141605000Y-112716000D01*
X140335000Y-115376000D02*
X139005000Y-115376000D01*
X139005000Y-115376000D02*
X139005000Y-114046000D01*
%TO.C,RV1*%
X176470000Y-120618000D02*
X175780000Y-120618000D01*
X176470000Y-120518000D02*
X176470000Y-120618000D01*
X176470000Y-113998000D02*
X176220000Y-113998000D01*
X176470000Y-114098000D02*
X176470000Y-113998000D01*
X176670000Y-114098000D02*
X176470000Y-114098000D01*
X176470000Y-115518000D02*
X176670000Y-115518000D01*
X169450000Y-119308000D02*
X169450000Y-117818000D01*
X174740000Y-120618000D02*
X170760000Y-120618000D01*
X170760000Y-113998000D02*
X174300000Y-113998000D01*
X169450000Y-116798000D02*
X169450000Y-115308000D01*
X176670000Y-120518000D02*
X176470000Y-120518000D01*
X176670000Y-119098000D02*
X176670000Y-120518000D01*
X176470000Y-119098000D02*
X176670000Y-119098000D01*
X176470000Y-115518000D02*
X176470000Y-119098000D01*
X176670000Y-114098000D02*
X176670000Y-115518000D01*
X170760000Y-120618000D02*
G75*
G02*
X169450000Y-119308000I0J1310000D01*
G01*
X169450000Y-115308000D02*
G75*
G02*
X170760000Y-113998000I1310000J0D01*
G01*
%TO.C,J13*%
X96460000Y-119320000D02*
X97790000Y-119320000D01*
X96460000Y-120650000D02*
X96460000Y-119320000D01*
X96460000Y-121920000D02*
X99120000Y-121920000D01*
X99120000Y-121920000D02*
X99120000Y-121980000D01*
X96460000Y-121920000D02*
X96460000Y-121980000D01*
X96460000Y-121980000D02*
X99120000Y-121980000D01*
%TO.C,C5*%
X143572000Y-120042000D02*
X139932000Y-120042000D01*
X143572000Y-117702000D02*
X139932000Y-117702000D01*
X143572000Y-120042000D02*
X143572000Y-119797000D01*
X143572000Y-117947000D02*
X143572000Y-117702000D01*
X139932000Y-120042000D02*
X139932000Y-119797000D01*
X139932000Y-117947000D02*
X139932000Y-117702000D01*
%TO.C,J12*%
X147260000Y-118304000D02*
X148590000Y-118304000D01*
X147260000Y-119634000D02*
X147260000Y-118304000D01*
X147260000Y-120904000D02*
X149920000Y-120904000D01*
X149920000Y-120904000D02*
X149920000Y-123504000D01*
X147260000Y-120904000D02*
X147260000Y-123504000D01*
X147260000Y-123504000D02*
X149920000Y-123504000D01*
%TO.C,C1*%
X115191000Y-94795801D02*
X115591000Y-94795801D01*
X115391000Y-94995801D02*
X115391000Y-94595801D01*
X116216000Y-90645000D02*
X116956000Y-90645000D01*
X116049000Y-90685000D02*
X117123000Y-90685000D01*
X115922000Y-90725000D02*
X117250000Y-90725000D01*
X115818000Y-90765000D02*
X117354000Y-90765000D01*
X115727000Y-90805000D02*
X117445000Y-90805000D01*
X115646000Y-90845000D02*
X117526000Y-90845000D01*
X115573000Y-90885000D02*
X117599000Y-90885000D01*
X117426000Y-90925000D02*
X117666000Y-90925000D01*
X115506000Y-90925000D02*
X115746000Y-90925000D01*
X117426000Y-90965000D02*
X117728000Y-90965000D01*
X115444000Y-90965000D02*
X115746000Y-90965000D01*
X117426000Y-91005000D02*
X117786000Y-91005000D01*
X115386000Y-91005000D02*
X115746000Y-91005000D01*
X117426000Y-91045000D02*
X117840000Y-91045000D01*
X115332000Y-91045000D02*
X115746000Y-91045000D01*
X117426000Y-91085000D02*
X117890000Y-91085000D01*
X115282000Y-91085000D02*
X115746000Y-91085000D01*
X117426000Y-91125000D02*
X117937000Y-91125000D01*
X115235000Y-91125000D02*
X115746000Y-91125000D01*
X117426000Y-91165000D02*
X117982000Y-91165000D01*
X115190000Y-91165000D02*
X115746000Y-91165000D01*
X117426000Y-91205000D02*
X118024000Y-91205000D01*
X115148000Y-91205000D02*
X115746000Y-91205000D01*
X117426000Y-91245000D02*
X118064000Y-91245000D01*
X115108000Y-91245000D02*
X115746000Y-91245000D01*
X117426000Y-91285000D02*
X118102000Y-91285000D01*
X115070000Y-91285000D02*
X115746000Y-91285000D01*
X117426000Y-91325000D02*
X118138000Y-91325000D01*
X115034000Y-91325000D02*
X115746000Y-91325000D01*
X117426000Y-91365000D02*
X118173000Y-91365000D01*
X114999000Y-91365000D02*
X115746000Y-91365000D01*
X117426000Y-91405000D02*
X118205000Y-91405000D01*
X114967000Y-91405000D02*
X115746000Y-91405000D01*
X117426000Y-91445000D02*
X118236000Y-91445000D01*
X114936000Y-91445000D02*
X115746000Y-91445000D01*
X117426000Y-91485000D02*
X118266000Y-91485000D01*
X114906000Y-91485000D02*
X115746000Y-91485000D01*
X117426000Y-91525000D02*
X118294000Y-91525000D01*
X114878000Y-91525000D02*
X115746000Y-91525000D01*
X117426000Y-91565000D02*
X118321000Y-91565000D01*
X114851000Y-91565000D02*
X115746000Y-91565000D01*
X117426000Y-91605000D02*
X118346000Y-91605000D01*
X114826000Y-91605000D02*
X115746000Y-91605000D01*
X117426000Y-91645000D02*
X118371000Y-91645000D01*
X114801000Y-91645000D02*
X115746000Y-91645000D01*
X117426000Y-91685000D02*
X118394000Y-91685000D01*
X114778000Y-91685000D02*
X115746000Y-91685000D01*
X117426000Y-91725000D02*
X118416000Y-91725000D01*
X114756000Y-91725000D02*
X115746000Y-91725000D01*
X117426000Y-91765000D02*
X118437000Y-91765000D01*
X114735000Y-91765000D02*
X115746000Y-91765000D01*
X117426000Y-91805000D02*
X118456000Y-91805000D01*
X114716000Y-91805000D02*
X115746000Y-91805000D01*
X117426000Y-91845000D02*
X118475000Y-91845000D01*
X114697000Y-91845000D02*
X115746000Y-91845000D01*
X117426000Y-91885000D02*
X118493000Y-91885000D01*
X114679000Y-91885000D02*
X115746000Y-91885000D01*
X117426000Y-91925000D02*
X118510000Y-91925000D01*
X114662000Y-91925000D02*
X115746000Y-91925000D01*
X117426000Y-91965000D02*
X118526000Y-91965000D01*
X114646000Y-91965000D02*
X115746000Y-91965000D01*
X117426000Y-92005000D02*
X118540000Y-92005000D01*
X114632000Y-92005000D02*
X115746000Y-92005000D01*
X117426000Y-92046000D02*
X118554000Y-92046000D01*
X114618000Y-92046000D02*
X115746000Y-92046000D01*
X117426000Y-92086000D02*
X118568000Y-92086000D01*
X114604000Y-92086000D02*
X115746000Y-92086000D01*
X117426000Y-92126000D02*
X118580000Y-92126000D01*
X114592000Y-92126000D02*
X115746000Y-92126000D01*
X117426000Y-92166000D02*
X118591000Y-92166000D01*
X114581000Y-92166000D02*
X115746000Y-92166000D01*
X117426000Y-92206000D02*
X118602000Y-92206000D01*
X114570000Y-92206000D02*
X115746000Y-92206000D01*
X117426000Y-92246000D02*
X118611000Y-92246000D01*
X114561000Y-92246000D02*
X115746000Y-92246000D01*
X117426000Y-92286000D02*
X118620000Y-92286000D01*
X114552000Y-92286000D02*
X115746000Y-92286000D01*
X117426000Y-92326000D02*
X118628000Y-92326000D01*
X114544000Y-92326000D02*
X115746000Y-92326000D01*
X117426000Y-92366000D02*
X118636000Y-92366000D01*
X114536000Y-92366000D02*
X115746000Y-92366000D01*
X117426000Y-92406000D02*
X118642000Y-92406000D01*
X114530000Y-92406000D02*
X115746000Y-92406000D01*
X117426000Y-92446000D02*
X118648000Y-92446000D01*
X114524000Y-92446000D02*
X115746000Y-92446000D01*
X117426000Y-92486000D02*
X118653000Y-92486000D01*
X114519000Y-92486000D02*
X115746000Y-92486000D01*
X117426000Y-92526000D02*
X118657000Y-92526000D01*
X114515000Y-92526000D02*
X115746000Y-92526000D01*
X114512000Y-92566000D02*
X118660000Y-92566000D01*
X114509000Y-92606000D02*
X118663000Y-92606000D01*
X114507000Y-92646000D02*
X118665000Y-92646000D01*
X114506000Y-92686000D02*
X118666000Y-92686000D01*
X114506000Y-92726000D02*
X118666000Y-92726000D01*
X118706000Y-92726000D02*
G75*
G03*
X118706000Y-92726000I-2120000J0D01*
G01*
%TO.C,C2*%
X128596000Y-84836000D02*
G75*
G03*
X128596000Y-84836000I-2120000J0D01*
G01*
X126476000Y-82756000D02*
X126476000Y-86916000D01*
X126516000Y-82756000D02*
X126516000Y-86916000D01*
X126556000Y-82757000D02*
X126556000Y-86915000D01*
X126596000Y-82759000D02*
X126596000Y-86913000D01*
X126636000Y-82762000D02*
X126636000Y-86910000D01*
X126676000Y-82765000D02*
X126676000Y-83996000D01*
X126676000Y-85676000D02*
X126676000Y-86907000D01*
X126716000Y-82769000D02*
X126716000Y-83996000D01*
X126716000Y-85676000D02*
X126716000Y-86903000D01*
X126756000Y-82774000D02*
X126756000Y-83996000D01*
X126756000Y-85676000D02*
X126756000Y-86898000D01*
X126796000Y-82780000D02*
X126796000Y-83996000D01*
X126796000Y-85676000D02*
X126796000Y-86892000D01*
X126836000Y-82786000D02*
X126836000Y-83996000D01*
X126836000Y-85676000D02*
X126836000Y-86886000D01*
X126876000Y-82794000D02*
X126876000Y-83996000D01*
X126876000Y-85676000D02*
X126876000Y-86878000D01*
X126916000Y-82802000D02*
X126916000Y-83996000D01*
X126916000Y-85676000D02*
X126916000Y-86870000D01*
X126956000Y-82811000D02*
X126956000Y-83996000D01*
X126956000Y-85676000D02*
X126956000Y-86861000D01*
X126996000Y-82820000D02*
X126996000Y-83996000D01*
X126996000Y-85676000D02*
X126996000Y-86852000D01*
X127036000Y-82831000D02*
X127036000Y-83996000D01*
X127036000Y-85676000D02*
X127036000Y-86841000D01*
X127076000Y-82842000D02*
X127076000Y-83996000D01*
X127076000Y-85676000D02*
X127076000Y-86830000D01*
X127116000Y-82854000D02*
X127116000Y-83996000D01*
X127116000Y-85676000D02*
X127116000Y-86818000D01*
X127156000Y-82868000D02*
X127156000Y-83996000D01*
X127156000Y-85676000D02*
X127156000Y-86804000D01*
X127197000Y-82882000D02*
X127197000Y-83996000D01*
X127197000Y-85676000D02*
X127197000Y-86790000D01*
X127237000Y-82896000D02*
X127237000Y-83996000D01*
X127237000Y-85676000D02*
X127237000Y-86776000D01*
X127277000Y-82912000D02*
X127277000Y-83996000D01*
X127277000Y-85676000D02*
X127277000Y-86760000D01*
X127317000Y-82929000D02*
X127317000Y-83996000D01*
X127317000Y-85676000D02*
X127317000Y-86743000D01*
X127357000Y-82947000D02*
X127357000Y-83996000D01*
X127357000Y-85676000D02*
X127357000Y-86725000D01*
X127397000Y-82966000D02*
X127397000Y-83996000D01*
X127397000Y-85676000D02*
X127397000Y-86706000D01*
X127437000Y-82985000D02*
X127437000Y-83996000D01*
X127437000Y-85676000D02*
X127437000Y-86687000D01*
X127477000Y-83006000D02*
X127477000Y-83996000D01*
X127477000Y-85676000D02*
X127477000Y-86666000D01*
X127517000Y-83028000D02*
X127517000Y-83996000D01*
X127517000Y-85676000D02*
X127517000Y-86644000D01*
X127557000Y-83051000D02*
X127557000Y-83996000D01*
X127557000Y-85676000D02*
X127557000Y-86621000D01*
X127597000Y-83076000D02*
X127597000Y-83996000D01*
X127597000Y-85676000D02*
X127597000Y-86596000D01*
X127637000Y-83101000D02*
X127637000Y-83996000D01*
X127637000Y-85676000D02*
X127637000Y-86571000D01*
X127677000Y-83128000D02*
X127677000Y-83996000D01*
X127677000Y-85676000D02*
X127677000Y-86544000D01*
X127717000Y-83156000D02*
X127717000Y-83996000D01*
X127717000Y-85676000D02*
X127717000Y-86516000D01*
X127757000Y-83186000D02*
X127757000Y-83996000D01*
X127757000Y-85676000D02*
X127757000Y-86486000D01*
X127797000Y-83217000D02*
X127797000Y-83996000D01*
X127797000Y-85676000D02*
X127797000Y-86455000D01*
X127837000Y-83249000D02*
X127837000Y-83996000D01*
X127837000Y-85676000D02*
X127837000Y-86423000D01*
X127877000Y-83284000D02*
X127877000Y-83996000D01*
X127877000Y-85676000D02*
X127877000Y-86388000D01*
X127917000Y-83320000D02*
X127917000Y-83996000D01*
X127917000Y-85676000D02*
X127917000Y-86352000D01*
X127957000Y-83358000D02*
X127957000Y-83996000D01*
X127957000Y-85676000D02*
X127957000Y-86314000D01*
X127997000Y-83398000D02*
X127997000Y-83996000D01*
X127997000Y-85676000D02*
X127997000Y-86274000D01*
X128037000Y-83440000D02*
X128037000Y-83996000D01*
X128037000Y-85676000D02*
X128037000Y-86232000D01*
X128077000Y-83485000D02*
X128077000Y-83996000D01*
X128077000Y-85676000D02*
X128077000Y-86187000D01*
X128117000Y-83532000D02*
X128117000Y-83996000D01*
X128117000Y-85676000D02*
X128117000Y-86140000D01*
X128157000Y-83582000D02*
X128157000Y-83996000D01*
X128157000Y-85676000D02*
X128157000Y-86090000D01*
X128197000Y-83636000D02*
X128197000Y-83996000D01*
X128197000Y-85676000D02*
X128197000Y-86036000D01*
X128237000Y-83694000D02*
X128237000Y-83996000D01*
X128237000Y-85676000D02*
X128237000Y-85978000D01*
X128277000Y-83756000D02*
X128277000Y-83996000D01*
X128277000Y-85676000D02*
X128277000Y-85916000D01*
X128317000Y-83823000D02*
X128317000Y-85849000D01*
X128357000Y-83896000D02*
X128357000Y-85776000D01*
X128397000Y-83977000D02*
X128397000Y-85695000D01*
X128437000Y-84068000D02*
X128437000Y-85604000D01*
X128477000Y-84172000D02*
X128477000Y-85500000D01*
X128517000Y-84299000D02*
X128517000Y-85373000D01*
X128557000Y-84466000D02*
X128557000Y-85206000D01*
X124206199Y-83641000D02*
X124606199Y-83641000D01*
X124406199Y-83441000D02*
X124406199Y-83841000D01*
%TO.C,C3*%
X90385000Y-108950000D02*
G75*
G03*
X90385000Y-108950000I-2120000J0D01*
G01*
X90345000Y-108950000D02*
X86185000Y-108950000D01*
X90345000Y-108990000D02*
X86185000Y-108990000D01*
X90344000Y-109030000D02*
X86186000Y-109030000D01*
X90342000Y-109070000D02*
X86188000Y-109070000D01*
X90339000Y-109110000D02*
X86191000Y-109110000D01*
X90336000Y-109150000D02*
X89105000Y-109150000D01*
X87425000Y-109150000D02*
X86194000Y-109150000D01*
X90332000Y-109190000D02*
X89105000Y-109190000D01*
X87425000Y-109190000D02*
X86198000Y-109190000D01*
X90327000Y-109230000D02*
X89105000Y-109230000D01*
X87425000Y-109230000D02*
X86203000Y-109230000D01*
X90321000Y-109270000D02*
X89105000Y-109270000D01*
X87425000Y-109270000D02*
X86209000Y-109270000D01*
X90315000Y-109310000D02*
X89105000Y-109310000D01*
X87425000Y-109310000D02*
X86215000Y-109310000D01*
X90307000Y-109350000D02*
X89105000Y-109350000D01*
X87425000Y-109350000D02*
X86223000Y-109350000D01*
X90299000Y-109390000D02*
X89105000Y-109390000D01*
X87425000Y-109390000D02*
X86231000Y-109390000D01*
X90290000Y-109430000D02*
X89105000Y-109430000D01*
X87425000Y-109430000D02*
X86240000Y-109430000D01*
X90281000Y-109470000D02*
X89105000Y-109470000D01*
X87425000Y-109470000D02*
X86249000Y-109470000D01*
X90270000Y-109510000D02*
X89105000Y-109510000D01*
X87425000Y-109510000D02*
X86260000Y-109510000D01*
X90259000Y-109550000D02*
X89105000Y-109550000D01*
X87425000Y-109550000D02*
X86271000Y-109550000D01*
X90247000Y-109590000D02*
X89105000Y-109590000D01*
X87425000Y-109590000D02*
X86283000Y-109590000D01*
X90233000Y-109630000D02*
X89105000Y-109630000D01*
X87425000Y-109630000D02*
X86297000Y-109630000D01*
X90219000Y-109671000D02*
X89105000Y-109671000D01*
X87425000Y-109671000D02*
X86311000Y-109671000D01*
X90205000Y-109711000D02*
X89105000Y-109711000D01*
X87425000Y-109711000D02*
X86325000Y-109711000D01*
X90189000Y-109751000D02*
X89105000Y-109751000D01*
X87425000Y-109751000D02*
X86341000Y-109751000D01*
X90172000Y-109791000D02*
X89105000Y-109791000D01*
X87425000Y-109791000D02*
X86358000Y-109791000D01*
X90154000Y-109831000D02*
X89105000Y-109831000D01*
X87425000Y-109831000D02*
X86376000Y-109831000D01*
X90135000Y-109871000D02*
X89105000Y-109871000D01*
X87425000Y-109871000D02*
X86395000Y-109871000D01*
X90116000Y-109911000D02*
X89105000Y-109911000D01*
X87425000Y-109911000D02*
X86414000Y-109911000D01*
X90095000Y-109951000D02*
X89105000Y-109951000D01*
X87425000Y-109951000D02*
X86435000Y-109951000D01*
X90073000Y-109991000D02*
X89105000Y-109991000D01*
X87425000Y-109991000D02*
X86457000Y-109991000D01*
X90050000Y-110031000D02*
X89105000Y-110031000D01*
X87425000Y-110031000D02*
X86480000Y-110031000D01*
X90025000Y-110071000D02*
X89105000Y-110071000D01*
X87425000Y-110071000D02*
X86505000Y-110071000D01*
X90000000Y-110111000D02*
X89105000Y-110111000D01*
X87425000Y-110111000D02*
X86530000Y-110111000D01*
X89973000Y-110151000D02*
X89105000Y-110151000D01*
X87425000Y-110151000D02*
X86557000Y-110151000D01*
X89945000Y-110191000D02*
X89105000Y-110191000D01*
X87425000Y-110191000D02*
X86585000Y-110191000D01*
X89915000Y-110231000D02*
X89105000Y-110231000D01*
X87425000Y-110231000D02*
X86615000Y-110231000D01*
X89884000Y-110271000D02*
X89105000Y-110271000D01*
X87425000Y-110271000D02*
X86646000Y-110271000D01*
X89852000Y-110311000D02*
X89105000Y-110311000D01*
X87425000Y-110311000D02*
X86678000Y-110311000D01*
X89817000Y-110351000D02*
X89105000Y-110351000D01*
X87425000Y-110351000D02*
X86713000Y-110351000D01*
X89781000Y-110391000D02*
X89105000Y-110391000D01*
X87425000Y-110391000D02*
X86749000Y-110391000D01*
X89743000Y-110431000D02*
X89105000Y-110431000D01*
X87425000Y-110431000D02*
X86787000Y-110431000D01*
X89703000Y-110471000D02*
X89105000Y-110471000D01*
X87425000Y-110471000D02*
X86827000Y-110471000D01*
X89661000Y-110511000D02*
X89105000Y-110511000D01*
X87425000Y-110511000D02*
X86869000Y-110511000D01*
X89616000Y-110551000D02*
X89105000Y-110551000D01*
X87425000Y-110551000D02*
X86914000Y-110551000D01*
X89569000Y-110591000D02*
X89105000Y-110591000D01*
X87425000Y-110591000D02*
X86961000Y-110591000D01*
X89519000Y-110631000D02*
X89105000Y-110631000D01*
X87425000Y-110631000D02*
X87011000Y-110631000D01*
X89465000Y-110671000D02*
X89105000Y-110671000D01*
X87425000Y-110671000D02*
X87065000Y-110671000D01*
X89407000Y-110711000D02*
X89105000Y-110711000D01*
X87425000Y-110711000D02*
X87123000Y-110711000D01*
X89345000Y-110751000D02*
X89105000Y-110751000D01*
X87425000Y-110751000D02*
X87185000Y-110751000D01*
X89278000Y-110791000D02*
X87252000Y-110791000D01*
X89205000Y-110831000D02*
X87325000Y-110831000D01*
X89124000Y-110871000D02*
X87406000Y-110871000D01*
X89033000Y-110911000D02*
X87497000Y-110911000D01*
X88929000Y-110951000D02*
X87601000Y-110951000D01*
X88802000Y-110991000D02*
X87728000Y-110991000D01*
X88635000Y-111031000D02*
X87895000Y-111031000D01*
X89460000Y-106680199D02*
X89460000Y-107080199D01*
X89660000Y-106880199D02*
X89260000Y-106880199D01*
%TO.C,C4*%
X97355199Y-87505000D02*
X97355199Y-87905000D01*
X97155199Y-87705000D02*
X97555199Y-87705000D01*
X101506000Y-88530000D02*
X101506000Y-89270000D01*
X101466000Y-88363000D02*
X101466000Y-89437000D01*
X101426000Y-88236000D02*
X101426000Y-89564000D01*
X101386000Y-88132000D02*
X101386000Y-89668000D01*
X101346000Y-88041000D02*
X101346000Y-89759000D01*
X101306000Y-87960000D02*
X101306000Y-89840000D01*
X101266000Y-87887000D02*
X101266000Y-89913000D01*
X101226000Y-89740000D02*
X101226000Y-89980000D01*
X101226000Y-87820000D02*
X101226000Y-88060000D01*
X101186000Y-89740000D02*
X101186000Y-90042000D01*
X101186000Y-87758000D02*
X101186000Y-88060000D01*
X101146000Y-89740000D02*
X101146000Y-90100000D01*
X101146000Y-87700000D02*
X101146000Y-88060000D01*
X101106000Y-89740000D02*
X101106000Y-90154000D01*
X101106000Y-87646000D02*
X101106000Y-88060000D01*
X101066000Y-89740000D02*
X101066000Y-90204000D01*
X101066000Y-87596000D02*
X101066000Y-88060000D01*
X101026000Y-89740000D02*
X101026000Y-90251000D01*
X101026000Y-87549000D02*
X101026000Y-88060000D01*
X100986000Y-89740000D02*
X100986000Y-90296000D01*
X100986000Y-87504000D02*
X100986000Y-88060000D01*
X100946000Y-89740000D02*
X100946000Y-90338000D01*
X100946000Y-87462000D02*
X100946000Y-88060000D01*
X100906000Y-89740000D02*
X100906000Y-90378000D01*
X100906000Y-87422000D02*
X100906000Y-88060000D01*
X100866000Y-89740000D02*
X100866000Y-90416000D01*
X100866000Y-87384000D02*
X100866000Y-88060000D01*
X100826000Y-89740000D02*
X100826000Y-90452000D01*
X100826000Y-87348000D02*
X100826000Y-88060000D01*
X100786000Y-89740000D02*
X100786000Y-90487000D01*
X100786000Y-87313000D02*
X100786000Y-88060000D01*
X100746000Y-89740000D02*
X100746000Y-90519000D01*
X100746000Y-87281000D02*
X100746000Y-88060000D01*
X100706000Y-89740000D02*
X100706000Y-90550000D01*
X100706000Y-87250000D02*
X100706000Y-88060000D01*
X100666000Y-89740000D02*
X100666000Y-90580000D01*
X100666000Y-87220000D02*
X100666000Y-88060000D01*
X100626000Y-89740000D02*
X100626000Y-90608000D01*
X100626000Y-87192000D02*
X100626000Y-88060000D01*
X100586000Y-89740000D02*
X100586000Y-90635000D01*
X100586000Y-87165000D02*
X100586000Y-88060000D01*
X100546000Y-89740000D02*
X100546000Y-90660000D01*
X100546000Y-87140000D02*
X100546000Y-88060000D01*
X100506000Y-89740000D02*
X100506000Y-90685000D01*
X100506000Y-87115000D02*
X100506000Y-88060000D01*
X100466000Y-89740000D02*
X100466000Y-90708000D01*
X100466000Y-87092000D02*
X100466000Y-88060000D01*
X100426000Y-89740000D02*
X100426000Y-90730000D01*
X100426000Y-87070000D02*
X100426000Y-88060000D01*
X100386000Y-89740000D02*
X100386000Y-90751000D01*
X100386000Y-87049000D02*
X100386000Y-88060000D01*
X100346000Y-89740000D02*
X100346000Y-90770000D01*
X100346000Y-87030000D02*
X100346000Y-88060000D01*
X100306000Y-89740000D02*
X100306000Y-90789000D01*
X100306000Y-87011000D02*
X100306000Y-88060000D01*
X100266000Y-89740000D02*
X100266000Y-90807000D01*
X100266000Y-86993000D02*
X100266000Y-88060000D01*
X100226000Y-89740000D02*
X100226000Y-90824000D01*
X100226000Y-86976000D02*
X100226000Y-88060000D01*
X100186000Y-89740000D02*
X100186000Y-90840000D01*
X100186000Y-86960000D02*
X100186000Y-88060000D01*
X100146000Y-89740000D02*
X100146000Y-90854000D01*
X100146000Y-86946000D02*
X100146000Y-88060000D01*
X100105000Y-89740000D02*
X100105000Y-90868000D01*
X100105000Y-86932000D02*
X100105000Y-88060000D01*
X100065000Y-89740000D02*
X100065000Y-90882000D01*
X100065000Y-86918000D02*
X100065000Y-88060000D01*
X100025000Y-89740000D02*
X100025000Y-90894000D01*
X100025000Y-86906000D02*
X100025000Y-88060000D01*
X99985000Y-89740000D02*
X99985000Y-90905000D01*
X99985000Y-86895000D02*
X99985000Y-88060000D01*
X99945000Y-89740000D02*
X99945000Y-90916000D01*
X99945000Y-86884000D02*
X99945000Y-88060000D01*
X99905000Y-89740000D02*
X99905000Y-90925000D01*
X99905000Y-86875000D02*
X99905000Y-88060000D01*
X99865000Y-89740000D02*
X99865000Y-90934000D01*
X99865000Y-86866000D02*
X99865000Y-88060000D01*
X99825000Y-89740000D02*
X99825000Y-90942000D01*
X99825000Y-86858000D02*
X99825000Y-88060000D01*
X99785000Y-89740000D02*
X99785000Y-90950000D01*
X99785000Y-86850000D02*
X99785000Y-88060000D01*
X99745000Y-89740000D02*
X99745000Y-90956000D01*
X99745000Y-86844000D02*
X99745000Y-88060000D01*
X99705000Y-89740000D02*
X99705000Y-90962000D01*
X99705000Y-86838000D02*
X99705000Y-88060000D01*
X99665000Y-89740000D02*
X99665000Y-90967000D01*
X99665000Y-86833000D02*
X99665000Y-88060000D01*
X99625000Y-89740000D02*
X99625000Y-90971000D01*
X99625000Y-86829000D02*
X99625000Y-88060000D01*
X99585000Y-86826000D02*
X99585000Y-90974000D01*
X99545000Y-86823000D02*
X99545000Y-90977000D01*
X99505000Y-86821000D02*
X99505000Y-90979000D01*
X99465000Y-86820000D02*
X99465000Y-90980000D01*
X99425000Y-86820000D02*
X99425000Y-90980000D01*
X101545000Y-88900000D02*
G75*
G03*
X101545000Y-88900000I-2120000J0D01*
G01*
%TO.C,C6*%
X93335000Y-112372211D02*
X94085000Y-112372211D01*
X93710000Y-112747211D02*
X93710000Y-111997211D01*
X95444000Y-104764000D02*
X96326000Y-104764000D01*
X95192000Y-104804000D02*
X96578000Y-104804000D01*
X95008000Y-104844000D02*
X96762000Y-104844000D01*
X94857000Y-104884000D02*
X96913000Y-104884000D01*
X94727000Y-104924000D02*
X97043000Y-104924000D01*
X94610000Y-104964000D02*
X97160000Y-104964000D01*
X94504000Y-105004000D02*
X97266000Y-105004000D01*
X94407000Y-105044000D02*
X97363000Y-105044000D01*
X94316000Y-105084000D02*
X97454000Y-105084000D01*
X94231000Y-105124000D02*
X97539000Y-105124000D01*
X94152000Y-105164000D02*
X97618000Y-105164000D01*
X94076000Y-105204000D02*
X97694000Y-105204000D01*
X94004000Y-105244000D02*
X97766000Y-105244000D01*
X93936000Y-105284000D02*
X97834000Y-105284000D01*
X93871000Y-105324000D02*
X97899000Y-105324000D01*
X93808000Y-105364000D02*
X97962000Y-105364000D01*
X93748000Y-105404000D02*
X98022000Y-105404000D01*
X93690000Y-105444000D02*
X98080000Y-105444000D01*
X93635000Y-105484000D02*
X98135000Y-105484000D01*
X93581000Y-105524000D02*
X98189000Y-105524000D01*
X93530000Y-105564000D02*
X98240000Y-105564000D01*
X93480000Y-105604000D02*
X98290000Y-105604000D01*
X93431000Y-105644000D02*
X98339000Y-105644000D01*
X93385000Y-105684000D02*
X98385000Y-105684000D01*
X93339000Y-105724000D02*
X98431000Y-105724000D01*
X93296000Y-105764000D02*
X98474000Y-105764000D01*
X93253000Y-105804000D02*
X98517000Y-105804000D01*
X93212000Y-105844000D02*
X98558000Y-105844000D01*
X93172000Y-105884000D02*
X98598000Y-105884000D01*
X93133000Y-105924000D02*
X98637000Y-105924000D01*
X93095000Y-105964000D02*
X98675000Y-105964000D01*
X93058000Y-106004000D02*
X98712000Y-106004000D01*
X93022000Y-106044000D02*
X98748000Y-106044000D01*
X92987000Y-106084000D02*
X98783000Y-106084000D01*
X92954000Y-106124000D02*
X98816000Y-106124000D01*
X92921000Y-106164000D02*
X98849000Y-106164000D01*
X92889000Y-106204000D02*
X98881000Y-106204000D01*
X92857000Y-106244000D02*
X98913000Y-106244000D01*
X92827000Y-106284000D02*
X98943000Y-106284000D01*
X96925000Y-106324000D02*
X98973000Y-106324000D01*
X92797000Y-106324000D02*
X94845000Y-106324000D01*
X96925000Y-106364000D02*
X99001000Y-106364000D01*
X92769000Y-106364000D02*
X94845000Y-106364000D01*
X96925000Y-106404000D02*
X99029000Y-106404000D01*
X92741000Y-106404000D02*
X94845000Y-106404000D01*
X96925000Y-106444000D02*
X99057000Y-106444000D01*
X92713000Y-106444000D02*
X94845000Y-106444000D01*
X96925000Y-106484000D02*
X99083000Y-106484000D01*
X92687000Y-106484000D02*
X94845000Y-106484000D01*
X96925000Y-106524000D02*
X99109000Y-106524000D01*
X92661000Y-106524000D02*
X94845000Y-106524000D01*
X96925000Y-106564000D02*
X99134000Y-106564000D01*
X92636000Y-106564000D02*
X94845000Y-106564000D01*
X96925000Y-106604000D02*
X99159000Y-106604000D01*
X92611000Y-106604000D02*
X94845000Y-106604000D01*
X96925000Y-106644000D02*
X99182000Y-106644000D01*
X92588000Y-106644000D02*
X94845000Y-106644000D01*
X96925000Y-106684000D02*
X99206000Y-106684000D01*
X92564000Y-106684000D02*
X94845000Y-106684000D01*
X96925000Y-106724000D02*
X99228000Y-106724000D01*
X92542000Y-106724000D02*
X94845000Y-106724000D01*
X96925000Y-106764000D02*
X99250000Y-106764000D01*
X92520000Y-106764000D02*
X94845000Y-106764000D01*
X96925000Y-106804000D02*
X99271000Y-106804000D01*
X92499000Y-106804000D02*
X94845000Y-106804000D01*
X96925000Y-106844000D02*
X99292000Y-106844000D01*
X92478000Y-106844000D02*
X94845000Y-106844000D01*
X96925000Y-106884000D02*
X99312000Y-106884000D01*
X92458000Y-106884000D02*
X94845000Y-106884000D01*
X96925000Y-106924000D02*
X99332000Y-106924000D01*
X92438000Y-106924000D02*
X94845000Y-106924000D01*
X96925000Y-106964000D02*
X99351000Y-106964000D01*
X92419000Y-106964000D02*
X94845000Y-106964000D01*
X96925000Y-107004000D02*
X99369000Y-107004000D01*
X92401000Y-107004000D02*
X94845000Y-107004000D01*
X96925000Y-107044000D02*
X99387000Y-107044000D01*
X92383000Y-107044000D02*
X94845000Y-107044000D01*
X96925000Y-107084000D02*
X99405000Y-107084000D01*
X92365000Y-107084000D02*
X94845000Y-107084000D01*
X96925000Y-107124000D02*
X99421000Y-107124000D01*
X92349000Y-107124000D02*
X94845000Y-107124000D01*
X96925000Y-107164000D02*
X99438000Y-107164000D01*
X92332000Y-107164000D02*
X94845000Y-107164000D01*
X96925000Y-107204000D02*
X99453000Y-107204000D01*
X92317000Y-107204000D02*
X94845000Y-107204000D01*
X96925000Y-107244000D02*
X99469000Y-107244000D01*
X92301000Y-107244000D02*
X94845000Y-107244000D01*
X96925000Y-107284000D02*
X99483000Y-107284000D01*
X92287000Y-107284000D02*
X94845000Y-107284000D01*
X96925000Y-107324000D02*
X99498000Y-107324000D01*
X92272000Y-107324000D02*
X94845000Y-107324000D01*
X96925000Y-107364000D02*
X99511000Y-107364000D01*
X92259000Y-107364000D02*
X94845000Y-107364000D01*
X96925000Y-107404000D02*
X99525000Y-107404000D01*
X92245000Y-107404000D02*
X94845000Y-107404000D01*
X96925000Y-107444000D02*
X99538000Y-107444000D01*
X92232000Y-107444000D02*
X94845000Y-107444000D01*
X96925000Y-107484000D02*
X99550000Y-107484000D01*
X92220000Y-107484000D02*
X94845000Y-107484000D01*
X96925000Y-107524000D02*
X99562000Y-107524000D01*
X92208000Y-107524000D02*
X94845000Y-107524000D01*
X96925000Y-107564000D02*
X99573000Y-107564000D01*
X92197000Y-107564000D02*
X94845000Y-107564000D01*
X96925000Y-107604000D02*
X99584000Y-107604000D01*
X92186000Y-107604000D02*
X94845000Y-107604000D01*
X96925000Y-107644000D02*
X99595000Y-107644000D01*
X92175000Y-107644000D02*
X94845000Y-107644000D01*
X96925000Y-107684000D02*
X99605000Y-107684000D01*
X92165000Y-107684000D02*
X94845000Y-107684000D01*
X96925000Y-107724000D02*
X99614000Y-107724000D01*
X92156000Y-107724000D02*
X94845000Y-107724000D01*
X96925000Y-107764000D02*
X99623000Y-107764000D01*
X92147000Y-107764000D02*
X94845000Y-107764000D01*
X96925000Y-107804000D02*
X99632000Y-107804000D01*
X92138000Y-107804000D02*
X94845000Y-107804000D01*
X96925000Y-107844000D02*
X99640000Y-107844000D01*
X92130000Y-107844000D02*
X94845000Y-107844000D01*
X96925000Y-107884000D02*
X99648000Y-107884000D01*
X92122000Y-107884000D02*
X94845000Y-107884000D01*
X96925000Y-107925000D02*
X99655000Y-107925000D01*
X92115000Y-107925000D02*
X94845000Y-107925000D01*
X96925000Y-107965000D02*
X99662000Y-107965000D01*
X92108000Y-107965000D02*
X94845000Y-107965000D01*
X96925000Y-108005000D02*
X99669000Y-108005000D01*
X92101000Y-108005000D02*
X94845000Y-108005000D01*
X96925000Y-108045000D02*
X99675000Y-108045000D01*
X92095000Y-108045000D02*
X94845000Y-108045000D01*
X96925000Y-108085000D02*
X99680000Y-108085000D01*
X92090000Y-108085000D02*
X94845000Y-108085000D01*
X96925000Y-108125000D02*
X99686000Y-108125000D01*
X92084000Y-108125000D02*
X94845000Y-108125000D01*
X96925000Y-108165000D02*
X99690000Y-108165000D01*
X92080000Y-108165000D02*
X94845000Y-108165000D01*
X96925000Y-108205000D02*
X99695000Y-108205000D01*
X92075000Y-108205000D02*
X94845000Y-108205000D01*
X96925000Y-108245000D02*
X99699000Y-108245000D01*
X92071000Y-108245000D02*
X94845000Y-108245000D01*
X96925000Y-108285000D02*
X99702000Y-108285000D01*
X92068000Y-108285000D02*
X94845000Y-108285000D01*
X96925000Y-108325000D02*
X99705000Y-108325000D01*
X92065000Y-108325000D02*
X94845000Y-108325000D01*
X96925000Y-108365000D02*
X99708000Y-108365000D01*
X92062000Y-108365000D02*
X94845000Y-108365000D01*
X92060000Y-108405000D02*
X99710000Y-108405000D01*
X92058000Y-108445000D02*
X99712000Y-108445000D01*
X92056000Y-108485000D02*
X99714000Y-108485000D01*
X92055000Y-108525000D02*
X99715000Y-108525000D01*
X92055000Y-108565000D02*
X99715000Y-108565000D01*
X92055000Y-108605000D02*
X99715000Y-108605000D01*
X99755000Y-108605000D02*
G75*
G03*
X99755000Y-108605000I-3870000J0D01*
G01*
%TO.C,C7*%
X137220000Y-116820000D02*
G75*
G03*
X137220000Y-116820000I-3870000J0D01*
G01*
X137180000Y-116820000D02*
X129520000Y-116820000D01*
X137180000Y-116860000D02*
X129520000Y-116860000D01*
X137180000Y-116900000D02*
X129520000Y-116900000D01*
X137179000Y-116940000D02*
X129521000Y-116940000D01*
X137177000Y-116980000D02*
X129523000Y-116980000D01*
X137175000Y-117020000D02*
X129525000Y-117020000D01*
X137173000Y-117060000D02*
X134390000Y-117060000D01*
X132310000Y-117060000D02*
X129527000Y-117060000D01*
X137170000Y-117100000D02*
X134390000Y-117100000D01*
X132310000Y-117100000D02*
X129530000Y-117100000D01*
X137167000Y-117140000D02*
X134390000Y-117140000D01*
X132310000Y-117140000D02*
X129533000Y-117140000D01*
X137164000Y-117180000D02*
X134390000Y-117180000D01*
X132310000Y-117180000D02*
X129536000Y-117180000D01*
X137160000Y-117220000D02*
X134390000Y-117220000D01*
X132310000Y-117220000D02*
X129540000Y-117220000D01*
X137155000Y-117260000D02*
X134390000Y-117260000D01*
X132310000Y-117260000D02*
X129545000Y-117260000D01*
X137151000Y-117300000D02*
X134390000Y-117300000D01*
X132310000Y-117300000D02*
X129549000Y-117300000D01*
X137145000Y-117340000D02*
X134390000Y-117340000D01*
X132310000Y-117340000D02*
X129555000Y-117340000D01*
X137140000Y-117380000D02*
X134390000Y-117380000D01*
X132310000Y-117380000D02*
X129560000Y-117380000D01*
X137134000Y-117420000D02*
X134390000Y-117420000D01*
X132310000Y-117420000D02*
X129566000Y-117420000D01*
X137127000Y-117460000D02*
X134390000Y-117460000D01*
X132310000Y-117460000D02*
X129573000Y-117460000D01*
X137120000Y-117500000D02*
X134390000Y-117500000D01*
X132310000Y-117500000D02*
X129580000Y-117500000D01*
X137113000Y-117541000D02*
X134390000Y-117541000D01*
X132310000Y-117541000D02*
X129587000Y-117541000D01*
X137105000Y-117581000D02*
X134390000Y-117581000D01*
X132310000Y-117581000D02*
X129595000Y-117581000D01*
X137097000Y-117621000D02*
X134390000Y-117621000D01*
X132310000Y-117621000D02*
X129603000Y-117621000D01*
X137088000Y-117661000D02*
X134390000Y-117661000D01*
X132310000Y-117661000D02*
X129612000Y-117661000D01*
X137079000Y-117701000D02*
X134390000Y-117701000D01*
X132310000Y-117701000D02*
X129621000Y-117701000D01*
X137070000Y-117741000D02*
X134390000Y-117741000D01*
X132310000Y-117741000D02*
X129630000Y-117741000D01*
X137060000Y-117781000D02*
X134390000Y-117781000D01*
X132310000Y-117781000D02*
X129640000Y-117781000D01*
X137049000Y-117821000D02*
X134390000Y-117821000D01*
X132310000Y-117821000D02*
X129651000Y-117821000D01*
X137038000Y-117861000D02*
X134390000Y-117861000D01*
X132310000Y-117861000D02*
X129662000Y-117861000D01*
X137027000Y-117901000D02*
X134390000Y-117901000D01*
X132310000Y-117901000D02*
X129673000Y-117901000D01*
X137015000Y-117941000D02*
X134390000Y-117941000D01*
X132310000Y-117941000D02*
X129685000Y-117941000D01*
X137003000Y-117981000D02*
X134390000Y-117981000D01*
X132310000Y-117981000D02*
X129697000Y-117981000D01*
X136990000Y-118021000D02*
X134390000Y-118021000D01*
X132310000Y-118021000D02*
X129710000Y-118021000D01*
X136976000Y-118061000D02*
X134390000Y-118061000D01*
X132310000Y-118061000D02*
X129724000Y-118061000D01*
X136963000Y-118101000D02*
X134390000Y-118101000D01*
X132310000Y-118101000D02*
X129737000Y-118101000D01*
X136948000Y-118141000D02*
X134390000Y-118141000D01*
X132310000Y-118141000D02*
X129752000Y-118141000D01*
X136934000Y-118181000D02*
X134390000Y-118181000D01*
X132310000Y-118181000D02*
X129766000Y-118181000D01*
X136918000Y-118221000D02*
X134390000Y-118221000D01*
X132310000Y-118221000D02*
X129782000Y-118221000D01*
X136903000Y-118261000D02*
X134390000Y-118261000D01*
X132310000Y-118261000D02*
X129797000Y-118261000D01*
X136886000Y-118301000D02*
X134390000Y-118301000D01*
X132310000Y-118301000D02*
X129814000Y-118301000D01*
X136870000Y-118341000D02*
X134390000Y-118341000D01*
X132310000Y-118341000D02*
X129830000Y-118341000D01*
X136852000Y-118381000D02*
X134390000Y-118381000D01*
X132310000Y-118381000D02*
X129848000Y-118381000D01*
X136834000Y-118421000D02*
X134390000Y-118421000D01*
X132310000Y-118421000D02*
X129866000Y-118421000D01*
X136816000Y-118461000D02*
X134390000Y-118461000D01*
X132310000Y-118461000D02*
X129884000Y-118461000D01*
X136797000Y-118501000D02*
X134390000Y-118501000D01*
X132310000Y-118501000D02*
X129903000Y-118501000D01*
X136777000Y-118541000D02*
X134390000Y-118541000D01*
X132310000Y-118541000D02*
X129923000Y-118541000D01*
X136757000Y-118581000D02*
X134390000Y-118581000D01*
X132310000Y-118581000D02*
X129943000Y-118581000D01*
X136736000Y-118621000D02*
X134390000Y-118621000D01*
X132310000Y-118621000D02*
X129964000Y-118621000D01*
X136715000Y-118661000D02*
X134390000Y-118661000D01*
X132310000Y-118661000D02*
X129985000Y-118661000D01*
X136693000Y-118701000D02*
X134390000Y-118701000D01*
X132310000Y-118701000D02*
X130007000Y-118701000D01*
X136671000Y-118741000D02*
X134390000Y-118741000D01*
X132310000Y-118741000D02*
X130029000Y-118741000D01*
X136647000Y-118781000D02*
X134390000Y-118781000D01*
X132310000Y-118781000D02*
X130053000Y-118781000D01*
X136624000Y-118821000D02*
X134390000Y-118821000D01*
X132310000Y-118821000D02*
X130076000Y-118821000D01*
X136599000Y-118861000D02*
X134390000Y-118861000D01*
X132310000Y-118861000D02*
X130101000Y-118861000D01*
X136574000Y-118901000D02*
X134390000Y-118901000D01*
X132310000Y-118901000D02*
X130126000Y-118901000D01*
X136548000Y-118941000D02*
X134390000Y-118941000D01*
X132310000Y-118941000D02*
X130152000Y-118941000D01*
X136522000Y-118981000D02*
X134390000Y-118981000D01*
X132310000Y-118981000D02*
X130178000Y-118981000D01*
X136494000Y-119021000D02*
X134390000Y-119021000D01*
X132310000Y-119021000D02*
X130206000Y-119021000D01*
X136466000Y-119061000D02*
X134390000Y-119061000D01*
X132310000Y-119061000D02*
X130234000Y-119061000D01*
X136438000Y-119101000D02*
X134390000Y-119101000D01*
X132310000Y-119101000D02*
X130262000Y-119101000D01*
X136408000Y-119141000D02*
X130292000Y-119141000D01*
X136378000Y-119181000D02*
X130322000Y-119181000D01*
X136346000Y-119221000D02*
X130354000Y-119221000D01*
X136314000Y-119261000D02*
X130386000Y-119261000D01*
X136281000Y-119301000D02*
X130419000Y-119301000D01*
X136248000Y-119341000D02*
X130452000Y-119341000D01*
X136213000Y-119381000D02*
X130487000Y-119381000D01*
X136177000Y-119421000D02*
X130523000Y-119421000D01*
X136140000Y-119461000D02*
X130560000Y-119461000D01*
X136102000Y-119501000D02*
X130598000Y-119501000D01*
X136063000Y-119541000D02*
X130637000Y-119541000D01*
X136023000Y-119581000D02*
X130677000Y-119581000D01*
X135982000Y-119621000D02*
X130718000Y-119621000D01*
X135939000Y-119661000D02*
X130761000Y-119661000D01*
X135896000Y-119701000D02*
X130804000Y-119701000D01*
X135850000Y-119741000D02*
X130850000Y-119741000D01*
X135804000Y-119781000D02*
X130896000Y-119781000D01*
X135755000Y-119821000D02*
X130945000Y-119821000D01*
X135705000Y-119861000D02*
X130995000Y-119861000D01*
X135654000Y-119901000D02*
X131046000Y-119901000D01*
X135600000Y-119941000D02*
X131100000Y-119941000D01*
X135545000Y-119981000D02*
X131155000Y-119981000D01*
X135487000Y-120021000D02*
X131213000Y-120021000D01*
X135427000Y-120061000D02*
X131273000Y-120061000D01*
X135364000Y-120101000D02*
X131336000Y-120101000D01*
X135299000Y-120141000D02*
X131401000Y-120141000D01*
X135231000Y-120181000D02*
X131469000Y-120181000D01*
X135159000Y-120221000D02*
X131541000Y-120221000D01*
X135083000Y-120261000D02*
X131617000Y-120261000D01*
X135004000Y-120301000D02*
X131696000Y-120301000D01*
X134919000Y-120341000D02*
X131781000Y-120341000D01*
X134828000Y-120381000D02*
X131872000Y-120381000D01*
X134731000Y-120421000D02*
X131969000Y-120421000D01*
X134625000Y-120461000D02*
X132075000Y-120461000D01*
X134508000Y-120501000D02*
X132192000Y-120501000D01*
X134378000Y-120541000D02*
X132322000Y-120541000D01*
X134227000Y-120581000D02*
X132473000Y-120581000D01*
X134043000Y-120621000D02*
X132657000Y-120621000D01*
X133791000Y-120661000D02*
X132909000Y-120661000D01*
X135525000Y-112677789D02*
X135525000Y-113427789D01*
X135900000Y-113052789D02*
X135150000Y-113052789D01*
%TO.C,C8*%
X112475000Y-103505000D02*
G75*
G03*
X112475000Y-103505000I-3870000J0D01*
G01*
X108605000Y-107335000D02*
X108605000Y-99675000D01*
X108565000Y-107335000D02*
X108565000Y-99675000D01*
X108525000Y-107335000D02*
X108525000Y-99675000D01*
X108485000Y-107334000D02*
X108485000Y-99676000D01*
X108445000Y-107332000D02*
X108445000Y-99678000D01*
X108405000Y-107330000D02*
X108405000Y-99680000D01*
X108365000Y-107328000D02*
X108365000Y-104545000D01*
X108365000Y-102465000D02*
X108365000Y-99682000D01*
X108325000Y-107325000D02*
X108325000Y-104545000D01*
X108325000Y-102465000D02*
X108325000Y-99685000D01*
X108285000Y-107322000D02*
X108285000Y-104545000D01*
X108285000Y-102465000D02*
X108285000Y-99688000D01*
X108245000Y-107319000D02*
X108245000Y-104545000D01*
X108245000Y-102465000D02*
X108245000Y-99691000D01*
X108205000Y-107315000D02*
X108205000Y-104545000D01*
X108205000Y-102465000D02*
X108205000Y-99695000D01*
X108165000Y-107310000D02*
X108165000Y-104545000D01*
X108165000Y-102465000D02*
X108165000Y-99700000D01*
X108125000Y-107306000D02*
X108125000Y-104545000D01*
X108125000Y-102465000D02*
X108125000Y-99704000D01*
X108085000Y-107300000D02*
X108085000Y-104545000D01*
X108085000Y-102465000D02*
X108085000Y-99710000D01*
X108045000Y-107295000D02*
X108045000Y-104545000D01*
X108045000Y-102465000D02*
X108045000Y-99715000D01*
X108005000Y-107289000D02*
X108005000Y-104545000D01*
X108005000Y-102465000D02*
X108005000Y-99721000D01*
X107965000Y-107282000D02*
X107965000Y-104545000D01*
X107965000Y-102465000D02*
X107965000Y-99728000D01*
X107925000Y-107275000D02*
X107925000Y-104545000D01*
X107925000Y-102465000D02*
X107925000Y-99735000D01*
X107884000Y-107268000D02*
X107884000Y-104545000D01*
X107884000Y-102465000D02*
X107884000Y-99742000D01*
X107844000Y-107260000D02*
X107844000Y-104545000D01*
X107844000Y-102465000D02*
X107844000Y-99750000D01*
X107804000Y-107252000D02*
X107804000Y-104545000D01*
X107804000Y-102465000D02*
X107804000Y-99758000D01*
X107764000Y-107243000D02*
X107764000Y-104545000D01*
X107764000Y-102465000D02*
X107764000Y-99767000D01*
X107724000Y-107234000D02*
X107724000Y-104545000D01*
X107724000Y-102465000D02*
X107724000Y-99776000D01*
X107684000Y-107225000D02*
X107684000Y-104545000D01*
X107684000Y-102465000D02*
X107684000Y-99785000D01*
X107644000Y-107215000D02*
X107644000Y-104545000D01*
X107644000Y-102465000D02*
X107644000Y-99795000D01*
X107604000Y-107204000D02*
X107604000Y-104545000D01*
X107604000Y-102465000D02*
X107604000Y-99806000D01*
X107564000Y-107193000D02*
X107564000Y-104545000D01*
X107564000Y-102465000D02*
X107564000Y-99817000D01*
X107524000Y-107182000D02*
X107524000Y-104545000D01*
X107524000Y-102465000D02*
X107524000Y-99828000D01*
X107484000Y-107170000D02*
X107484000Y-104545000D01*
X107484000Y-102465000D02*
X107484000Y-99840000D01*
X107444000Y-107158000D02*
X107444000Y-104545000D01*
X107444000Y-102465000D02*
X107444000Y-99852000D01*
X107404000Y-107145000D02*
X107404000Y-104545000D01*
X107404000Y-102465000D02*
X107404000Y-99865000D01*
X107364000Y-107131000D02*
X107364000Y-104545000D01*
X107364000Y-102465000D02*
X107364000Y-99879000D01*
X107324000Y-107118000D02*
X107324000Y-104545000D01*
X107324000Y-102465000D02*
X107324000Y-99892000D01*
X107284000Y-107103000D02*
X107284000Y-104545000D01*
X107284000Y-102465000D02*
X107284000Y-99907000D01*
X107244000Y-107089000D02*
X107244000Y-104545000D01*
X107244000Y-102465000D02*
X107244000Y-99921000D01*
X107204000Y-107073000D02*
X107204000Y-104545000D01*
X107204000Y-102465000D02*
X107204000Y-99937000D01*
X107164000Y-107058000D02*
X107164000Y-104545000D01*
X107164000Y-102465000D02*
X107164000Y-99952000D01*
X107124000Y-107041000D02*
X107124000Y-104545000D01*
X107124000Y-102465000D02*
X107124000Y-99969000D01*
X107084000Y-107025000D02*
X107084000Y-104545000D01*
X107084000Y-102465000D02*
X107084000Y-99985000D01*
X107044000Y-107007000D02*
X107044000Y-104545000D01*
X107044000Y-102465000D02*
X107044000Y-100003000D01*
X107004000Y-106989000D02*
X107004000Y-104545000D01*
X107004000Y-102465000D02*
X107004000Y-100021000D01*
X106964000Y-106971000D02*
X106964000Y-104545000D01*
X106964000Y-102465000D02*
X106964000Y-100039000D01*
X106924000Y-106952000D02*
X106924000Y-104545000D01*
X106924000Y-102465000D02*
X106924000Y-100058000D01*
X106884000Y-106932000D02*
X106884000Y-104545000D01*
X106884000Y-102465000D02*
X106884000Y-100078000D01*
X106844000Y-106912000D02*
X106844000Y-104545000D01*
X106844000Y-102465000D02*
X106844000Y-100098000D01*
X106804000Y-106891000D02*
X106804000Y-104545000D01*
X106804000Y-102465000D02*
X106804000Y-100119000D01*
X106764000Y-106870000D02*
X106764000Y-104545000D01*
X106764000Y-102465000D02*
X106764000Y-100140000D01*
X106724000Y-106848000D02*
X106724000Y-104545000D01*
X106724000Y-102465000D02*
X106724000Y-100162000D01*
X106684000Y-106826000D02*
X106684000Y-104545000D01*
X106684000Y-102465000D02*
X106684000Y-100184000D01*
X106644000Y-106802000D02*
X106644000Y-104545000D01*
X106644000Y-102465000D02*
X106644000Y-100208000D01*
X106604000Y-106779000D02*
X106604000Y-104545000D01*
X106604000Y-102465000D02*
X106604000Y-100231000D01*
X106564000Y-106754000D02*
X106564000Y-104545000D01*
X106564000Y-102465000D02*
X106564000Y-100256000D01*
X106524000Y-106729000D02*
X106524000Y-104545000D01*
X106524000Y-102465000D02*
X106524000Y-100281000D01*
X106484000Y-106703000D02*
X106484000Y-104545000D01*
X106484000Y-102465000D02*
X106484000Y-100307000D01*
X106444000Y-106677000D02*
X106444000Y-104545000D01*
X106444000Y-102465000D02*
X106444000Y-100333000D01*
X106404000Y-106649000D02*
X106404000Y-104545000D01*
X106404000Y-102465000D02*
X106404000Y-100361000D01*
X106364000Y-106621000D02*
X106364000Y-104545000D01*
X106364000Y-102465000D02*
X106364000Y-100389000D01*
X106324000Y-106593000D02*
X106324000Y-104545000D01*
X106324000Y-102465000D02*
X106324000Y-100417000D01*
X106284000Y-106563000D02*
X106284000Y-100447000D01*
X106244000Y-106533000D02*
X106244000Y-100477000D01*
X106204000Y-106501000D02*
X106204000Y-100509000D01*
X106164000Y-106469000D02*
X106164000Y-100541000D01*
X106124000Y-106436000D02*
X106124000Y-100574000D01*
X106084000Y-106403000D02*
X106084000Y-100607000D01*
X106044000Y-106368000D02*
X106044000Y-100642000D01*
X106004000Y-106332000D02*
X106004000Y-100678000D01*
X105964000Y-106295000D02*
X105964000Y-100715000D01*
X105924000Y-106257000D02*
X105924000Y-100753000D01*
X105884000Y-106218000D02*
X105884000Y-100792000D01*
X105844000Y-106178000D02*
X105844000Y-100832000D01*
X105804000Y-106137000D02*
X105804000Y-100873000D01*
X105764000Y-106094000D02*
X105764000Y-100916000D01*
X105724000Y-106051000D02*
X105724000Y-100959000D01*
X105684000Y-106005000D02*
X105684000Y-101005000D01*
X105644000Y-105959000D02*
X105644000Y-101051000D01*
X105604000Y-105910000D02*
X105604000Y-101100000D01*
X105564000Y-105860000D02*
X105564000Y-101150000D01*
X105524000Y-105809000D02*
X105524000Y-101201000D01*
X105484000Y-105755000D02*
X105484000Y-101255000D01*
X105444000Y-105700000D02*
X105444000Y-101310000D01*
X105404000Y-105642000D02*
X105404000Y-101368000D01*
X105364000Y-105582000D02*
X105364000Y-101428000D01*
X105324000Y-105519000D02*
X105324000Y-101491000D01*
X105284000Y-105454000D02*
X105284000Y-101556000D01*
X105244000Y-105386000D02*
X105244000Y-101624000D01*
X105204000Y-105314000D02*
X105204000Y-101696000D01*
X105164000Y-105238000D02*
X105164000Y-101772000D01*
X105124000Y-105159000D02*
X105124000Y-101851000D01*
X105084000Y-105074000D02*
X105084000Y-101936000D01*
X105044000Y-104983000D02*
X105044000Y-102027000D01*
X105004000Y-104886000D02*
X105004000Y-102124000D01*
X104964000Y-104780000D02*
X104964000Y-102230000D01*
X104924000Y-104663000D02*
X104924000Y-102347000D01*
X104884000Y-104533000D02*
X104884000Y-102477000D01*
X104844000Y-104382000D02*
X104844000Y-102628000D01*
X104804000Y-104198000D02*
X104804000Y-102812000D01*
X104764000Y-103946000D02*
X104764000Y-103064000D01*
X112747211Y-105680000D02*
X111997211Y-105680000D01*
X112372211Y-106055000D02*
X112372211Y-105305000D01*
%TO.C,C9*%
X164995000Y-78395000D02*
X164995000Y-78640000D01*
X164995000Y-76300000D02*
X164995000Y-76545000D01*
X161355000Y-78395000D02*
X161355000Y-78640000D01*
X161355000Y-76300000D02*
X161355000Y-76545000D01*
X161355000Y-78640000D02*
X164995000Y-78640000D01*
X161355000Y-76300000D02*
X164995000Y-76300000D01*
%TO.C,C10*%
X170075000Y-78395000D02*
X170075000Y-78640000D01*
X170075000Y-76300000D02*
X170075000Y-76545000D01*
X166435000Y-78395000D02*
X166435000Y-78640000D01*
X166435000Y-76300000D02*
X166435000Y-76545000D01*
X166435000Y-78640000D02*
X170075000Y-78640000D01*
X166435000Y-76300000D02*
X170075000Y-76300000D01*
%TO.C,C11*%
X175360000Y-81850000D02*
X175360000Y-78210000D01*
X177700000Y-81850000D02*
X177700000Y-78210000D01*
X175360000Y-81850000D02*
X175605000Y-81850000D01*
X177455000Y-81850000D02*
X177700000Y-81850000D01*
X175360000Y-78210000D02*
X175605000Y-78210000D01*
X177455000Y-78210000D02*
X177700000Y-78210000D01*
%TO.C,D1*%
X117365000Y-118575000D02*
X117365000Y-118095000D01*
X117365000Y-118095000D02*
X125205000Y-118095000D01*
X125205000Y-118095000D02*
X125205000Y-118575000D01*
X117365000Y-121455000D02*
X117365000Y-121935000D01*
X117365000Y-121935000D02*
X125205000Y-121935000D01*
X125205000Y-121935000D02*
X125205000Y-121455000D01*
X118625000Y-118095000D02*
X118625000Y-121935000D01*
X118745000Y-118095000D02*
X118745000Y-121935000D01*
X118505000Y-118095000D02*
X118505000Y-121935000D01*
%TO.C,J1*%
X86935000Y-85665000D02*
X88265000Y-85665000D01*
X86935000Y-86995000D02*
X86935000Y-85665000D01*
X86935000Y-88265000D02*
X89595000Y-88265000D01*
X89595000Y-88265000D02*
X89595000Y-88325000D01*
X86935000Y-88265000D02*
X86935000Y-88325000D01*
X86935000Y-88325000D02*
X89595000Y-88325000D01*
%TO.C,J2*%
X86935000Y-92770000D02*
X89595000Y-92770000D01*
X86935000Y-92710000D02*
X86935000Y-92770000D01*
X89595000Y-92710000D02*
X89595000Y-92770000D01*
X86935000Y-92710000D02*
X89595000Y-92710000D01*
X86935000Y-91440000D02*
X86935000Y-90110000D01*
X86935000Y-90110000D02*
X88265000Y-90110000D01*
%TO.C,J4*%
X123638000Y-81340000D02*
X126298000Y-81340000D01*
X123638000Y-81280000D02*
X123638000Y-81340000D01*
X126298000Y-81280000D02*
X126298000Y-81340000D01*
X123638000Y-81280000D02*
X126298000Y-81280000D01*
X123638000Y-80010000D02*
X123638000Y-78680000D01*
X123638000Y-78680000D02*
X124968000Y-78680000D01*
%TO.C,J5*%
X104588000Y-81086000D02*
X107248000Y-81086000D01*
X104588000Y-81026000D02*
X104588000Y-81086000D01*
X107248000Y-81026000D02*
X107248000Y-81086000D01*
X104588000Y-81026000D02*
X107248000Y-81026000D01*
X104588000Y-79756000D02*
X104588000Y-78426000D01*
X104588000Y-78426000D02*
X105918000Y-78426000D01*
%TO.C,J6*%
X153610000Y-79696000D02*
X153610000Y-82356000D01*
X171450000Y-79696000D02*
X153610000Y-79696000D01*
X171450000Y-82356000D02*
X153610000Y-82356000D01*
X171450000Y-79696000D02*
X171450000Y-82356000D01*
X172720000Y-79696000D02*
X174050000Y-79696000D01*
X174050000Y-79696000D02*
X174050000Y-81026000D01*
%TO.C,J7*%
X106740000Y-118170000D02*
X105410000Y-118170000D01*
X106740000Y-116840000D02*
X106740000Y-118170000D01*
X106740000Y-115570000D02*
X104080000Y-115570000D01*
X104080000Y-115570000D02*
X104080000Y-112970000D01*
X106740000Y-115570000D02*
X106740000Y-112970000D01*
X106740000Y-112970000D02*
X104080000Y-112970000D01*
%TO.C,J8*%
X128210000Y-77410000D02*
X129540000Y-77410000D01*
X128210000Y-78740000D02*
X128210000Y-77410000D01*
X128210000Y-80010000D02*
X130870000Y-80010000D01*
X130870000Y-80010000D02*
X130870000Y-80070000D01*
X128210000Y-80010000D02*
X128210000Y-80070000D01*
X128210000Y-80070000D02*
X130870000Y-80070000D01*
%TO.C,J9*%
X133290000Y-80070000D02*
X133290000Y-78740000D01*
X134620000Y-80070000D02*
X133290000Y-80070000D01*
X135890000Y-80070000D02*
X135890000Y-77410000D01*
X135890000Y-77410000D02*
X138490000Y-77410000D01*
X135890000Y-80070000D02*
X138490000Y-80070000D01*
X138490000Y-80070000D02*
X138490000Y-77410000D01*
%TO.C,J11*%
X85665000Y-112335000D02*
X86995000Y-112335000D01*
X85665000Y-113665000D02*
X85665000Y-112335000D01*
X85665000Y-114935000D02*
X88325000Y-114935000D01*
X88325000Y-114935000D02*
X88325000Y-117535000D01*
X85665000Y-114935000D02*
X85665000Y-117535000D01*
X85665000Y-117535000D02*
X88325000Y-117535000D01*
%TO.C,J14*%
X112455000Y-122615000D02*
X112455000Y-119955000D01*
X107315000Y-122615000D02*
X112455000Y-122615000D01*
X107315000Y-119955000D02*
X112455000Y-119955000D01*
X107315000Y-122615000D02*
X107315000Y-119955000D01*
X106045000Y-122615000D02*
X104715000Y-122615000D01*
X104715000Y-122615000D02*
X104715000Y-121285000D01*
%TO.C,Q1*%
X108910000Y-113450000D02*
X117150000Y-113450000D01*
X108910000Y-116940000D02*
X117150000Y-116940000D01*
X108910000Y-113450000D02*
X108910000Y-116940000D01*
X117150000Y-113450000D02*
X117150000Y-116940000D01*
X111430000Y-113450000D02*
X111430000Y-114520000D01*
X111430000Y-116620000D02*
X111430000Y-116940000D01*
X114631000Y-113450000D02*
X114631000Y-115030000D01*
X114631000Y-116110000D02*
X114631000Y-116940000D01*
%TO.C,R2*%
X112300000Y-96420000D02*
X112300000Y-99160000D01*
X112300000Y-99160000D02*
X118840000Y-99160000D01*
X118840000Y-99160000D02*
X118840000Y-96420000D01*
X118840000Y-96420000D02*
X112300000Y-96420000D01*
X108990000Y-97790000D02*
X112300000Y-97790000D01*
X122150000Y-97790000D02*
X118840000Y-97790000D01*
%TO.C,R17*%
X124995000Y-102330000D02*
X127735000Y-102330000D01*
X127735000Y-102330000D02*
X127735000Y-95790000D01*
X127735000Y-95790000D02*
X124995000Y-95790000D01*
X124995000Y-95790000D02*
X124995000Y-102330000D01*
X126365000Y-105640000D02*
X126365000Y-102330000D01*
X126365000Y-92480000D02*
X126365000Y-95790000D01*
%TO.C,R18*%
X138970000Y-81180000D02*
X138970000Y-83920000D01*
X138970000Y-83920000D02*
X145510000Y-83920000D01*
X145510000Y-83920000D02*
X145510000Y-81180000D01*
X145510000Y-81180000D02*
X138970000Y-81180000D01*
X135660000Y-82550000D02*
X138970000Y-82550000D01*
X148820000Y-82550000D02*
X145510000Y-82550000D01*
%TO.C,R9*%
X93345000Y-102335000D02*
X93345000Y-102405000D01*
X94715000Y-100965000D02*
G75*
G03*
X94715000Y-100965000I-1370000J0D01*
G01*
%TO.C,R1*%
X91975000Y-95885000D02*
X91905000Y-95885000D01*
X94715000Y-95885000D02*
G75*
G03*
X94715000Y-95885000I-1370000J0D01*
G01*
%TO.C,R4*%
X92610000Y-91440000D02*
X92540000Y-91440000D01*
X95350000Y-91440000D02*
G75*
G03*
X95350000Y-91440000I-1370000J0D01*
G01*
%TO.C,R3*%
X89000000Y-102235000D02*
G75*
G03*
X89000000Y-102235000I-1370000J0D01*
G01*
X87630000Y-103605000D02*
X87630000Y-103675000D01*
%TO.C,R5*%
X87630000Y-97055000D02*
X87630000Y-96985000D01*
X89000000Y-98425000D02*
G75*
G03*
X89000000Y-98425000I-1370000J0D01*
G01*
%TO.C,R11*%
X108585000Y-92610000D02*
X108585000Y-92540000D01*
X109955000Y-93980000D02*
G75*
G03*
X109955000Y-93980000I-1370000J0D01*
G01*
%TO.C,R7*%
X113638000Y-93980000D02*
G75*
G03*
X113638000Y-93980000I-1370000J0D01*
G01*
X112268000Y-92610000D02*
X112268000Y-92540000D01*
%TO.C,R16*%
X107088000Y-87630000D02*
X107018000Y-87630000D01*
X109828000Y-87630000D02*
G75*
G03*
X109828000Y-87630000I-1370000J0D01*
G01*
%TO.C,R6*%
X93372000Y-82854800D02*
X93302000Y-82854800D01*
X96112000Y-82854800D02*
G75*
G03*
X96112000Y-82854800I-1370000J0D01*
G01*
%TO.C,R10*%
X94080000Y-86360000D02*
X94150000Y-86360000D01*
X94080000Y-86360000D02*
G75*
G03*
X94080000Y-86360000I-1370000J0D01*
G01*
%TO.C,R15*%
X112625000Y-83820000D02*
X109315000Y-83820000D01*
X99465000Y-83820000D02*
X102775000Y-83820000D01*
X109315000Y-82450000D02*
X102775000Y-82450000D01*
X109315000Y-85190000D02*
X109315000Y-82450000D01*
X102775000Y-85190000D02*
X109315000Y-85190000D01*
X102775000Y-82450000D02*
X102775000Y-85190000D01*
%TO.C,R14*%
X115800000Y-109855000D02*
X112490000Y-109855000D01*
X102640000Y-109855000D02*
X105950000Y-109855000D01*
X112490000Y-108485000D02*
X105950000Y-108485000D01*
X112490000Y-111225000D02*
X112490000Y-108485000D01*
X105950000Y-111225000D02*
X112490000Y-111225000D01*
X105950000Y-108485000D02*
X105950000Y-111225000D01*
%TO.C,R8*%
X122936000Y-90270000D02*
X122936000Y-90340000D01*
X124306000Y-88900000D02*
G75*
G03*
X124306000Y-88900000I-1370000J0D01*
G01*
%TO.C,R12*%
X119534000Y-80010000D02*
X119464000Y-80010000D01*
X122274000Y-80010000D02*
G75*
G03*
X122274000Y-80010000I-1370000J0D01*
G01*
%TO.C,R19*%
X159104000Y-120904000D02*
X159174000Y-120904000D01*
X159104000Y-120904000D02*
G75*
G03*
X159104000Y-120904000I-1370000J0D01*
G01*
%TO.C,R20*%
X91975000Y-116205000D02*
X91905000Y-116205000D01*
X94715000Y-116205000D02*
G75*
G03*
X94715000Y-116205000I-1370000J0D01*
G01*
%TO.C,BP1*%
D12*
X180413138Y-85666271D02*
X180555995Y-85713890D01*
X180603614Y-85761509D01*
X180651233Y-85856747D01*
X180651233Y-85999604D01*
X180603614Y-86094842D01*
X180555995Y-86142461D01*
X180460757Y-86190080D01*
X180079804Y-86190080D01*
X180079804Y-85190080D01*
X180413138Y-85190080D01*
X180508376Y-85237700D01*
X180555995Y-85285319D01*
X180603614Y-85380557D01*
X180603614Y-85475795D01*
X180555995Y-85571033D01*
X180508376Y-85618652D01*
X180413138Y-85666271D01*
X180079804Y-85666271D01*
X181079804Y-86190080D02*
X181079804Y-85190080D01*
X181460757Y-85190080D01*
X181555995Y-85237700D01*
X181603614Y-85285319D01*
X181651233Y-85380557D01*
X181651233Y-85523414D01*
X181603614Y-85618652D01*
X181555995Y-85666271D01*
X181460757Y-85713890D01*
X181079804Y-85713890D01*
X182603614Y-86190080D02*
X182032185Y-86190080D01*
X182317900Y-86190080D02*
X182317900Y-85190080D01*
X182222661Y-85332938D01*
X182127423Y-85428176D01*
X182032185Y-85475795D01*
X133321285Y-95162619D02*
X132764142Y-95162619D01*
X133064142Y-94781666D01*
X132935571Y-94781666D01*
X132849857Y-94734047D01*
X132807000Y-94686428D01*
X132764142Y-94591190D01*
X132764142Y-94353095D01*
X132807000Y-94257857D01*
X132849857Y-94210238D01*
X132935571Y-94162619D01*
X133192714Y-94162619D01*
X133278428Y-94210238D01*
X133321285Y-94257857D01*
X132507000Y-95162619D02*
X132207000Y-94162619D01*
X131907000Y-95162619D01*
X131692714Y-95162619D02*
X131135571Y-95162619D01*
X131435571Y-94781666D01*
X131307000Y-94781666D01*
X131221285Y-94734047D01*
X131178428Y-94686428D01*
X131135571Y-94591190D01*
X131135571Y-94353095D01*
X131178428Y-94257857D01*
X131221285Y-94210238D01*
X131307000Y-94162619D01*
X131564142Y-94162619D01*
X131649857Y-94210238D01*
X131692714Y-94257857D01*
X133449857Y-96750238D02*
X133321285Y-96702619D01*
X133107000Y-96702619D01*
X133021285Y-96750238D01*
X132978428Y-96797857D01*
X132935571Y-96893095D01*
X132935571Y-96988333D01*
X132978428Y-97083571D01*
X133021285Y-97131190D01*
X133107000Y-97178809D01*
X133278428Y-97226428D01*
X133364142Y-97274047D01*
X133407000Y-97321666D01*
X133449857Y-97416904D01*
X133449857Y-97512142D01*
X133407000Y-97607380D01*
X133364142Y-97655000D01*
X133278428Y-97702619D01*
X133064142Y-97702619D01*
X132935571Y-97655000D01*
X132635571Y-97702619D02*
X132421285Y-96702619D01*
X132249857Y-97416904D01*
X132078428Y-96702619D01*
X131864142Y-97702619D01*
X131349857Y-97702619D02*
X131178428Y-97702619D01*
X131092714Y-97655000D01*
X131007000Y-97559761D01*
X130964142Y-97369285D01*
X130964142Y-97035952D01*
X131007000Y-96845476D01*
X131092714Y-96750238D01*
X131178428Y-96702619D01*
X131349857Y-96702619D01*
X131435571Y-96750238D01*
X131521285Y-96845476D01*
X131564142Y-97035952D01*
X131564142Y-97369285D01*
X131521285Y-97559761D01*
X131435571Y-97655000D01*
X131349857Y-97702619D01*
X133480714Y-99290238D02*
X133352142Y-99242619D01*
X133137857Y-99242619D01*
X133052142Y-99290238D01*
X133009285Y-99337857D01*
X132966428Y-99433095D01*
X132966428Y-99528333D01*
X133009285Y-99623571D01*
X133052142Y-99671190D01*
X133137857Y-99718809D01*
X133309285Y-99766428D01*
X133395000Y-99814047D01*
X133437857Y-99861666D01*
X133480714Y-99956904D01*
X133480714Y-100052142D01*
X133437857Y-100147380D01*
X133395000Y-100195000D01*
X133309285Y-100242619D01*
X133095000Y-100242619D01*
X132966428Y-100195000D01*
X132666428Y-100242619D02*
X132452142Y-99242619D01*
X132280714Y-99956904D01*
X132109285Y-99242619D01*
X131895000Y-100242619D01*
X131037857Y-99337857D02*
X131080714Y-99290238D01*
X131209285Y-99242619D01*
X131295000Y-99242619D01*
X131423571Y-99290238D01*
X131509285Y-99385476D01*
X131552142Y-99480714D01*
X131595000Y-99671190D01*
X131595000Y-99814047D01*
X131552142Y-100004523D01*
X131509285Y-100099761D01*
X131423571Y-100195000D01*
X131295000Y-100242619D01*
X131209285Y-100242619D01*
X131080714Y-100195000D01*
X131037857Y-100147380D01*
X130223571Y-99242619D02*
X130652142Y-99242619D01*
X130652142Y-100242619D01*
X129923571Y-99242619D02*
X129923571Y-100242619D01*
X129409285Y-99242619D02*
X129795000Y-99814047D01*
X129409285Y-100242619D02*
X129923571Y-99671190D01*
X132892714Y-102735000D02*
X132978428Y-102782619D01*
X133107000Y-102782619D01*
X133235571Y-102735000D01*
X133321285Y-102639761D01*
X133364142Y-102544523D01*
X133407000Y-102354047D01*
X133407000Y-102211190D01*
X133364142Y-102020714D01*
X133321285Y-101925476D01*
X133235571Y-101830238D01*
X133107000Y-101782619D01*
X133021285Y-101782619D01*
X132892714Y-101830238D01*
X132849857Y-101877857D01*
X132849857Y-102211190D01*
X133021285Y-102211190D01*
X132464142Y-101782619D02*
X132464142Y-102782619D01*
X131949857Y-101782619D01*
X131949857Y-102782619D01*
X131521285Y-101782619D02*
X131521285Y-102782619D01*
X131307000Y-102782619D01*
X131178428Y-102735000D01*
X131092714Y-102639761D01*
X131049857Y-102544523D01*
X131007000Y-102354047D01*
X131007000Y-102211190D01*
X131049857Y-102020714D01*
X131092714Y-101925476D01*
X131178428Y-101830238D01*
X131307000Y-101782619D01*
X131521285Y-101782619D01*
%TO.C,R13*%
X121404142Y-85275680D02*
X121070809Y-84799490D01*
X120832714Y-85275680D02*
X120832714Y-84275680D01*
X121213666Y-84275680D01*
X121308904Y-84323300D01*
X121356523Y-84370919D01*
X121404142Y-84466157D01*
X121404142Y-84609014D01*
X121356523Y-84704252D01*
X121308904Y-84751871D01*
X121213666Y-84799490D01*
X120832714Y-84799490D01*
X122356523Y-85275680D02*
X121785095Y-85275680D01*
X122070809Y-85275680D02*
X122070809Y-84275680D01*
X121975571Y-84418538D01*
X121880333Y-84513776D01*
X121785095Y-84561395D01*
X122689857Y-84275680D02*
X123308904Y-84275680D01*
X122975571Y-84656633D01*
X123118428Y-84656633D01*
X123213666Y-84704252D01*
X123261285Y-84751871D01*
X123308904Y-84847109D01*
X123308904Y-85085204D01*
X123261285Y-85180442D01*
X123213666Y-85228061D01*
X123118428Y-85275680D01*
X122832714Y-85275680D01*
X122737476Y-85228061D01*
X122689857Y-85180442D01*
%TO.C,R21*%
X98417142Y-114287380D02*
X98083809Y-113811190D01*
X97845714Y-114287380D02*
X97845714Y-113287380D01*
X98226666Y-113287380D01*
X98321904Y-113335000D01*
X98369523Y-113382619D01*
X98417142Y-113477857D01*
X98417142Y-113620714D01*
X98369523Y-113715952D01*
X98321904Y-113763571D01*
X98226666Y-113811190D01*
X97845714Y-113811190D01*
X98798095Y-113382619D02*
X98845714Y-113335000D01*
X98940952Y-113287380D01*
X99179047Y-113287380D01*
X99274285Y-113335000D01*
X99321904Y-113382619D01*
X99369523Y-113477857D01*
X99369523Y-113573095D01*
X99321904Y-113715952D01*
X98750476Y-114287380D01*
X99369523Y-114287380D01*
X100321904Y-114287380D02*
X99750476Y-114287380D01*
X100036190Y-114287380D02*
X100036190Y-113287380D01*
X99940952Y-113430238D01*
X99845714Y-113525476D01*
X99750476Y-113573095D01*
%TO.C,J10*%
X144465776Y-110602780D02*
X144465776Y-111317066D01*
X144418157Y-111459923D01*
X144322919Y-111555161D01*
X144180061Y-111602780D01*
X144084823Y-111602780D01*
X145465776Y-111602780D02*
X144894347Y-111602780D01*
X145180061Y-111602780D02*
X145180061Y-110602780D01*
X145084823Y-110745638D01*
X144989585Y-110840876D01*
X144894347Y-110888495D01*
X146084823Y-110602780D02*
X146180061Y-110602780D01*
X146275300Y-110650400D01*
X146322919Y-110698019D01*
X146370538Y-110793257D01*
X146418157Y-110983733D01*
X146418157Y-111221828D01*
X146370538Y-111412304D01*
X146322919Y-111507542D01*
X146275300Y-111555161D01*
X146180061Y-111602780D01*
X146084823Y-111602780D01*
X145989585Y-111555161D01*
X145941966Y-111507542D01*
X145894347Y-111412304D01*
X145846728Y-111221828D01*
X145846728Y-110983733D01*
X145894347Y-110793257D01*
X145941966Y-110698019D01*
X145989585Y-110650400D01*
X146084823Y-110602780D01*
%TO.C,RV1*%
X170181661Y-113342680D02*
X169848328Y-112866490D01*
X169610233Y-113342680D02*
X169610233Y-112342680D01*
X169991185Y-112342680D01*
X170086423Y-112390300D01*
X170134042Y-112437919D01*
X170181661Y-112533157D01*
X170181661Y-112676014D01*
X170134042Y-112771252D01*
X170086423Y-112818871D01*
X169991185Y-112866490D01*
X169610233Y-112866490D01*
X170467376Y-112342680D02*
X170800709Y-113342680D01*
X171134042Y-112342680D01*
X171991185Y-113342680D02*
X171419757Y-113342680D01*
X171705471Y-113342680D02*
X171705471Y-112342680D01*
X171610233Y-112485538D01*
X171514995Y-112580776D01*
X171419757Y-112628395D01*
%TO.C,J13*%
X100155476Y-120089680D02*
X100155476Y-120803966D01*
X100107857Y-120946823D01*
X100012619Y-121042061D01*
X99869761Y-121089680D01*
X99774523Y-121089680D01*
X101155476Y-121089680D02*
X100584047Y-121089680D01*
X100869761Y-121089680D02*
X100869761Y-120089680D01*
X100774523Y-120232538D01*
X100679285Y-120327776D01*
X100584047Y-120375395D01*
X101488809Y-120089680D02*
X102107857Y-120089680D01*
X101774523Y-120470633D01*
X101917380Y-120470633D01*
X102012619Y-120518252D01*
X102060238Y-120565871D01*
X102107857Y-120661109D01*
X102107857Y-120899204D01*
X102060238Y-120994442D01*
X102012619Y-121042061D01*
X101917380Y-121089680D01*
X101631666Y-121089680D01*
X101536428Y-121042061D01*
X101488809Y-120994442D01*
%TO.C,C5*%
X141585333Y-121529142D02*
X141537714Y-121576761D01*
X141394857Y-121624380D01*
X141299619Y-121624380D01*
X141156761Y-121576761D01*
X141061523Y-121481523D01*
X141013904Y-121386285D01*
X140966285Y-121195809D01*
X140966285Y-121052952D01*
X141013904Y-120862476D01*
X141061523Y-120767238D01*
X141156761Y-120672000D01*
X141299619Y-120624380D01*
X141394857Y-120624380D01*
X141537714Y-120672000D01*
X141585333Y-120719619D01*
X142490095Y-120624380D02*
X142013904Y-120624380D01*
X141966285Y-121100571D01*
X142013904Y-121052952D01*
X142109142Y-121005333D01*
X142347238Y-121005333D01*
X142442476Y-121052952D01*
X142490095Y-121100571D01*
X142537714Y-121195809D01*
X142537714Y-121433904D01*
X142490095Y-121529142D01*
X142442476Y-121576761D01*
X142347238Y-121624380D01*
X142109142Y-121624380D01*
X142013904Y-121576761D01*
X141966285Y-121529142D01*
%TO.C,J12*%
X147780476Y-116756380D02*
X147780476Y-117470666D01*
X147732857Y-117613523D01*
X147637619Y-117708761D01*
X147494761Y-117756380D01*
X147399523Y-117756380D01*
X148780476Y-117756380D02*
X148209047Y-117756380D01*
X148494761Y-117756380D02*
X148494761Y-116756380D01*
X148399523Y-116899238D01*
X148304285Y-116994476D01*
X148209047Y-117042095D01*
X149161428Y-116851619D02*
X149209047Y-116804000D01*
X149304285Y-116756380D01*
X149542380Y-116756380D01*
X149637619Y-116804000D01*
X149685238Y-116851619D01*
X149732857Y-116946857D01*
X149732857Y-117042095D01*
X149685238Y-117184952D01*
X149113809Y-117756380D01*
X149732857Y-117756380D01*
%TO.C,C1*%
X116686033Y-90133442D02*
X116638414Y-90181061D01*
X116495557Y-90228680D01*
X116400319Y-90228680D01*
X116257461Y-90181061D01*
X116162223Y-90085823D01*
X116114604Y-89990585D01*
X116066985Y-89800109D01*
X116066985Y-89657252D01*
X116114604Y-89466776D01*
X116162223Y-89371538D01*
X116257461Y-89276300D01*
X116400319Y-89228680D01*
X116495557Y-89228680D01*
X116638414Y-89276300D01*
X116686033Y-89323919D01*
X117638414Y-90228680D02*
X117066985Y-90228680D01*
X117352700Y-90228680D02*
X117352700Y-89228680D01*
X117257461Y-89371538D01*
X117162223Y-89466776D01*
X117066985Y-89514395D01*
%TO.C,C2*%
X129627333Y-84024742D02*
X129579714Y-84072361D01*
X129436857Y-84119980D01*
X129341619Y-84119980D01*
X129198761Y-84072361D01*
X129103523Y-83977123D01*
X129055904Y-83881885D01*
X129008285Y-83691409D01*
X129008285Y-83548552D01*
X129055904Y-83358076D01*
X129103523Y-83262838D01*
X129198761Y-83167600D01*
X129341619Y-83119980D01*
X129436857Y-83119980D01*
X129579714Y-83167600D01*
X129627333Y-83215219D01*
X130008285Y-83215219D02*
X130055904Y-83167600D01*
X130151142Y-83119980D01*
X130389238Y-83119980D01*
X130484476Y-83167600D01*
X130532095Y-83215219D01*
X130579714Y-83310457D01*
X130579714Y-83405695D01*
X130532095Y-83548552D01*
X129960666Y-84119980D01*
X130579714Y-84119980D01*
%TO.C,C3*%
X99007633Y-104941642D02*
X98960014Y-104989261D01*
X98817157Y-105036880D01*
X98721919Y-105036880D01*
X98579061Y-104989261D01*
X98483823Y-104894023D01*
X98436204Y-104798785D01*
X98388585Y-104608309D01*
X98388585Y-104465452D01*
X98436204Y-104274976D01*
X98483823Y-104179738D01*
X98579061Y-104084500D01*
X98721919Y-104036880D01*
X98817157Y-104036880D01*
X98960014Y-104084500D01*
X99007633Y-104132119D01*
X99340966Y-104036880D02*
X99960014Y-104036880D01*
X99626680Y-104417833D01*
X99769538Y-104417833D01*
X99864776Y-104465452D01*
X99912395Y-104513071D01*
X99960014Y-104608309D01*
X99960014Y-104846404D01*
X99912395Y-104941642D01*
X99864776Y-104989261D01*
X99769538Y-105036880D01*
X99483823Y-105036880D01*
X99388585Y-104989261D01*
X99340966Y-104941642D01*
%TO.C,C4*%
X102627133Y-89701642D02*
X102579514Y-89749261D01*
X102436657Y-89796880D01*
X102341419Y-89796880D01*
X102198561Y-89749261D01*
X102103323Y-89654023D01*
X102055704Y-89558785D01*
X102008085Y-89368309D01*
X102008085Y-89225452D01*
X102055704Y-89034976D01*
X102103323Y-88939738D01*
X102198561Y-88844500D01*
X102341419Y-88796880D01*
X102436657Y-88796880D01*
X102579514Y-88844500D01*
X102627133Y-88892119D01*
X103484276Y-89130214D02*
X103484276Y-89796880D01*
X103246180Y-88749261D02*
X103008085Y-89463547D01*
X103627133Y-89463547D01*
%TO.C,C6*%
X90346233Y-106694242D02*
X90298614Y-106741861D01*
X90155757Y-106789480D01*
X90060519Y-106789480D01*
X89917661Y-106741861D01*
X89822423Y-106646623D01*
X89774804Y-106551385D01*
X89727185Y-106360909D01*
X89727185Y-106218052D01*
X89774804Y-106027576D01*
X89822423Y-105932338D01*
X89917661Y-105837100D01*
X90060519Y-105789480D01*
X90155757Y-105789480D01*
X90298614Y-105837100D01*
X90346233Y-105884719D01*
X91203376Y-105789480D02*
X91012900Y-105789480D01*
X90917661Y-105837100D01*
X90870042Y-105884719D01*
X90774804Y-106027576D01*
X90727185Y-106218052D01*
X90727185Y-106599004D01*
X90774804Y-106694242D01*
X90822423Y-106741861D01*
X90917661Y-106789480D01*
X91108138Y-106789480D01*
X91203376Y-106741861D01*
X91250995Y-106694242D01*
X91298614Y-106599004D01*
X91298614Y-106360909D01*
X91250995Y-106265671D01*
X91203376Y-106218052D01*
X91108138Y-106170433D01*
X90917661Y-106170433D01*
X90822423Y-106218052D01*
X90774804Y-106265671D01*
X90727185Y-106360909D01*
%TO.C,C7*%
X132611833Y-112307642D02*
X132564214Y-112355261D01*
X132421357Y-112402880D01*
X132326119Y-112402880D01*
X132183261Y-112355261D01*
X132088023Y-112260023D01*
X132040404Y-112164785D01*
X131992785Y-111974309D01*
X131992785Y-111831452D01*
X132040404Y-111640976D01*
X132088023Y-111545738D01*
X132183261Y-111450500D01*
X132326119Y-111402880D01*
X132421357Y-111402880D01*
X132564214Y-111450500D01*
X132611833Y-111498119D01*
X132945166Y-111402880D02*
X133611833Y-111402880D01*
X133183261Y-112402880D01*
%TO.C,C8*%
X113587233Y-104039942D02*
X113539614Y-104087561D01*
X113396757Y-104135180D01*
X113301519Y-104135180D01*
X113158661Y-104087561D01*
X113063423Y-103992323D01*
X113015804Y-103897085D01*
X112968185Y-103706609D01*
X112968185Y-103563752D01*
X113015804Y-103373276D01*
X113063423Y-103278038D01*
X113158661Y-103182800D01*
X113301519Y-103135180D01*
X113396757Y-103135180D01*
X113539614Y-103182800D01*
X113587233Y-103230419D01*
X114158661Y-103563752D02*
X114063423Y-103516133D01*
X114015804Y-103468514D01*
X113968185Y-103373276D01*
X113968185Y-103325657D01*
X114015804Y-103230419D01*
X114063423Y-103182800D01*
X114158661Y-103135180D01*
X114349138Y-103135180D01*
X114444376Y-103182800D01*
X114491995Y-103230419D01*
X114539614Y-103325657D01*
X114539614Y-103373276D01*
X114491995Y-103468514D01*
X114444376Y-103516133D01*
X114349138Y-103563752D01*
X114158661Y-103563752D01*
X114063423Y-103611371D01*
X114015804Y-103658990D01*
X113968185Y-103754228D01*
X113968185Y-103944704D01*
X114015804Y-104039942D01*
X114063423Y-104087561D01*
X114158661Y-104135180D01*
X114349138Y-104135180D01*
X114444376Y-104087561D01*
X114491995Y-104039942D01*
X114539614Y-103944704D01*
X114539614Y-103754228D01*
X114491995Y-103658990D01*
X114444376Y-103611371D01*
X114349138Y-103563752D01*
%TO.C,C9*%
X159332633Y-77852542D02*
X159285014Y-77900161D01*
X159142157Y-77947780D01*
X159046919Y-77947780D01*
X158904061Y-77900161D01*
X158808823Y-77804923D01*
X158761204Y-77709685D01*
X158713585Y-77519209D01*
X158713585Y-77376352D01*
X158761204Y-77185876D01*
X158808823Y-77090638D01*
X158904061Y-76995400D01*
X159046919Y-76947780D01*
X159142157Y-76947780D01*
X159285014Y-76995400D01*
X159332633Y-77043019D01*
X159808823Y-77947780D02*
X159999300Y-77947780D01*
X160094538Y-77900161D01*
X160142157Y-77852542D01*
X160237395Y-77709685D01*
X160285014Y-77519209D01*
X160285014Y-77138257D01*
X160237395Y-77043019D01*
X160189776Y-76995400D01*
X160094538Y-76947780D01*
X159904061Y-76947780D01*
X159808823Y-76995400D01*
X159761204Y-77043019D01*
X159713585Y-77138257D01*
X159713585Y-77376352D01*
X159761204Y-77471590D01*
X159808823Y-77519209D01*
X159904061Y-77566828D01*
X160094538Y-77566828D01*
X160189776Y-77519209D01*
X160237395Y-77471590D01*
X160285014Y-77376352D01*
%TO.C,C10*%
X171404042Y-77801742D02*
X171356423Y-77849361D01*
X171213566Y-77896980D01*
X171118328Y-77896980D01*
X170975471Y-77849361D01*
X170880233Y-77754123D01*
X170832614Y-77658885D01*
X170784995Y-77468409D01*
X170784995Y-77325552D01*
X170832614Y-77135076D01*
X170880233Y-77039838D01*
X170975471Y-76944600D01*
X171118328Y-76896980D01*
X171213566Y-76896980D01*
X171356423Y-76944600D01*
X171404042Y-76992219D01*
X172356423Y-77896980D02*
X171784995Y-77896980D01*
X172070709Y-77896980D02*
X172070709Y-76896980D01*
X171975471Y-77039838D01*
X171880233Y-77135076D01*
X171784995Y-77182695D01*
X172975471Y-76896980D02*
X173070709Y-76896980D01*
X173165947Y-76944600D01*
X173213566Y-76992219D01*
X173261185Y-77087457D01*
X173308804Y-77277933D01*
X173308804Y-77516028D01*
X173261185Y-77706504D01*
X173213566Y-77801742D01*
X173165947Y-77849361D01*
X173070709Y-77896980D01*
X172975471Y-77896980D01*
X172880233Y-77849361D01*
X172832614Y-77801742D01*
X172784995Y-77706504D01*
X172737376Y-77516028D01*
X172737376Y-77277933D01*
X172784995Y-77087457D01*
X172832614Y-76992219D01*
X172880233Y-76944600D01*
X172975471Y-76896980D01*
%TO.C,C11*%
X176090342Y-83859642D02*
X176042723Y-83907261D01*
X175899866Y-83954880D01*
X175804628Y-83954880D01*
X175661771Y-83907261D01*
X175566533Y-83812023D01*
X175518914Y-83716785D01*
X175471295Y-83526309D01*
X175471295Y-83383452D01*
X175518914Y-83192976D01*
X175566533Y-83097738D01*
X175661771Y-83002500D01*
X175804628Y-82954880D01*
X175899866Y-82954880D01*
X176042723Y-83002500D01*
X176090342Y-83050119D01*
X177042723Y-83954880D02*
X176471295Y-83954880D01*
X176757009Y-83954880D02*
X176757009Y-82954880D01*
X176661771Y-83097738D01*
X176566533Y-83192976D01*
X176471295Y-83240595D01*
X177995104Y-83954880D02*
X177423676Y-83954880D01*
X177709390Y-83954880D02*
X177709390Y-82954880D01*
X177614152Y-83097738D01*
X177518914Y-83192976D01*
X177423676Y-83240595D01*
%TO.C,D1*%
X120902504Y-123451880D02*
X120902504Y-122451880D01*
X121140600Y-122451880D01*
X121283457Y-122499500D01*
X121378695Y-122594738D01*
X121426314Y-122689976D01*
X121473933Y-122880452D01*
X121473933Y-123023309D01*
X121426314Y-123213785D01*
X121378695Y-123309023D01*
X121283457Y-123404261D01*
X121140600Y-123451880D01*
X120902504Y-123451880D01*
X122426314Y-123451880D02*
X121854885Y-123451880D01*
X122140600Y-123451880D02*
X122140600Y-122451880D01*
X122045361Y-122594738D01*
X121950123Y-122689976D01*
X121854885Y-122737595D01*
X115943095Y-118267380D02*
X115943095Y-117267380D01*
X116514523Y-118267380D02*
X116085952Y-117695952D01*
X116514523Y-117267380D02*
X115943095Y-117838809D01*
%TO.C,J1*%
X87931666Y-84117380D02*
X87931666Y-84831666D01*
X87884047Y-84974523D01*
X87788809Y-85069761D01*
X87645952Y-85117380D01*
X87550714Y-85117380D01*
X88931666Y-85117380D02*
X88360238Y-85117380D01*
X88645952Y-85117380D02*
X88645952Y-84117380D01*
X88550714Y-84260238D01*
X88455476Y-84355476D01*
X88360238Y-84403095D01*
%TO.C,J2*%
X85137666Y-90676480D02*
X85137666Y-91390766D01*
X85090047Y-91533623D01*
X84994809Y-91628861D01*
X84851952Y-91676480D01*
X84756714Y-91676480D01*
X85566238Y-90771719D02*
X85613857Y-90724100D01*
X85709095Y-90676480D01*
X85947190Y-90676480D01*
X86042428Y-90724100D01*
X86090047Y-90771719D01*
X86137666Y-90866957D01*
X86137666Y-90962195D01*
X86090047Y-91105052D01*
X85518619Y-91676480D01*
X86137666Y-91676480D01*
%TO.C,J4*%
X124634666Y-77132380D02*
X124634666Y-77846666D01*
X124587047Y-77989523D01*
X124491809Y-78084761D01*
X124348952Y-78132380D01*
X124253714Y-78132380D01*
X125539428Y-77465714D02*
X125539428Y-78132380D01*
X125301333Y-77084761D02*
X125063238Y-77799047D01*
X125682285Y-77799047D01*
%TO.C,J5*%
X108277066Y-79030580D02*
X108277066Y-79744866D01*
X108229447Y-79887723D01*
X108134209Y-79982961D01*
X107991352Y-80030580D01*
X107896114Y-80030580D01*
X109229447Y-79030580D02*
X108753257Y-79030580D01*
X108705638Y-79506771D01*
X108753257Y-79459152D01*
X108848495Y-79411533D01*
X109086590Y-79411533D01*
X109181828Y-79459152D01*
X109229447Y-79506771D01*
X109277066Y-79602009D01*
X109277066Y-79840104D01*
X109229447Y-79935342D01*
X109181828Y-79982961D01*
X109086590Y-80030580D01*
X108848495Y-80030580D01*
X108753257Y-79982961D01*
X108705638Y-79935342D01*
%TO.C,J6*%
X151647566Y-80567280D02*
X151647566Y-81281566D01*
X151599947Y-81424423D01*
X151504709Y-81519661D01*
X151361852Y-81567280D01*
X151266614Y-81567280D01*
X152552328Y-80567280D02*
X152361852Y-80567280D01*
X152266614Y-80614900D01*
X152218995Y-80662519D01*
X152123757Y-80805376D01*
X152076138Y-80995852D01*
X152076138Y-81376804D01*
X152123757Y-81472042D01*
X152171376Y-81519661D01*
X152266614Y-81567280D01*
X152457090Y-81567280D01*
X152552328Y-81519661D01*
X152599947Y-81472042D01*
X152647566Y-81376804D01*
X152647566Y-81138709D01*
X152599947Y-81043471D01*
X152552328Y-80995852D01*
X152457090Y-80948233D01*
X152266614Y-80948233D01*
X152171376Y-80995852D01*
X152123757Y-81043471D01*
X152076138Y-81138709D01*
%TO.C,J7*%
X102358866Y-114387380D02*
X102358866Y-115101666D01*
X102311247Y-115244523D01*
X102216009Y-115339761D01*
X102073152Y-115387380D01*
X101977914Y-115387380D01*
X102739819Y-114387380D02*
X103406485Y-114387380D01*
X102977914Y-115387380D01*
%TO.C,J8*%
X129206666Y-75862380D02*
X129206666Y-76576666D01*
X129159047Y-76719523D01*
X129063809Y-76814761D01*
X128920952Y-76862380D01*
X128825714Y-76862380D01*
X129825714Y-76290952D02*
X129730476Y-76243333D01*
X129682857Y-76195714D01*
X129635238Y-76100476D01*
X129635238Y-76052857D01*
X129682857Y-75957619D01*
X129730476Y-75910000D01*
X129825714Y-75862380D01*
X130016190Y-75862380D01*
X130111428Y-75910000D01*
X130159047Y-75957619D01*
X130206666Y-76052857D01*
X130206666Y-76100476D01*
X130159047Y-76195714D01*
X130111428Y-76243333D01*
X130016190Y-76290952D01*
X129825714Y-76290952D01*
X129730476Y-76338571D01*
X129682857Y-76386190D01*
X129635238Y-76481428D01*
X129635238Y-76671904D01*
X129682857Y-76767142D01*
X129730476Y-76814761D01*
X129825714Y-76862380D01*
X130016190Y-76862380D01*
X130111428Y-76814761D01*
X130159047Y-76767142D01*
X130206666Y-76671904D01*
X130206666Y-76481428D01*
X130159047Y-76386190D01*
X130111428Y-76338571D01*
X130016190Y-76290952D01*
%TO.C,J9*%
X133537366Y-75766680D02*
X133537366Y-76480966D01*
X133489747Y-76623823D01*
X133394509Y-76719061D01*
X133251652Y-76766680D01*
X133156414Y-76766680D01*
X134061176Y-76766680D02*
X134251652Y-76766680D01*
X134346890Y-76719061D01*
X134394509Y-76671442D01*
X134489747Y-76528585D01*
X134537366Y-76338109D01*
X134537366Y-75957157D01*
X134489747Y-75861919D01*
X134442128Y-75814300D01*
X134346890Y-75766680D01*
X134156414Y-75766680D01*
X134061176Y-75814300D01*
X134013557Y-75861919D01*
X133965938Y-75957157D01*
X133965938Y-76195252D01*
X134013557Y-76290490D01*
X134061176Y-76338109D01*
X134156414Y-76385728D01*
X134346890Y-76385728D01*
X134442128Y-76338109D01*
X134489747Y-76290490D01*
X134537366Y-76195252D01*
%TO.C,J11*%
X89601776Y-111987080D02*
X89601776Y-112701366D01*
X89554157Y-112844223D01*
X89458919Y-112939461D01*
X89316061Y-112987080D01*
X89220823Y-112987080D01*
X90601776Y-112987080D02*
X90030347Y-112987080D01*
X90316061Y-112987080D02*
X90316061Y-111987080D01*
X90220823Y-112129938D01*
X90125585Y-112225176D01*
X90030347Y-112272795D01*
X91554157Y-112987080D02*
X90982728Y-112987080D01*
X91268442Y-112987080D02*
X91268442Y-111987080D01*
X91173204Y-112129938D01*
X91077966Y-112225176D01*
X90982728Y-112272795D01*
%TO.C,J14*%
X110302776Y-118260880D02*
X110302776Y-118975166D01*
X110255157Y-119118023D01*
X110159919Y-119213261D01*
X110017061Y-119260880D01*
X109921823Y-119260880D01*
X111302776Y-119260880D02*
X110731347Y-119260880D01*
X111017061Y-119260880D02*
X111017061Y-118260880D01*
X110921823Y-118403738D01*
X110826585Y-118498976D01*
X110731347Y-118546595D01*
X112159919Y-118594214D02*
X112159919Y-119260880D01*
X111921823Y-118213261D02*
X111683728Y-118927547D01*
X112302776Y-118927547D01*
%TO.C,Q1*%
X112934761Y-112997619D02*
X112839523Y-112950000D01*
X112744285Y-112854761D01*
X112601428Y-112711904D01*
X112506190Y-112664285D01*
X112410952Y-112664285D01*
X112458571Y-112902380D02*
X112363333Y-112854761D01*
X112268095Y-112759523D01*
X112220476Y-112569047D01*
X112220476Y-112235714D01*
X112268095Y-112045238D01*
X112363333Y-111950000D01*
X112458571Y-111902380D01*
X112649047Y-111902380D01*
X112744285Y-111950000D01*
X112839523Y-112045238D01*
X112887142Y-112235714D01*
X112887142Y-112569047D01*
X112839523Y-112759523D01*
X112744285Y-112854761D01*
X112649047Y-112902380D01*
X112458571Y-112902380D01*
X113839523Y-112902380D02*
X113268095Y-112902380D01*
X113553809Y-112902380D02*
X113553809Y-111902380D01*
X113458571Y-112045238D01*
X113363333Y-112140476D01*
X113268095Y-112188095D01*
%TO.C,R2*%
X117790933Y-100629980D02*
X117457600Y-100153790D01*
X117219504Y-100629980D02*
X117219504Y-99629980D01*
X117600457Y-99629980D01*
X117695695Y-99677600D01*
X117743314Y-99725219D01*
X117790933Y-99820457D01*
X117790933Y-99963314D01*
X117743314Y-100058552D01*
X117695695Y-100106171D01*
X117600457Y-100153790D01*
X117219504Y-100153790D01*
X118171885Y-99725219D02*
X118219504Y-99677600D01*
X118314742Y-99629980D01*
X118552838Y-99629980D01*
X118648076Y-99677600D01*
X118695695Y-99725219D01*
X118743314Y-99820457D01*
X118743314Y-99915695D01*
X118695695Y-100058552D01*
X118124266Y-100629980D01*
X118743314Y-100629980D01*
%TO.C,R17*%
X122597942Y-101290380D02*
X122264609Y-100814190D01*
X122026514Y-101290380D02*
X122026514Y-100290380D01*
X122407466Y-100290380D01*
X122502704Y-100338000D01*
X122550323Y-100385619D01*
X122597942Y-100480857D01*
X122597942Y-100623714D01*
X122550323Y-100718952D01*
X122502704Y-100766571D01*
X122407466Y-100814190D01*
X122026514Y-100814190D01*
X123550323Y-101290380D02*
X122978895Y-101290380D01*
X123264609Y-101290380D02*
X123264609Y-100290380D01*
X123169371Y-100433238D01*
X123074133Y-100528476D01*
X122978895Y-100576095D01*
X123883657Y-100290380D02*
X124550323Y-100290380D01*
X124121752Y-101290380D01*
%TO.C,R18*%
X141597142Y-80632380D02*
X141263809Y-80156190D01*
X141025714Y-80632380D02*
X141025714Y-79632380D01*
X141406666Y-79632380D01*
X141501904Y-79680000D01*
X141549523Y-79727619D01*
X141597142Y-79822857D01*
X141597142Y-79965714D01*
X141549523Y-80060952D01*
X141501904Y-80108571D01*
X141406666Y-80156190D01*
X141025714Y-80156190D01*
X142549523Y-80632380D02*
X141978095Y-80632380D01*
X142263809Y-80632380D02*
X142263809Y-79632380D01*
X142168571Y-79775238D01*
X142073333Y-79870476D01*
X141978095Y-79918095D01*
X143120952Y-80060952D02*
X143025714Y-80013333D01*
X142978095Y-79965714D01*
X142930476Y-79870476D01*
X142930476Y-79822857D01*
X142978095Y-79727619D01*
X143025714Y-79680000D01*
X143120952Y-79632380D01*
X143311428Y-79632380D01*
X143406666Y-79680000D01*
X143454285Y-79727619D01*
X143501904Y-79822857D01*
X143501904Y-79870476D01*
X143454285Y-79965714D01*
X143406666Y-80013333D01*
X143311428Y-80060952D01*
X143120952Y-80060952D01*
X143025714Y-80108571D01*
X142978095Y-80156190D01*
X142930476Y-80251428D01*
X142930476Y-80441904D01*
X142978095Y-80537142D01*
X143025714Y-80584761D01*
X143120952Y-80632380D01*
X143311428Y-80632380D01*
X143406666Y-80584761D01*
X143454285Y-80537142D01*
X143501904Y-80441904D01*
X143501904Y-80251428D01*
X143454285Y-80156190D01*
X143406666Y-80108571D01*
X143311428Y-80060952D01*
%TO.C,R9*%
X95548333Y-102687380D02*
X95215000Y-102211190D01*
X94976904Y-102687380D02*
X94976904Y-101687380D01*
X95357857Y-101687380D01*
X95453095Y-101735000D01*
X95500714Y-101782619D01*
X95548333Y-101877857D01*
X95548333Y-102020714D01*
X95500714Y-102115952D01*
X95453095Y-102163571D01*
X95357857Y-102211190D01*
X94976904Y-102211190D01*
X96024523Y-102687380D02*
X96215000Y-102687380D01*
X96310238Y-102639761D01*
X96357857Y-102592142D01*
X96453095Y-102449285D01*
X96500714Y-102258809D01*
X96500714Y-101877857D01*
X96453095Y-101782619D01*
X96405476Y-101735000D01*
X96310238Y-101687380D01*
X96119761Y-101687380D01*
X96024523Y-101735000D01*
X95976904Y-101782619D01*
X95929285Y-101877857D01*
X95929285Y-102115952D01*
X95976904Y-102211190D01*
X96024523Y-102258809D01*
X96119761Y-102306428D01*
X96310238Y-102306428D01*
X96405476Y-102258809D01*
X96453095Y-102211190D01*
X96500714Y-102115952D01*
%TO.C,R1*%
X91908333Y-98707380D02*
X91575000Y-98231190D01*
X91336904Y-98707380D02*
X91336904Y-97707380D01*
X91717857Y-97707380D01*
X91813095Y-97755000D01*
X91860714Y-97802619D01*
X91908333Y-97897857D01*
X91908333Y-98040714D01*
X91860714Y-98135952D01*
X91813095Y-98183571D01*
X91717857Y-98231190D01*
X91336904Y-98231190D01*
X92860714Y-98707380D02*
X92289285Y-98707380D01*
X92575000Y-98707380D02*
X92575000Y-97707380D01*
X92479761Y-97850238D01*
X92384523Y-97945476D01*
X92289285Y-97993095D01*
%TO.C,R4*%
X92543333Y-94262380D02*
X92210000Y-93786190D01*
X91971904Y-94262380D02*
X91971904Y-93262380D01*
X92352857Y-93262380D01*
X92448095Y-93310000D01*
X92495714Y-93357619D01*
X92543333Y-93452857D01*
X92543333Y-93595714D01*
X92495714Y-93690952D01*
X92448095Y-93738571D01*
X92352857Y-93786190D01*
X91971904Y-93786190D01*
X93400476Y-93595714D02*
X93400476Y-94262380D01*
X93162380Y-93214761D02*
X92924285Y-93929047D01*
X93543333Y-93929047D01*
%TO.C,R3*%
X89833333Y-103957380D02*
X89500000Y-103481190D01*
X89261904Y-103957380D02*
X89261904Y-102957380D01*
X89642857Y-102957380D01*
X89738095Y-103005000D01*
X89785714Y-103052619D01*
X89833333Y-103147857D01*
X89833333Y-103290714D01*
X89785714Y-103385952D01*
X89738095Y-103433571D01*
X89642857Y-103481190D01*
X89261904Y-103481190D01*
X90166666Y-102957380D02*
X90785714Y-102957380D01*
X90452380Y-103338333D01*
X90595238Y-103338333D01*
X90690476Y-103385952D01*
X90738095Y-103433571D01*
X90785714Y-103528809D01*
X90785714Y-103766904D01*
X90738095Y-103862142D01*
X90690476Y-103909761D01*
X90595238Y-103957380D01*
X90309523Y-103957380D01*
X90214285Y-103909761D01*
X90166666Y-103862142D01*
%TO.C,R5*%
X90079533Y-100033080D02*
X89746200Y-99556890D01*
X89508104Y-100033080D02*
X89508104Y-99033080D01*
X89889057Y-99033080D01*
X89984295Y-99080700D01*
X90031914Y-99128319D01*
X90079533Y-99223557D01*
X90079533Y-99366414D01*
X90031914Y-99461652D01*
X89984295Y-99509271D01*
X89889057Y-99556890D01*
X89508104Y-99556890D01*
X90984295Y-99033080D02*
X90508104Y-99033080D01*
X90460485Y-99509271D01*
X90508104Y-99461652D01*
X90603342Y-99414033D01*
X90841438Y-99414033D01*
X90936676Y-99461652D01*
X90984295Y-99509271D01*
X91031914Y-99604509D01*
X91031914Y-99842604D01*
X90984295Y-99937842D01*
X90936676Y-99985461D01*
X90841438Y-100033080D01*
X90603342Y-100033080D01*
X90508104Y-99985461D01*
X90460485Y-99937842D01*
%TO.C,R11*%
X109720142Y-90266780D02*
X109386809Y-89790590D01*
X109148714Y-90266780D02*
X109148714Y-89266780D01*
X109529666Y-89266780D01*
X109624904Y-89314400D01*
X109672523Y-89362019D01*
X109720142Y-89457257D01*
X109720142Y-89600114D01*
X109672523Y-89695352D01*
X109624904Y-89742971D01*
X109529666Y-89790590D01*
X109148714Y-89790590D01*
X110672523Y-90266780D02*
X110101095Y-90266780D01*
X110386809Y-90266780D02*
X110386809Y-89266780D01*
X110291571Y-89409638D01*
X110196333Y-89504876D01*
X110101095Y-89552495D01*
X111624904Y-90266780D02*
X111053476Y-90266780D01*
X111339190Y-90266780D02*
X111339190Y-89266780D01*
X111243952Y-89409638D01*
X111148714Y-89504876D01*
X111053476Y-89552495D01*
%TO.C,R7*%
X113790433Y-90228680D02*
X113457100Y-89752490D01*
X113219004Y-90228680D02*
X113219004Y-89228680D01*
X113599957Y-89228680D01*
X113695195Y-89276300D01*
X113742814Y-89323919D01*
X113790433Y-89419157D01*
X113790433Y-89562014D01*
X113742814Y-89657252D01*
X113695195Y-89704871D01*
X113599957Y-89752490D01*
X113219004Y-89752490D01*
X114123766Y-89228680D02*
X114790433Y-89228680D01*
X114361861Y-90228680D01*
%TO.C,R16*%
X105287842Y-90381080D02*
X104954509Y-89904890D01*
X104716414Y-90381080D02*
X104716414Y-89381080D01*
X105097366Y-89381080D01*
X105192604Y-89428700D01*
X105240223Y-89476319D01*
X105287842Y-89571557D01*
X105287842Y-89714414D01*
X105240223Y-89809652D01*
X105192604Y-89857271D01*
X105097366Y-89904890D01*
X104716414Y-89904890D01*
X106240223Y-90381080D02*
X105668795Y-90381080D01*
X105954509Y-90381080D02*
X105954509Y-89381080D01*
X105859271Y-89523938D01*
X105764033Y-89619176D01*
X105668795Y-89666795D01*
X107097366Y-89381080D02*
X106906890Y-89381080D01*
X106811652Y-89428700D01*
X106764033Y-89476319D01*
X106668795Y-89619176D01*
X106621176Y-89809652D01*
X106621176Y-90190604D01*
X106668795Y-90285842D01*
X106716414Y-90333461D01*
X106811652Y-90381080D01*
X107002128Y-90381080D01*
X107097366Y-90333461D01*
X107144985Y-90285842D01*
X107192604Y-90190604D01*
X107192604Y-89952509D01*
X107144985Y-89857271D01*
X107097366Y-89809652D01*
X107002128Y-89762033D01*
X106811652Y-89762033D01*
X106716414Y-89809652D01*
X106668795Y-89857271D01*
X106621176Y-89952509D01*
%TO.C,R6*%
X92759233Y-89314280D02*
X92425900Y-88838090D01*
X92187804Y-89314280D02*
X92187804Y-88314280D01*
X92568757Y-88314280D01*
X92663995Y-88361900D01*
X92711614Y-88409519D01*
X92759233Y-88504757D01*
X92759233Y-88647614D01*
X92711614Y-88742852D01*
X92663995Y-88790471D01*
X92568757Y-88838090D01*
X92187804Y-88838090D01*
X93616376Y-88314280D02*
X93425900Y-88314280D01*
X93330661Y-88361900D01*
X93283042Y-88409519D01*
X93187804Y-88552376D01*
X93140185Y-88742852D01*
X93140185Y-89123804D01*
X93187804Y-89219042D01*
X93235423Y-89266661D01*
X93330661Y-89314280D01*
X93521138Y-89314280D01*
X93616376Y-89266661D01*
X93663995Y-89219042D01*
X93711614Y-89123804D01*
X93711614Y-88885709D01*
X93663995Y-88790471D01*
X93616376Y-88742852D01*
X93521138Y-88695233D01*
X93330661Y-88695233D01*
X93235423Y-88742852D01*
X93187804Y-88790471D01*
X93140185Y-88885709D01*
%TO.C,R10*%
X94772242Y-80932280D02*
X94438909Y-80456090D01*
X94200814Y-80932280D02*
X94200814Y-79932280D01*
X94581766Y-79932280D01*
X94677004Y-79979900D01*
X94724623Y-80027519D01*
X94772242Y-80122757D01*
X94772242Y-80265614D01*
X94724623Y-80360852D01*
X94677004Y-80408471D01*
X94581766Y-80456090D01*
X94200814Y-80456090D01*
X95724623Y-80932280D02*
X95153195Y-80932280D01*
X95438909Y-80932280D02*
X95438909Y-79932280D01*
X95343671Y-80075138D01*
X95248433Y-80170376D01*
X95153195Y-80217995D01*
X96343671Y-79932280D02*
X96438909Y-79932280D01*
X96534147Y-79979900D01*
X96581766Y-80027519D01*
X96629385Y-80122757D01*
X96677004Y-80313233D01*
X96677004Y-80551328D01*
X96629385Y-80741804D01*
X96581766Y-80837042D01*
X96534147Y-80884661D01*
X96438909Y-80932280D01*
X96343671Y-80932280D01*
X96248433Y-80884661D01*
X96200814Y-80837042D01*
X96153195Y-80741804D01*
X96105576Y-80551328D01*
X96105576Y-80313233D01*
X96153195Y-80122757D01*
X96200814Y-80027519D01*
X96248433Y-79979900D01*
X96343671Y-79932280D01*
%TO.C,R15*%
X101871542Y-86698080D02*
X101538209Y-86221890D01*
X101300114Y-86698080D02*
X101300114Y-85698080D01*
X101681066Y-85698080D01*
X101776304Y-85745700D01*
X101823923Y-85793319D01*
X101871542Y-85888557D01*
X101871542Y-86031414D01*
X101823923Y-86126652D01*
X101776304Y-86174271D01*
X101681066Y-86221890D01*
X101300114Y-86221890D01*
X102823923Y-86698080D02*
X102252495Y-86698080D01*
X102538209Y-86698080D02*
X102538209Y-85698080D01*
X102442971Y-85840938D01*
X102347733Y-85936176D01*
X102252495Y-85983795D01*
X103728685Y-85698080D02*
X103252495Y-85698080D01*
X103204876Y-86174271D01*
X103252495Y-86126652D01*
X103347733Y-86079033D01*
X103585828Y-86079033D01*
X103681066Y-86126652D01*
X103728685Y-86174271D01*
X103776304Y-86269509D01*
X103776304Y-86507604D01*
X103728685Y-86602842D01*
X103681066Y-86650461D01*
X103585828Y-86698080D01*
X103347733Y-86698080D01*
X103252495Y-86650461D01*
X103204876Y-86602842D01*
%TO.C,R14*%
X115447842Y-108161080D02*
X115114509Y-107684890D01*
X114876414Y-108161080D02*
X114876414Y-107161080D01*
X115257366Y-107161080D01*
X115352604Y-107208700D01*
X115400223Y-107256319D01*
X115447842Y-107351557D01*
X115447842Y-107494414D01*
X115400223Y-107589652D01*
X115352604Y-107637271D01*
X115257366Y-107684890D01*
X114876414Y-107684890D01*
X116400223Y-108161080D02*
X115828795Y-108161080D01*
X116114509Y-108161080D02*
X116114509Y-107161080D01*
X116019271Y-107303938D01*
X115924033Y-107399176D01*
X115828795Y-107446795D01*
X117257366Y-107494414D02*
X117257366Y-108161080D01*
X117019271Y-107113461D02*
X116781176Y-107827747D01*
X117400223Y-107827747D01*
%TO.C,R8*%
X125449033Y-88958680D02*
X125115700Y-88482490D01*
X124877604Y-88958680D02*
X124877604Y-87958680D01*
X125258557Y-87958680D01*
X125353795Y-88006300D01*
X125401414Y-88053919D01*
X125449033Y-88149157D01*
X125449033Y-88292014D01*
X125401414Y-88387252D01*
X125353795Y-88434871D01*
X125258557Y-88482490D01*
X124877604Y-88482490D01*
X126020461Y-88387252D02*
X125925223Y-88339633D01*
X125877604Y-88292014D01*
X125829985Y-88196776D01*
X125829985Y-88149157D01*
X125877604Y-88053919D01*
X125925223Y-88006300D01*
X126020461Y-87958680D01*
X126210938Y-87958680D01*
X126306176Y-88006300D01*
X126353795Y-88053919D01*
X126401414Y-88149157D01*
X126401414Y-88196776D01*
X126353795Y-88292014D01*
X126306176Y-88339633D01*
X126210938Y-88387252D01*
X126020461Y-88387252D01*
X125925223Y-88434871D01*
X125877604Y-88482490D01*
X125829985Y-88577728D01*
X125829985Y-88768204D01*
X125877604Y-88863442D01*
X125925223Y-88911061D01*
X126020461Y-88958680D01*
X126210938Y-88958680D01*
X126306176Y-88911061D01*
X126353795Y-88863442D01*
X126401414Y-88768204D01*
X126401414Y-88577728D01*
X126353795Y-88482490D01*
X126306176Y-88434871D01*
X126210938Y-88387252D01*
%TO.C,R12*%
X119232442Y-78023980D02*
X118899109Y-77547790D01*
X118661014Y-78023980D02*
X118661014Y-77023980D01*
X119041966Y-77023980D01*
X119137204Y-77071600D01*
X119184823Y-77119219D01*
X119232442Y-77214457D01*
X119232442Y-77357314D01*
X119184823Y-77452552D01*
X119137204Y-77500171D01*
X119041966Y-77547790D01*
X118661014Y-77547790D01*
X120184823Y-78023980D02*
X119613395Y-78023980D01*
X119899109Y-78023980D02*
X119899109Y-77023980D01*
X119803871Y-77166838D01*
X119708633Y-77262076D01*
X119613395Y-77309695D01*
X120565776Y-77119219D02*
X120613395Y-77071600D01*
X120708633Y-77023980D01*
X120946728Y-77023980D01*
X121041966Y-77071600D01*
X121089585Y-77119219D01*
X121137204Y-77214457D01*
X121137204Y-77309695D01*
X121089585Y-77452552D01*
X120518157Y-78023980D01*
X121137204Y-78023980D01*
%TO.C,R19*%
X162450542Y-121572280D02*
X162117209Y-121096090D01*
X161879114Y-121572280D02*
X161879114Y-120572280D01*
X162260066Y-120572280D01*
X162355304Y-120619900D01*
X162402923Y-120667519D01*
X162450542Y-120762757D01*
X162450542Y-120905614D01*
X162402923Y-121000852D01*
X162355304Y-121048471D01*
X162260066Y-121096090D01*
X161879114Y-121096090D01*
X163402923Y-121572280D02*
X162831495Y-121572280D01*
X163117209Y-121572280D02*
X163117209Y-120572280D01*
X163021971Y-120715138D01*
X162926733Y-120810376D01*
X162831495Y-120857995D01*
X163879114Y-121572280D02*
X164069590Y-121572280D01*
X164164828Y-121524661D01*
X164212447Y-121477042D01*
X164307685Y-121334185D01*
X164355304Y-121143709D01*
X164355304Y-120762757D01*
X164307685Y-120667519D01*
X164260066Y-120619900D01*
X164164828Y-120572280D01*
X163974352Y-120572280D01*
X163879114Y-120619900D01*
X163831495Y-120667519D01*
X163783876Y-120762757D01*
X163783876Y-121000852D01*
X163831495Y-121096090D01*
X163879114Y-121143709D01*
X163974352Y-121191328D01*
X164164828Y-121191328D01*
X164260066Y-121143709D01*
X164307685Y-121096090D01*
X164355304Y-121000852D01*
%TO.C,R20*%
X91432142Y-119027380D02*
X91098809Y-118551190D01*
X90860714Y-119027380D02*
X90860714Y-118027380D01*
X91241666Y-118027380D01*
X91336904Y-118075000D01*
X91384523Y-118122619D01*
X91432142Y-118217857D01*
X91432142Y-118360714D01*
X91384523Y-118455952D01*
X91336904Y-118503571D01*
X91241666Y-118551190D01*
X90860714Y-118551190D01*
X91813095Y-118122619D02*
X91860714Y-118075000D01*
X91955952Y-118027380D01*
X92194047Y-118027380D01*
X92289285Y-118075000D01*
X92336904Y-118122619D01*
X92384523Y-118217857D01*
X92384523Y-118313095D01*
X92336904Y-118455952D01*
X91765476Y-119027380D01*
X92384523Y-119027380D01*
X93003571Y-118027380D02*
X93098809Y-118027380D01*
X93194047Y-118075000D01*
X93241666Y-118122619D01*
X93289285Y-118217857D01*
X93336904Y-118408333D01*
X93336904Y-118646428D01*
X93289285Y-118836904D01*
X93241666Y-118932142D01*
X93194047Y-118979761D01*
X93098809Y-119027380D01*
X93003571Y-119027380D01*
X92908333Y-118979761D01*
X92860714Y-118932142D01*
X92813095Y-118836904D01*
X92765476Y-118646428D01*
X92765476Y-118408333D01*
X92813095Y-118217857D01*
X92860714Y-118122619D01*
X92908333Y-118075000D01*
X93003571Y-118027380D01*
%TD*%
M02*
